<?xml version="1.0" encoding="utf-8" standalone="no"?>
<!DOCTYPE svg PUBLIC "-//W3C//DTD SVG 1.1//EN"
  "http://www.w3.org/Graphics/SVG/1.1/DTD/svg11.dtd">
<svg xmlns:xlink="http://www.w3.org/1999/xlink" width="856.025938pt" height="248.690625pt" viewBox="0 0 856.025938 248.690625" xmlns="http://www.w3.org/2000/svg" version="1.1">
 <metadata>
  <rdf:RDF xmlns:dc="http://purl.org/dc/elements/1.1/" xmlns:cc="http://creativecommons.org/ns#" xmlns:rdf="http://www.w3.org/1999/02/22-rdf-syntax-ns#">
   <cc:Work>
    <dc:type rdf:resource="http://purl.org/dc/dcmitype/StillImage"/>
    <dc:date>2025-01-14T16:06:53.199687</dc:date>
    <dc:format>image/svg+xml</dc:format>
    <dc:creator>
     <cc:Agent>
      <dc:title>Matplotlib v3.10.0, https://matplotlib.org/</dc:title>
     </cc:Agent>
    </dc:creator>
   </cc:Work>
  </rdf:RDF>
 </metadata>
 <defs>
  <style type="text/css">*{stroke-linejoin: round; stroke-linecap: butt}</style>
 </defs>
 <g id="figure_1">
  <g id="patch_1">
   <path d="M 0 248.690625 
L 856.025938 248.690625 
L 856.025938 0 
L 0 0 
z
" style="fill: #ffffff"/>
  </g>
  <g id="axes_1">
   <g id="patch_2">
    <path d="M 47.325 212.2 
L 264.998333 212.2 
L 264.998333 49.25625 
L 47.325 49.25625 
z
" style="fill: #ffffff"/>
   </g>
   <g id="matplotlib.axis_1">
    <g id="xtick_1">
     <g id="line2d_1">
      <path d="M 47.325 212.2 
L 47.325 49.25625 
" clip-path="url(#p3e01ac5791)" style="fill: none; stroke: #cccccc; stroke-width: 0.8; stroke-linecap: round"/>
     </g>
     <g id="text_1">
      <!-- 0 -->
      <g style="fill: #262626" transform="translate(44.544531 226.357813) scale(0.1 -0.1)">
       <defs>
        <path id="ArialMT-30" d="M 266 2259 
Q 266 3072 433 3567 
Q 600 4063 929 4331 
Q 1259 4600 1759 4600 
Q 2128 4600 2406 4451 
Q 2684 4303 2865 4023 
Q 3047 3744 3150 3342 
Q 3253 2941 3253 2259 
Q 3253 1453 3087 958 
Q 2922 463 2592 192 
Q 2263 -78 1759 -78 
Q 1097 -78 719 397 
Q 266 969 266 2259 
z
M 844 2259 
Q 844 1131 1108 757 
Q 1372 384 1759 384 
Q 2147 384 2411 759 
Q 2675 1134 2675 2259 
Q 2675 3391 2411 3762 
Q 2147 4134 1753 4134 
Q 1366 4134 1134 3806 
Q 844 3388 844 2259 
z
" transform="scale(0.015625)"/>
       </defs>
       <use xlink:href="#ArialMT-30"/>
      </g>
     </g>
    </g>
    <g id="xtick_2">
     <g id="line2d_2">
      <path d="M 90.859667 212.2 
L 90.859667 49.25625 
" clip-path="url(#p3e01ac5791)" style="fill: none; stroke: #cccccc; stroke-width: 0.8; stroke-linecap: round"/>
     </g>
     <g id="text_2">
      <!-- 2 -->
      <g style="fill: #262626" transform="translate(88.079198 226.357813) scale(0.1 -0.1)">
       <defs>
        <path id="ArialMT-32" d="M 3222 541 
L 3222 0 
L 194 0 
Q 188 203 259 391 
Q 375 700 629 1000 
Q 884 1300 1366 1694 
Q 2113 2306 2375 2664 
Q 2638 3022 2638 3341 
Q 2638 3675 2398 3904 
Q 2159 4134 1775 4134 
Q 1369 4134 1125 3890 
Q 881 3647 878 3216 
L 300 3275 
Q 359 3922 746 4261 
Q 1134 4600 1788 4600 
Q 2447 4600 2831 4234 
Q 3216 3869 3216 3328 
Q 3216 3053 3103 2787 
Q 2991 2522 2730 2228 
Q 2469 1934 1863 1422 
Q 1356 997 1212 845 
Q 1069 694 975 541 
L 3222 541 
z
" transform="scale(0.015625)"/>
       </defs>
       <use xlink:href="#ArialMT-32"/>
      </g>
     </g>
    </g>
    <g id="xtick_3">
     <g id="line2d_3">
      <path d="M 134.394333 212.2 
L 134.394333 49.25625 
" clip-path="url(#p3e01ac5791)" style="fill: none; stroke: #cccccc; stroke-width: 0.8; stroke-linecap: round"/>
     </g>
     <g id="text_3">
      <!-- 4 -->
      <g style="fill: #262626" transform="translate(131.613865 226.357813) scale(0.1 -0.1)">
       <defs>
        <path id="ArialMT-34" d="M 2069 0 
L 2069 1097 
L 81 1097 
L 81 1613 
L 2172 4581 
L 2631 4581 
L 2631 1613 
L 3250 1613 
L 3250 1097 
L 2631 1097 
L 2631 0 
L 2069 0 
z
M 2069 1613 
L 2069 3678 
L 634 1613 
L 2069 1613 
z
" transform="scale(0.015625)"/>
       </defs>
       <use xlink:href="#ArialMT-34"/>
      </g>
     </g>
    </g>
    <g id="xtick_4">
     <g id="line2d_4">
      <path d="M 177.929 212.2 
L 177.929 49.25625 
" clip-path="url(#p3e01ac5791)" style="fill: none; stroke: #cccccc; stroke-width: 0.8; stroke-linecap: round"/>
     </g>
     <g id="text_4">
      <!-- 6 -->
      <g style="fill: #262626" transform="translate(175.148531 226.357813) scale(0.1 -0.1)">
       <defs>
        <path id="ArialMT-36" d="M 3184 3459 
L 2625 3416 
Q 2550 3747 2413 3897 
Q 2184 4138 1850 4138 
Q 1581 4138 1378 3988 
Q 1113 3794 959 3422 
Q 806 3050 800 2363 
Q 1003 2672 1297 2822 
Q 1591 2972 1913 2972 
Q 2475 2972 2870 2558 
Q 3266 2144 3266 1488 
Q 3266 1056 3080 686 
Q 2894 316 2569 119 
Q 2244 -78 1831 -78 
Q 1128 -78 684 439 
Q 241 956 241 2144 
Q 241 3472 731 4075 
Q 1159 4600 1884 4600 
Q 2425 4600 2770 4297 
Q 3116 3994 3184 3459 
z
M 888 1484 
Q 888 1194 1011 928 
Q 1134 663 1356 523 
Q 1578 384 1822 384 
Q 2178 384 2434 671 
Q 2691 959 2691 1453 
Q 2691 1928 2437 2201 
Q 2184 2475 1800 2475 
Q 1419 2475 1153 2201 
Q 888 1928 888 1484 
z
" transform="scale(0.015625)"/>
       </defs>
       <use xlink:href="#ArialMT-36"/>
      </g>
     </g>
    </g>
    <g id="xtick_5">
     <g id="line2d_5">
      <path d="M 221.463667 212.2 
L 221.463667 49.25625 
" clip-path="url(#p3e01ac5791)" style="fill: none; stroke: #cccccc; stroke-width: 0.8; stroke-linecap: round"/>
     </g>
     <g id="text_5">
      <!-- 8 -->
      <g style="fill: #262626" transform="translate(218.683198 226.357813) scale(0.1 -0.1)">
       <defs>
        <path id="ArialMT-38" d="M 1131 2484 
Q 781 2613 612 2850 
Q 444 3088 444 3419 
Q 444 3919 803 4259 
Q 1163 4600 1759 4600 
Q 2359 4600 2725 4251 
Q 3091 3903 3091 3403 
Q 3091 3084 2923 2848 
Q 2756 2613 2416 2484 
Q 2838 2347 3058 2040 
Q 3278 1734 3278 1309 
Q 3278 722 2862 322 
Q 2447 -78 1769 -78 
Q 1091 -78 675 323 
Q 259 725 259 1325 
Q 259 1772 486 2073 
Q 713 2375 1131 2484 
z
M 1019 3438 
Q 1019 3113 1228 2906 
Q 1438 2700 1772 2700 
Q 2097 2700 2305 2904 
Q 2513 3109 2513 3406 
Q 2513 3716 2298 3927 
Q 2084 4138 1766 4138 
Q 1444 4138 1231 3931 
Q 1019 3725 1019 3438 
z
M 838 1322 
Q 838 1081 952 856 
Q 1066 631 1291 507 
Q 1516 384 1775 384 
Q 2178 384 2440 643 
Q 2703 903 2703 1303 
Q 2703 1709 2433 1975 
Q 2163 2241 1756 2241 
Q 1359 2241 1098 1978 
Q 838 1716 838 1322 
z
" transform="scale(0.015625)"/>
       </defs>
       <use xlink:href="#ArialMT-38"/>
      </g>
     </g>
    </g>
    <g id="xtick_6">
     <g id="line2d_6">
      <path d="M 264.998333 212.2 
L 264.998333 49.25625 
" clip-path="url(#p3e01ac5791)" style="fill: none; stroke: #cccccc; stroke-width: 0.8; stroke-linecap: round"/>
     </g>
     <g id="text_6">
      <!-- 10 -->
      <g style="fill: #262626" transform="translate(259.437396 226.357813) scale(0.1 -0.1)">
       <defs>
        <path id="ArialMT-31" d="M 2384 0 
L 1822 0 
L 1822 3584 
Q 1619 3391 1289 3197 
Q 959 3003 697 2906 
L 697 3450 
Q 1169 3672 1522 3987 
Q 1875 4303 2022 4600 
L 2384 4600 
L 2384 0 
z
" transform="scale(0.015625)"/>
       </defs>
       <use xlink:href="#ArialMT-31"/>
       <use xlink:href="#ArialMT-30" transform="translate(55.615234 0)"/>
      </g>
     </g>
    </g>
    <g id="text_7">
     <!-- % Data Removed -->
     <g style="fill: #262626" transform="translate(116.978854 239.503125) scale(0.1 -0.1)">
      <defs>
       <path id="ArialMT-25" d="M 372 3481 
Q 372 3972 619 4315 
Q 866 4659 1334 4659 
Q 1766 4659 2048 4351 
Q 2331 4044 2331 3447 
Q 2331 2866 2045 2552 
Q 1759 2238 1341 2238 
Q 925 2238 648 2547 
Q 372 2856 372 3481 
z
M 1350 4272 
Q 1141 4272 1002 4090 
Q 863 3909 863 3425 
Q 863 2984 1003 2804 
Q 1144 2625 1350 2625 
Q 1563 2625 1702 2806 
Q 1841 2988 1841 3469 
Q 1841 3913 1700 4092 
Q 1559 4272 1350 4272 
z
M 1353 -169 
L 3859 4659 
L 4316 4659 
L 1819 -169 
L 1353 -169 
z
M 3334 1075 
Q 3334 1569 3581 1911 
Q 3828 2253 4300 2253 
Q 4731 2253 5014 1945 
Q 5297 1638 5297 1041 
Q 5297 459 5011 145 
Q 4725 -169 4303 -169 
Q 3888 -169 3611 142 
Q 3334 453 3334 1075 
z
M 4316 1866 
Q 4103 1866 3964 1684 
Q 3825 1503 3825 1019 
Q 3825 581 3965 400 
Q 4106 219 4313 219 
Q 4528 219 4667 400 
Q 4806 581 4806 1063 
Q 4806 1506 4665 1686 
Q 4525 1866 4316 1866 
z
" transform="scale(0.015625)"/>
       <path id="ArialMT-20" transform="scale(0.015625)"/>
       <path id="ArialMT-44" d="M 494 0 
L 494 4581 
L 2072 4581 
Q 2606 4581 2888 4516 
Q 3281 4425 3559 4188 
Q 3922 3881 4101 3404 
Q 4281 2928 4281 2316 
Q 4281 1794 4159 1391 
Q 4038 988 3847 723 
Q 3656 459 3429 307 
Q 3203 156 2883 78 
Q 2563 0 2147 0 
L 494 0 
z
M 1100 541 
L 2078 541 
Q 2531 541 2789 625 
Q 3047 709 3200 863 
Q 3416 1078 3536 1442 
Q 3656 1806 3656 2325 
Q 3656 3044 3420 3430 
Q 3184 3816 2847 3947 
Q 2603 4041 2063 4041 
L 1100 4041 
L 1100 541 
z
" transform="scale(0.015625)"/>
       <path id="ArialMT-61" d="M 2588 409 
Q 2275 144 1986 34 
Q 1697 -75 1366 -75 
Q 819 -75 525 192 
Q 231 459 231 875 
Q 231 1119 342 1320 
Q 453 1522 633 1644 
Q 813 1766 1038 1828 
Q 1203 1872 1538 1913 
Q 2219 1994 2541 2106 
Q 2544 2222 2544 2253 
Q 2544 2597 2384 2738 
Q 2169 2928 1744 2928 
Q 1347 2928 1158 2789 
Q 969 2650 878 2297 
L 328 2372 
Q 403 2725 575 2942 
Q 747 3159 1072 3276 
Q 1397 3394 1825 3394 
Q 2250 3394 2515 3294 
Q 2781 3194 2906 3042 
Q 3031 2891 3081 2659 
Q 3109 2516 3109 2141 
L 3109 1391 
Q 3109 606 3145 398 
Q 3181 191 3288 0 
L 2700 0 
Q 2613 175 2588 409 
z
M 2541 1666 
Q 2234 1541 1622 1453 
Q 1275 1403 1131 1340 
Q 988 1278 909 1158 
Q 831 1038 831 891 
Q 831 666 1001 516 
Q 1172 366 1500 366 
Q 1825 366 2078 508 
Q 2331 650 2450 897 
Q 2541 1088 2541 1459 
L 2541 1666 
z
" transform="scale(0.015625)"/>
       <path id="ArialMT-74" d="M 1650 503 
L 1731 6 
Q 1494 -44 1306 -44 
Q 1000 -44 831 53 
Q 663 150 594 308 
Q 525 466 525 972 
L 525 2881 
L 113 2881 
L 113 3319 
L 525 3319 
L 525 4141 
L 1084 4478 
L 1084 3319 
L 1650 3319 
L 1650 2881 
L 1084 2881 
L 1084 941 
Q 1084 700 1114 631 
Q 1144 563 1211 522 
Q 1278 481 1403 481 
Q 1497 481 1650 503 
z
" transform="scale(0.015625)"/>
       <path id="ArialMT-52" d="M 503 0 
L 503 4581 
L 2534 4581 
Q 3147 4581 3465 4457 
Q 3784 4334 3975 4021 
Q 4166 3709 4166 3331 
Q 4166 2844 3850 2509 
Q 3534 2175 2875 2084 
Q 3116 1969 3241 1856 
Q 3506 1613 3744 1247 
L 4541 0 
L 3778 0 
L 3172 953 
Q 2906 1366 2734 1584 
Q 2563 1803 2427 1890 
Q 2291 1978 2150 2013 
Q 2047 2034 1813 2034 
L 1109 2034 
L 1109 0 
L 503 0 
z
M 1109 2559 
L 2413 2559 
Q 2828 2559 3062 2645 
Q 3297 2731 3419 2920 
Q 3541 3109 3541 3331 
Q 3541 3656 3305 3865 
Q 3069 4075 2559 4075 
L 1109 4075 
L 1109 2559 
z
" transform="scale(0.015625)"/>
       <path id="ArialMT-65" d="M 2694 1069 
L 3275 997 
Q 3138 488 2766 206 
Q 2394 -75 1816 -75 
Q 1088 -75 661 373 
Q 234 822 234 1631 
Q 234 2469 665 2931 
Q 1097 3394 1784 3394 
Q 2450 3394 2872 2941 
Q 3294 2488 3294 1666 
Q 3294 1616 3291 1516 
L 816 1516 
Q 847 969 1125 678 
Q 1403 388 1819 388 
Q 2128 388 2347 550 
Q 2566 713 2694 1069 
z
M 847 1978 
L 2700 1978 
Q 2663 2397 2488 2606 
Q 2219 2931 1791 2931 
Q 1403 2931 1139 2672 
Q 875 2413 847 1978 
z
" transform="scale(0.015625)"/>
       <path id="ArialMT-6d" d="M 422 0 
L 422 3319 
L 925 3319 
L 925 2853 
Q 1081 3097 1340 3245 
Q 1600 3394 1931 3394 
Q 2300 3394 2536 3241 
Q 2772 3088 2869 2813 
Q 3263 3394 3894 3394 
Q 4388 3394 4653 3120 
Q 4919 2847 4919 2278 
L 4919 0 
L 4359 0 
L 4359 2091 
Q 4359 2428 4304 2576 
Q 4250 2725 4106 2815 
Q 3963 2906 3769 2906 
Q 3419 2906 3187 2673 
Q 2956 2441 2956 1928 
L 2956 0 
L 2394 0 
L 2394 2156 
Q 2394 2531 2256 2718 
Q 2119 2906 1806 2906 
Q 1569 2906 1367 2781 
Q 1166 2656 1075 2415 
Q 984 2175 984 1722 
L 984 0 
L 422 0 
z
" transform="scale(0.015625)"/>
       <path id="ArialMT-6f" d="M 213 1659 
Q 213 2581 725 3025 
Q 1153 3394 1769 3394 
Q 2453 3394 2887 2945 
Q 3322 2497 3322 1706 
Q 3322 1066 3130 698 
Q 2938 331 2570 128 
Q 2203 -75 1769 -75 
Q 1072 -75 642 372 
Q 213 819 213 1659 
z
M 791 1659 
Q 791 1022 1069 705 
Q 1347 388 1769 388 
Q 2188 388 2466 706 
Q 2744 1025 2744 1678 
Q 2744 2294 2464 2611 
Q 2184 2928 1769 2928 
Q 1347 2928 1069 2612 
Q 791 2297 791 1659 
z
" transform="scale(0.015625)"/>
       <path id="ArialMT-76" d="M 1344 0 
L 81 3319 
L 675 3319 
L 1388 1331 
Q 1503 1009 1600 663 
Q 1675 925 1809 1294 
L 2547 3319 
L 3125 3319 
L 1869 0 
L 1344 0 
z
" transform="scale(0.015625)"/>
       <path id="ArialMT-64" d="M 2575 0 
L 2575 419 
Q 2259 -75 1647 -75 
Q 1250 -75 917 144 
Q 584 363 401 755 
Q 219 1147 219 1656 
Q 219 2153 384 2558 
Q 550 2963 881 3178 
Q 1213 3394 1622 3394 
Q 1922 3394 2156 3267 
Q 2391 3141 2538 2938 
L 2538 4581 
L 3097 4581 
L 3097 0 
L 2575 0 
z
M 797 1656 
Q 797 1019 1065 703 
Q 1334 388 1700 388 
Q 2069 388 2326 689 
Q 2584 991 2584 1609 
Q 2584 2291 2321 2609 
Q 2059 2928 1675 2928 
Q 1300 2928 1048 2622 
Q 797 2316 797 1656 
z
" transform="scale(0.015625)"/>
      </defs>
      <use xlink:href="#ArialMT-25"/>
      <use xlink:href="#ArialMT-20" transform="translate(88.916016 0)"/>
      <use xlink:href="#ArialMT-44" transform="translate(116.699219 0)"/>
      <use xlink:href="#ArialMT-61" transform="translate(188.916016 0)"/>
      <use xlink:href="#ArialMT-74" transform="translate(244.53125 0)"/>
      <use xlink:href="#ArialMT-61" transform="translate(272.314453 0)"/>
      <use xlink:href="#ArialMT-20" transform="translate(327.929688 0)"/>
      <use xlink:href="#ArialMT-52" transform="translate(355.712891 0)"/>
      <use xlink:href="#ArialMT-65" transform="translate(427.929688 0)"/>
      <use xlink:href="#ArialMT-6d" transform="translate(483.544922 0)"/>
      <use xlink:href="#ArialMT-6f" transform="translate(566.845703 0)"/>
      <use xlink:href="#ArialMT-76" transform="translate(622.460938 0)"/>
      <use xlink:href="#ArialMT-65" transform="translate(672.460938 0)"/>
      <use xlink:href="#ArialMT-64" transform="translate(728.076172 0)"/>
     </g>
    </g>
   </g>
   <g id="matplotlib.axis_2">
    <g id="ytick_1">
     <g id="line2d_7">
      <path d="M 47.325 207.250591 
L 264.998333 207.250591 
" clip-path="url(#p3e01ac5791)" style="fill: none; stroke: #cccccc; stroke-width: 0.8; stroke-linecap: round"/>
     </g>
     <g id="text_8">
      <!-- −1.0 -->
      <g style="fill: #262626" transform="translate(20.584375 210.829497) scale(0.1 -0.1)">
       <defs>
        <path id="ArialMT-2212" d="M 3381 1997 
L 356 1997 
L 356 2522 
L 3381 2522 
L 3381 1997 
z
" transform="scale(0.015625)"/>
        <path id="ArialMT-2e" d="M 581 0 
L 581 641 
L 1222 641 
L 1222 0 
L 581 0 
z
" transform="scale(0.015625)"/>
       </defs>
       <use xlink:href="#ArialMT-2212"/>
       <use xlink:href="#ArialMT-31" transform="translate(58.398438 0)"/>
       <use xlink:href="#ArialMT-2e" transform="translate(114.013672 0)"/>
       <use xlink:href="#ArialMT-30" transform="translate(141.796875 0)"/>
      </g>
     </g>
    </g>
    <g id="ytick_2">
     <g id="line2d_8">
      <path d="M 47.325 186.336251 
L 264.998333 186.336251 
" clip-path="url(#p3e01ac5791)" style="fill: none; stroke: #cccccc; stroke-width: 0.8; stroke-linecap: round"/>
     </g>
     <g id="text_9">
      <!-- −0.8 -->
      <g style="fill: #262626" transform="translate(20.584375 189.915157) scale(0.1 -0.1)">
       <use xlink:href="#ArialMT-2212"/>
       <use xlink:href="#ArialMT-30" transform="translate(58.398438 0)"/>
       <use xlink:href="#ArialMT-2e" transform="translate(114.013672 0)"/>
       <use xlink:href="#ArialMT-38" transform="translate(141.796875 0)"/>
      </g>
     </g>
    </g>
    <g id="ytick_3">
     <g id="line2d_9">
      <path d="M 47.325 165.42191 
L 264.998333 165.42191 
" clip-path="url(#p3e01ac5791)" style="fill: none; stroke: #cccccc; stroke-width: 0.8; stroke-linecap: round"/>
     </g>
     <g id="text_10">
      <!-- −0.6 -->
      <g style="fill: #262626" transform="translate(20.584375 169.000817) scale(0.1 -0.1)">
       <use xlink:href="#ArialMT-2212"/>
       <use xlink:href="#ArialMT-30" transform="translate(58.398438 0)"/>
       <use xlink:href="#ArialMT-2e" transform="translate(114.013672 0)"/>
       <use xlink:href="#ArialMT-36" transform="translate(141.796875 0)"/>
      </g>
     </g>
    </g>
    <g id="ytick_4">
     <g id="line2d_10">
      <path d="M 47.325 144.50757 
L 264.998333 144.50757 
" clip-path="url(#p3e01ac5791)" style="fill: none; stroke: #cccccc; stroke-width: 0.8; stroke-linecap: round"/>
     </g>
     <g id="text_11">
      <!-- −0.4 -->
      <g style="fill: #262626" transform="translate(20.584375 148.086476) scale(0.1 -0.1)">
       <use xlink:href="#ArialMT-2212"/>
       <use xlink:href="#ArialMT-30" transform="translate(58.398438 0)"/>
       <use xlink:href="#ArialMT-2e" transform="translate(114.013672 0)"/>
       <use xlink:href="#ArialMT-34" transform="translate(141.796875 0)"/>
      </g>
     </g>
    </g>
    <g id="ytick_5">
     <g id="line2d_11">
      <path d="M 47.325 123.59323 
L 264.998333 123.59323 
" clip-path="url(#p3e01ac5791)" style="fill: none; stroke: #cccccc; stroke-width: 0.8; stroke-linecap: round"/>
     </g>
     <g id="text_12">
      <!-- −0.2 -->
      <g style="fill: #262626" transform="translate(20.584375 127.172136) scale(0.1 -0.1)">
       <use xlink:href="#ArialMT-2212"/>
       <use xlink:href="#ArialMT-30" transform="translate(58.398438 0)"/>
       <use xlink:href="#ArialMT-2e" transform="translate(114.013672 0)"/>
       <use xlink:href="#ArialMT-32" transform="translate(141.796875 0)"/>
      </g>
     </g>
    </g>
    <g id="ytick_6">
     <g id="line2d_12">
      <path d="M 47.325 102.678889 
L 264.998333 102.678889 
" clip-path="url(#p3e01ac5791)" style="fill: none; stroke: #cccccc; stroke-width: 0.8; stroke-linecap: round"/>
     </g>
     <g id="text_13">
      <!-- 0.0 -->
      <g style="fill: #262626" transform="translate(26.425 106.257796) scale(0.1 -0.1)">
       <use xlink:href="#ArialMT-30"/>
       <use xlink:href="#ArialMT-2e" transform="translate(55.615234 0)"/>
       <use xlink:href="#ArialMT-30" transform="translate(83.398438 0)"/>
      </g>
     </g>
    </g>
    <g id="ytick_7">
     <g id="line2d_13">
      <path d="M 47.325 81.764549 
L 264.998333 81.764549 
" clip-path="url(#p3e01ac5791)" style="fill: none; stroke: #cccccc; stroke-width: 0.8; stroke-linecap: round"/>
     </g>
     <g id="text_14">
      <!-- 0.2 -->
      <g style="fill: #262626" transform="translate(26.425 85.343455) scale(0.1 -0.1)">
       <use xlink:href="#ArialMT-30"/>
       <use xlink:href="#ArialMT-2e" transform="translate(55.615234 0)"/>
       <use xlink:href="#ArialMT-32" transform="translate(83.398438 0)"/>
      </g>
     </g>
    </g>
    <g id="ytick_8">
     <g id="line2d_14">
      <path d="M 47.325 60.850209 
L 264.998333 60.850209 
" clip-path="url(#p3e01ac5791)" style="fill: none; stroke: #cccccc; stroke-width: 0.8; stroke-linecap: round"/>
     </g>
     <g id="text_15">
      <!-- 0.4 -->
      <g style="fill: #262626" transform="translate(26.425 64.429115) scale(0.1 -0.1)">
       <use xlink:href="#ArialMT-30"/>
       <use xlink:href="#ArialMT-2e" transform="translate(55.615234 0)"/>
       <use xlink:href="#ArialMT-34" transform="translate(83.398438 0)"/>
      </g>
     </g>
    </g>
    <g id="text_16">
     <!-- Δ Accuracy in % -->
     <g style="fill: #262626" transform="translate(14.479687 166.583594) rotate(-90) scale(0.1 -0.1)">
      <defs>
       <path id="ArialMT-394" d="M -6 0 
L 1753 4581 
L 2406 4581 
L 4281 0 
L -6 0 
z
M 834 541 
L 3381 541 
L 2391 3150 
Q 2169 3738 2066 4100 
Q 1981 3675 1819 3225 
L 834 541 
z
" transform="scale(0.015625)"/>
       <path id="ArialMT-41" d="M -9 0 
L 1750 4581 
L 2403 4581 
L 4278 0 
L 3588 0 
L 3053 1388 
L 1138 1388 
L 634 0 
L -9 0 
z
M 1313 1881 
L 2866 1881 
L 2388 3150 
Q 2169 3728 2063 4100 
Q 1975 3659 1816 3225 
L 1313 1881 
z
" transform="scale(0.015625)"/>
       <path id="ArialMT-63" d="M 2588 1216 
L 3141 1144 
Q 3050 572 2676 248 
Q 2303 -75 1759 -75 
Q 1078 -75 664 370 
Q 250 816 250 1647 
Q 250 2184 428 2587 
Q 606 2991 970 3192 
Q 1334 3394 1763 3394 
Q 2303 3394 2647 3120 
Q 2991 2847 3088 2344 
L 2541 2259 
Q 2463 2594 2264 2762 
Q 2066 2931 1784 2931 
Q 1359 2931 1093 2626 
Q 828 2322 828 1663 
Q 828 994 1084 691 
Q 1341 388 1753 388 
Q 2084 388 2306 591 
Q 2528 794 2588 1216 
z
" transform="scale(0.015625)"/>
       <path id="ArialMT-75" d="M 2597 0 
L 2597 488 
Q 2209 -75 1544 -75 
Q 1250 -75 995 37 
Q 741 150 617 320 
Q 494 491 444 738 
Q 409 903 409 1263 
L 409 3319 
L 972 3319 
L 972 1478 
Q 972 1038 1006 884 
Q 1059 663 1231 536 
Q 1403 409 1656 409 
Q 1909 409 2131 539 
Q 2353 669 2445 892 
Q 2538 1116 2538 1541 
L 2538 3319 
L 3100 3319 
L 3100 0 
L 2597 0 
z
" transform="scale(0.015625)"/>
       <path id="ArialMT-72" d="M 416 0 
L 416 3319 
L 922 3319 
L 922 2816 
Q 1116 3169 1280 3281 
Q 1444 3394 1641 3394 
Q 1925 3394 2219 3213 
L 2025 2691 
Q 1819 2813 1613 2813 
Q 1428 2813 1281 2702 
Q 1134 2591 1072 2394 
Q 978 2094 978 1738 
L 978 0 
L 416 0 
z
" transform="scale(0.015625)"/>
       <path id="ArialMT-79" d="M 397 -1278 
L 334 -750 
Q 519 -800 656 -800 
Q 844 -800 956 -737 
Q 1069 -675 1141 -563 
Q 1194 -478 1313 -144 
Q 1328 -97 1363 -6 
L 103 3319 
L 709 3319 
L 1400 1397 
Q 1534 1031 1641 628 
Q 1738 1016 1872 1384 
L 2581 3319 
L 3144 3319 
L 1881 -56 
Q 1678 -603 1566 -809 
Q 1416 -1088 1222 -1217 
Q 1028 -1347 759 -1347 
Q 597 -1347 397 -1278 
z
" transform="scale(0.015625)"/>
       <path id="ArialMT-69" d="M 425 3934 
L 425 4581 
L 988 4581 
L 988 3934 
L 425 3934 
z
M 425 0 
L 425 3319 
L 988 3319 
L 988 0 
L 425 0 
z
" transform="scale(0.015625)"/>
       <path id="ArialMT-6e" d="M 422 0 
L 422 3319 
L 928 3319 
L 928 2847 
Q 1294 3394 1984 3394 
Q 2284 3394 2536 3286 
Q 2788 3178 2913 3003 
Q 3038 2828 3088 2588 
Q 3119 2431 3119 2041 
L 3119 0 
L 2556 0 
L 2556 2019 
Q 2556 2363 2490 2533 
Q 2425 2703 2258 2804 
Q 2091 2906 1866 2906 
Q 1506 2906 1245 2678 
Q 984 2450 984 1813 
L 984 0 
L 422 0 
z
" transform="scale(0.015625)"/>
      </defs>
      <use xlink:href="#ArialMT-394"/>
      <use xlink:href="#ArialMT-20" transform="translate(61.296875 0)"/>
      <use xlink:href="#ArialMT-41" transform="translate(83.580078 0)"/>
      <use xlink:href="#ArialMT-63" transform="translate(150.279297 0)"/>
      <use xlink:href="#ArialMT-63" transform="translate(200.279297 0)"/>
      <use xlink:href="#ArialMT-75" transform="translate(250.279297 0)"/>
      <use xlink:href="#ArialMT-72" transform="translate(305.894531 0)"/>
      <use xlink:href="#ArialMT-61" transform="translate(339.195312 0)"/>
      <use xlink:href="#ArialMT-63" transform="translate(394.810547 0)"/>
      <use xlink:href="#ArialMT-79" transform="translate(444.810547 0)"/>
      <use xlink:href="#ArialMT-20" transform="translate(494.810547 0)"/>
      <use xlink:href="#ArialMT-69" transform="translate(522.59375 0)"/>
      <use xlink:href="#ArialMT-6e" transform="translate(544.810547 0)"/>
      <use xlink:href="#ArialMT-20" transform="translate(600.425781 0)"/>
      <use xlink:href="#ArialMT-25" transform="translate(628.208984 0)"/>
     </g>
    </g>
   </g>
   <g id="FillBetweenPolyCollection_1">
    <defs>
     <path id="m7dee7f6b7f" d="M 47.325 -161.25572 
L 47.325 -130.767752 
L 58.208667 -145.198603 
L 69.092333 -130.474383 
L 79.976 -157.02416 
L 90.859667 -164.874134 
L 101.743333 -160.157447 
L 112.627 -159.121201 
L 123.510667 -157.615795 
L 134.394333 -169.838362 
L 145.278 -154.258057 
L 156.161667 -162.588266 
L 167.045333 -144.99055 
L 177.929 -147.907288 
L 188.812667 -147.755198 
L 199.696333 -120.113368 
L 210.58 -115.657377 
L 221.463667 -105.921424 
L 232.347333 -82.568213 
L 243.231 -74.872674 
L 254.114667 -69.736078 
L 264.998333 -46.234464 
L 264.998333 -66.556485 
L 264.998333 -66.556485 
L 254.114667 -89.608773 
L 243.231 -93.782958 
L 232.347333 -90.742809 
L 221.463667 -120.926585 
L 210.58 -133.303735 
L 199.696333 -143.977762 
L 188.812667 -164.053681 
L 177.929 -161.573896 
L 167.045333 -157.507549 
L 156.161667 -184.13604 
L 145.278 -173.844688 
L 134.394333 -182.705181 
L 123.510667 -175.142341 
L 112.627 -175.96463 
L 101.743333 -178.419926 
L 90.859667 -186.505562 
L 79.976 -192.027841 
L 69.092333 -161.549088 
L 58.208667 -165.446429 
L 47.325 -161.25572 
z
" style="stroke: #ffffff; stroke-opacity: 0.2"/>
    </defs>
    <g clip-path="url(#p3e01ac5791)">
     <use xlink:href="#m7dee7f6b7f" x="0" y="248.690625" style="fill: #1f77b4; fill-opacity: 0.2; stroke: #ffffff; stroke-opacity: 0.2"/>
    </g>
   </g>
   <g id="FillBetweenPolyCollection_2">
    <defs>
     <path id="m840513fdde" d="M 47.325 -161.25572 
L 47.325 -130.767752 
L 58.208667 -156.734161 
L 69.092333 -162.124873 
L 79.976 -156.730353 
L 90.859667 -160.338833 
L 101.743333 -141.185594 
L 112.627 -163.349577 
L 123.510667 -151.976575 
L 134.394333 -155.752871 
L 145.278 -154.893389 
L 156.161667 -152.994821 
L 167.045333 -131.144046 
L 177.929 -133.82209 
L 188.812667 -125.570513 
L 199.696333 -104.406157 
L 210.58 -102.186864 
L 221.463667 -66.482154 
L 232.347333 -83.926723 
L 243.231 -82.54119 
L 254.114667 -56.085428 
L 264.998333 -43.897159 
L 264.998333 -61.910705 
L 264.998333 -61.910705 
L 254.114667 -75.327082 
L 243.231 -100.080612 
L 232.347333 -106.842012 
L 221.463667 -87.04346 
L 210.58 -124.661145 
L 199.696333 -128.261089 
L 188.812667 -145.503703 
L 177.929 -157.037534 
L 167.045333 -149.24095 
L 156.161667 -173.944077 
L 145.278 -173.209356 
L 134.394333 -177.005264 
L 123.510667 -171.47078 
L 112.627 -181.047034 
L 101.743333 -158.98481 
L 90.859667 -177.074693 
L 79.976 -183.010868 
L 69.092333 -170.633263 
L 58.208667 -178.35167 
L 47.325 -161.25572 
z
" style="stroke: #ffffff; stroke-opacity: 0.2"/>
    </defs>
    <g clip-path="url(#p3e01ac5791)">
     <use xlink:href="#m840513fdde" x="0" y="248.690625" style="fill: #ff7f0e; fill-opacity: 0.2; stroke: #ffffff; stroke-opacity: 0.2"/>
    </g>
   </g>
   <g id="FillBetweenPolyCollection_3">
    <defs>
     <path id="m5535c9c39a" d="M 47.325 -161.25572 
L 47.325 -130.767752 
L 58.208667 -150.591348 
L 69.092333 -146.474568 
L 79.976 -166.08118 
L 90.859667 -160.963662 
L 101.743333 -152.403921 
L 112.627 -154.877638 
L 123.510667 -120.87498 
L 134.394333 -132.946662 
L 145.278 -132.948063 
L 156.161667 -105.784796 
L 167.045333 -123.966904 
L 177.929 -154.296553 
L 188.812667 -134.836093 
L 199.696333 -120.587215 
L 210.58 -142.095593 
L 221.463667 -128.676056 
L 232.347333 -117.561099 
L 243.231 -136.837926 
L 254.114667 -145.631109 
L 264.998333 -129.746012 
L 264.998333 -156.458222 
L 264.998333 -156.458222 
L 254.114667 -166.177771 
L 243.231 -158.677088 
L 232.347333 -150.021574 
L 221.463667 -147.053549 
L 210.58 -170.877134 
L 199.696333 -150.487 
L 188.812667 -154.859683 
L 177.929 -173.806193 
L 167.045333 -145.943464 
L 156.161667 -140.848621 
L 145.278 -163.730798 
L 134.394333 -153.257571 
L 123.510667 -149.035388 
L 112.627 -181.37204 
L 101.743333 -173.371129 
L 90.859667 -182.269102 
L 79.976 -186.462363 
L 69.092333 -166.498159 
L 58.208667 -170.528312 
L 47.325 -161.25572 
z
" style="stroke: #ffffff; stroke-opacity: 0.2"/>
    </defs>
    <g clip-path="url(#p3e01ac5791)">
     <use xlink:href="#m5535c9c39a" x="0" y="248.690625" style="fill: #2ca02c; fill-opacity: 0.2; stroke: #ffffff; stroke-opacity: 0.2"/>
    </g>
   </g>
   <g id="line2d_15">
    <path d="M 47.325 102.678889 
L 58.208667 93.368109 
L 69.092333 102.678889 
L 79.976 74.164625 
L 90.859667 73.000777 
L 101.743333 79.401939 
L 112.627 81.14771 
L 123.510667 82.311557 
L 134.394333 72.418853 
L 145.278 84.639252 
L 156.161667 75.328472 
L 167.045333 97.441575 
L 177.929 93.950033 
L 188.812667 92.786185 
L 199.696333 116.64506 
L 210.58 124.210069 
L 221.463667 135.266621 
L 232.347333 162.035114 
L 243.231 164.362809 
L 254.114667 169.018199 
L 264.998333 192.29515 
" clip-path="url(#p3e01ac5791)" style="fill: none; stroke: #1f77b4; stroke-width: 1.5; stroke-linecap: round"/>
   </g>
   <g id="line2d_16">
    <path d="M 47.325 102.678889 
L 58.208667 81.14771 
L 69.092333 82.311557 
L 79.976 78.820015 
L 90.859667 79.983862 
L 101.743333 98.605423 
L 112.627 76.49232 
L 123.510667 86.966948 
L 134.394333 82.311557 
L 145.278 84.639252 
L 156.161667 85.221176 
L 167.045333 108.498127 
L 177.929 103.260813 
L 188.812667 113.153517 
L 199.696333 132.357002 
L 210.58 135.266621 
L 221.463667 171.927818 
L 232.347333 153.306257 
L 243.231 157.379724 
L 254.114667 182.98437 
L 264.998333 195.786693 
" clip-path="url(#p3e01ac5791)" style="fill: none; stroke: #ff7f0e; stroke-width: 1.5; stroke-linecap: round"/>
   </g>
   <g id="line2d_17">
    <path d="M 47.325 102.678889 
L 58.208667 88.130795 
L 69.092333 92.204261 
L 79.976 72.418853 
L 90.859667 77.074243 
L 101.743333 85.8031 
L 112.627 80.565786 
L 123.510667 113.735441 
L 134.394333 105.588508 
L 145.278 100.351194 
L 156.161667 125.373916 
L 167.045333 113.735441 
L 177.929 84.639252 
L 188.812667 103.842737 
L 199.696333 113.153517 
L 210.58 92.204261 
L 221.463667 110.825822 
L 232.347333 114.899289 
L 243.231 100.933118 
L 254.114667 92.786185 
L 264.998333 105.588508 
" clip-path="url(#p3e01ac5791)" style="fill: none; stroke: #2ca02c; stroke-width: 1.5; stroke-linecap: round"/>
   </g>
   <g id="line2d_18">
    <path d="M 47.325 102.678889 
L 264.998333 102.678889 
" clip-path="url(#p3e01ac5791)" style="fill: none; stroke: #808080; stroke-opacity: 0.5; stroke-width: 1.5; stroke-linecap: round"/>
   </g>
   <g id="line2d_19">
    <path d="M 156.161667 212.2 
L 156.161667 49.25625 
" clip-path="url(#p3e01ac5791)" style="fill: none; stroke-dasharray: 5.55,2.4; stroke-dashoffset: 0; stroke: #000000; stroke-opacity: 0.5; stroke-width: 1.5"/>
   </g>
   <g id="patch_3">
    <path d="M 47.325 212.2 
L 47.325 49.25625 
" style="fill: none; stroke: #cccccc; stroke-width: 0.8; stroke-linejoin: miter; stroke-linecap: square"/>
   </g>
   <g id="patch_4">
    <path d="M 264.998333 212.2 
L 264.998333 49.25625 
" style="fill: none; stroke: #cccccc; stroke-width: 0.8; stroke-linejoin: miter; stroke-linecap: square"/>
   </g>
   <g id="patch_5">
    <path d="M 47.325 212.2 
L 264.998333 212.2 
" style="fill: none; stroke: #cccccc; stroke-width: 0.8; stroke-linejoin: miter; stroke-linecap: square"/>
   </g>
   <g id="patch_6">
    <path d="M 47.325 49.25625 
L 264.998333 49.25625 
" style="fill: none; stroke: #cccccc; stroke-width: 0.8; stroke-linejoin: miter; stroke-linecap: square"/>
   </g>
   <g id="text_17">
    <!-- Digits -->
    <g style="fill: #262626" transform="translate(141.158854 43.25625) scale(0.12 -0.12)">
     <defs>
      <path id="ArialMT-67" d="M 319 -275 
L 866 -356 
Q 900 -609 1056 -725 
Q 1266 -881 1628 -881 
Q 2019 -881 2231 -725 
Q 2444 -569 2519 -288 
Q 2563 -116 2559 434 
Q 2191 0 1641 0 
Q 956 0 581 494 
Q 206 988 206 1678 
Q 206 2153 378 2554 
Q 550 2956 876 3175 
Q 1203 3394 1644 3394 
Q 2231 3394 2613 2919 
L 2613 3319 
L 3131 3319 
L 3131 450 
Q 3131 -325 2973 -648 
Q 2816 -972 2473 -1159 
Q 2131 -1347 1631 -1347 
Q 1038 -1347 672 -1080 
Q 306 -813 319 -275 
z
M 784 1719 
Q 784 1066 1043 766 
Q 1303 466 1694 466 
Q 2081 466 2343 764 
Q 2606 1063 2606 1700 
Q 2606 2309 2336 2618 
Q 2066 2928 1684 2928 
Q 1309 2928 1046 2623 
Q 784 2319 784 1719 
z
" transform="scale(0.015625)"/>
      <path id="ArialMT-73" d="M 197 991 
L 753 1078 
Q 800 744 1014 566 
Q 1228 388 1613 388 
Q 2000 388 2187 545 
Q 2375 703 2375 916 
Q 2375 1106 2209 1216 
Q 2094 1291 1634 1406 
Q 1016 1563 777 1677 
Q 538 1791 414 1992 
Q 291 2194 291 2438 
Q 291 2659 392 2848 
Q 494 3038 669 3163 
Q 800 3259 1026 3326 
Q 1253 3394 1513 3394 
Q 1903 3394 2198 3281 
Q 2494 3169 2634 2976 
Q 2775 2784 2828 2463 
L 2278 2388 
Q 2241 2644 2061 2787 
Q 1881 2931 1553 2931 
Q 1166 2931 1000 2803 
Q 834 2675 834 2503 
Q 834 2394 903 2306 
Q 972 2216 1119 2156 
Q 1203 2125 1616 2013 
Q 2213 1853 2448 1751 
Q 2684 1650 2818 1456 
Q 2953 1263 2953 975 
Q 2953 694 2789 445 
Q 2625 197 2315 61 
Q 2006 -75 1616 -75 
Q 969 -75 630 194 
Q 291 463 197 991 
z
" transform="scale(0.015625)"/>
     </defs>
     <use xlink:href="#ArialMT-44"/>
     <use xlink:href="#ArialMT-69" transform="translate(72.216797 0)"/>
     <use xlink:href="#ArialMT-67" transform="translate(94.433594 0)"/>
     <use xlink:href="#ArialMT-69" transform="translate(150.048828 0)"/>
     <use xlink:href="#ArialMT-74" transform="translate(172.265625 0)"/>
     <use xlink:href="#ArialMT-73" transform="translate(200.048828 0)"/>
    </g>
   </g>
   <g id="legend_1">
    <g id="patch_7">
     <path d="M 52.925 208.2 
L 135.44375 208.2 
Q 137.04375 208.2 137.04375 206.6 
L 137.04375 173.45125 
Q 137.04375 171.85125 135.44375 171.85125 
L 52.925 171.85125 
Q 51.325 171.85125 51.325 173.45125 
L 51.325 206.6 
Q 51.325 208.2 52.925 208.2 
z
" style="fill: #ffffff; opacity: 0.8; stroke: #cccccc; stroke-linejoin: miter"/>
    </g>
    <g id="line2d_20">
     <path d="M 54.525 177.9775 
L 62.525 177.9775 
L 70.525 177.9775 
" style="fill: none; stroke: #1f77b4; stroke-width: 1.5; stroke-linecap: round"/>
    </g>
    <g id="text_18">
     <!-- AUM -->
     <g style="fill: #262626" transform="translate(76.925 180.7775) scale(0.08 -0.08)">
      <defs>
       <path id="ArialMT-55" d="M 3500 4581 
L 4106 4581 
L 4106 1934 
Q 4106 1244 3950 837 
Q 3794 431 3386 176 
Q 2978 -78 2316 -78 
Q 1672 -78 1262 144 
Q 853 366 678 786 
Q 503 1206 503 1934 
L 503 4581 
L 1109 4581 
L 1109 1938 
Q 1109 1341 1220 1058 
Q 1331 775 1601 622 
Q 1872 469 2263 469 
Q 2931 469 3215 772 
Q 3500 1075 3500 1938 
L 3500 4581 
z
" transform="scale(0.015625)"/>
       <path id="ArialMT-4d" d="M 475 0 
L 475 4581 
L 1388 4581 
L 2472 1338 
Q 2622 884 2691 659 
Q 2769 909 2934 1394 
L 4031 4581 
L 4847 4581 
L 4847 0 
L 4263 0 
L 4263 3834 
L 2931 0 
L 2384 0 
L 1059 3900 
L 1059 0 
L 475 0 
z
" transform="scale(0.015625)"/>
      </defs>
      <use xlink:href="#ArialMT-41"/>
      <use xlink:href="#ArialMT-55" transform="translate(66.699219 0)"/>
      <use xlink:href="#ArialMT-4d" transform="translate(138.916016 0)"/>
     </g>
    </g>
    <g id="line2d_21">
     <path d="M 54.525 189.29375 
L 62.525 189.29375 
L 70.525 189.29375 
" style="fill: none; stroke: #ff7f0e; stroke-width: 1.5; stroke-linecap: round"/>
    </g>
    <g id="text_19">
     <!-- Self-Confidence -->
     <g style="fill: #262626" transform="translate(76.925 192.09375) scale(0.08 -0.08)">
      <defs>
       <path id="ArialMT-53" d="M 288 1472 
L 859 1522 
Q 900 1178 1048 958 
Q 1197 738 1509 602 
Q 1822 466 2213 466 
Q 2559 466 2825 569 
Q 3091 672 3220 851 
Q 3350 1031 3350 1244 
Q 3350 1459 3225 1620 
Q 3100 1781 2813 1891 
Q 2628 1963 1997 2114 
Q 1366 2266 1113 2400 
Q 784 2572 623 2826 
Q 463 3081 463 3397 
Q 463 3744 659 4045 
Q 856 4347 1234 4503 
Q 1613 4659 2075 4659 
Q 2584 4659 2973 4495 
Q 3363 4331 3572 4012 
Q 3781 3694 3797 3291 
L 3216 3247 
Q 3169 3681 2898 3903 
Q 2628 4125 2100 4125 
Q 1550 4125 1298 3923 
Q 1047 3722 1047 3438 
Q 1047 3191 1225 3031 
Q 1400 2872 2139 2705 
Q 2878 2538 3153 2413 
Q 3553 2228 3743 1945 
Q 3934 1663 3934 1294 
Q 3934 928 3725 604 
Q 3516 281 3123 101 
Q 2731 -78 2241 -78 
Q 1619 -78 1198 103 
Q 778 284 539 648 
Q 300 1013 288 1472 
z
" transform="scale(0.015625)"/>
       <path id="ArialMT-6c" d="M 409 0 
L 409 4581 
L 972 4581 
L 972 0 
L 409 0 
z
" transform="scale(0.015625)"/>
       <path id="ArialMT-66" d="M 556 0 
L 556 2881 
L 59 2881 
L 59 3319 
L 556 3319 
L 556 3672 
Q 556 4006 616 4169 
Q 697 4388 901 4523 
Q 1106 4659 1475 4659 
Q 1713 4659 2000 4603 
L 1916 4113 
Q 1741 4144 1584 4144 
Q 1328 4144 1222 4034 
Q 1116 3925 1116 3625 
L 1116 3319 
L 1763 3319 
L 1763 2881 
L 1116 2881 
L 1116 0 
L 556 0 
z
" transform="scale(0.015625)"/>
       <path id="ArialMT-2d" d="M 203 1375 
L 203 1941 
L 1931 1941 
L 1931 1375 
L 203 1375 
z
" transform="scale(0.015625)"/>
       <path id="ArialMT-43" d="M 3763 1606 
L 4369 1453 
Q 4178 706 3683 314 
Q 3188 -78 2472 -78 
Q 1731 -78 1267 223 
Q 803 525 561 1097 
Q 319 1669 319 2325 
Q 319 3041 592 3573 
Q 866 4106 1370 4382 
Q 1875 4659 2481 4659 
Q 3169 4659 3637 4309 
Q 4106 3959 4291 3325 
L 3694 3184 
Q 3534 3684 3231 3912 
Q 2928 4141 2469 4141 
Q 1941 4141 1586 3887 
Q 1231 3634 1087 3207 
Q 944 2781 944 2328 
Q 944 1744 1114 1308 
Q 1284 872 1643 656 
Q 2003 441 2422 441 
Q 2931 441 3284 734 
Q 3638 1028 3763 1606 
z
" transform="scale(0.015625)"/>
      </defs>
      <use xlink:href="#ArialMT-53"/>
      <use xlink:href="#ArialMT-65" transform="translate(66.699219 0)"/>
      <use xlink:href="#ArialMT-6c" transform="translate(122.314453 0)"/>
      <use xlink:href="#ArialMT-66" transform="translate(144.53125 0)"/>
      <use xlink:href="#ArialMT-2d" transform="translate(172.314453 0)"/>
      <use xlink:href="#ArialMT-43" transform="translate(205.615234 0)"/>
      <use xlink:href="#ArialMT-6f" transform="translate(277.832031 0)"/>
      <use xlink:href="#ArialMT-6e" transform="translate(333.447266 0)"/>
      <use xlink:href="#ArialMT-66" transform="translate(389.0625 0)"/>
      <use xlink:href="#ArialMT-69" transform="translate(416.845703 0)"/>
      <use xlink:href="#ArialMT-64" transform="translate(439.0625 0)"/>
      <use xlink:href="#ArialMT-65" transform="translate(494.677734 0)"/>
      <use xlink:href="#ArialMT-6e" transform="translate(550.292969 0)"/>
      <use xlink:href="#ArialMT-63" transform="translate(605.908203 0)"/>
      <use xlink:href="#ArialMT-65" transform="translate(655.908203 0)"/>
     </g>
    </g>
    <g id="line2d_22">
     <path d="M 54.525 200.61 
L 62.525 200.61 
L 70.525 200.61 
" style="fill: none; stroke: #2ca02c; stroke-width: 1.5; stroke-linecap: round"/>
    </g>
    <g id="text_20">
     <!-- Random -->
     <g style="fill: #262626" transform="translate(76.925 203.41) scale(0.08 -0.08)">
      <use xlink:href="#ArialMT-52"/>
      <use xlink:href="#ArialMT-61" transform="translate(72.216797 0)"/>
      <use xlink:href="#ArialMT-6e" transform="translate(127.832031 0)"/>
      <use xlink:href="#ArialMT-64" transform="translate(183.447266 0)"/>
      <use xlink:href="#ArialMT-6f" transform="translate(239.0625 0)"/>
      <use xlink:href="#ArialMT-6d" transform="translate(294.677734 0)"/>
     </g>
    </g>
   </g>
  </g>
  <g id="axes_2">
   <g id="patch_8">
    <path d="M 336.458333 212.2 
L 554.131667 212.2 
L 554.131667 49.25625 
L 336.458333 49.25625 
z
" style="fill: #ffffff"/>
   </g>
   <g id="matplotlib.axis_3">
    <g id="xtick_7">
     <g id="line2d_23">
      <path d="M 336.458333 212.2 
L 336.458333 49.25625 
" clip-path="url(#p01c5ae6cee)" style="fill: none; stroke: #cccccc; stroke-width: 0.8; stroke-linecap: round"/>
     </g>
     <g id="text_21">
      <!-- 0 -->
      <g style="fill: #262626" transform="translate(333.677865 226.357813) scale(0.1 -0.1)">
       <use xlink:href="#ArialMT-30"/>
      </g>
     </g>
    </g>
    <g id="xtick_8">
     <g id="line2d_24">
      <path d="M 379.993 212.2 
L 379.993 49.25625 
" clip-path="url(#p01c5ae6cee)" style="fill: none; stroke: #cccccc; stroke-width: 0.8; stroke-linecap: round"/>
     </g>
     <g id="text_22">
      <!-- 2 -->
      <g style="fill: #262626" transform="translate(377.212531 226.357813) scale(0.1 -0.1)">
       <use xlink:href="#ArialMT-32"/>
      </g>
     </g>
    </g>
    <g id="xtick_9">
     <g id="line2d_25">
      <path d="M 423.527667 212.2 
L 423.527667 49.25625 
" clip-path="url(#p01c5ae6cee)" style="fill: none; stroke: #cccccc; stroke-width: 0.8; stroke-linecap: round"/>
     </g>
     <g id="text_23">
      <!-- 4 -->
      <g style="fill: #262626" transform="translate(420.747198 226.357813) scale(0.1 -0.1)">
       <use xlink:href="#ArialMT-34"/>
      </g>
     </g>
    </g>
    <g id="xtick_10">
     <g id="line2d_26">
      <path d="M 467.062333 212.2 
L 467.062333 49.25625 
" clip-path="url(#p01c5ae6cee)" style="fill: none; stroke: #cccccc; stroke-width: 0.8; stroke-linecap: round"/>
     </g>
     <g id="text_24">
      <!-- 6 -->
      <g style="fill: #262626" transform="translate(464.281865 226.357813) scale(0.1 -0.1)">
       <use xlink:href="#ArialMT-36"/>
      </g>
     </g>
    </g>
    <g id="xtick_11">
     <g id="line2d_27">
      <path d="M 510.597 212.2 
L 510.597 49.25625 
" clip-path="url(#p01c5ae6cee)" style="fill: none; stroke: #cccccc; stroke-width: 0.8; stroke-linecap: round"/>
     </g>
     <g id="text_25">
      <!-- 8 -->
      <g style="fill: #262626" transform="translate(507.816531 226.357813) scale(0.1 -0.1)">
       <use xlink:href="#ArialMT-38"/>
      </g>
     </g>
    </g>
    <g id="xtick_12">
     <g id="line2d_28">
      <path d="M 554.131667 212.2 
L 554.131667 49.25625 
" clip-path="url(#p01c5ae6cee)" style="fill: none; stroke: #cccccc; stroke-width: 0.8; stroke-linecap: round"/>
     </g>
     <g id="text_26">
      <!-- 10 -->
      <g style="fill: #262626" transform="translate(548.570729 226.357813) scale(0.1 -0.1)">
       <use xlink:href="#ArialMT-31"/>
       <use xlink:href="#ArialMT-30" transform="translate(55.615234 0)"/>
      </g>
     </g>
    </g>
    <g id="text_27">
     <!-- % Data Removed -->
     <g style="fill: #262626" transform="translate(406.112188 239.503125) scale(0.1 -0.1)">
      <use xlink:href="#ArialMT-25"/>
      <use xlink:href="#ArialMT-20" transform="translate(88.916016 0)"/>
      <use xlink:href="#ArialMT-44" transform="translate(116.699219 0)"/>
      <use xlink:href="#ArialMT-61" transform="translate(188.916016 0)"/>
      <use xlink:href="#ArialMT-74" transform="translate(244.53125 0)"/>
      <use xlink:href="#ArialMT-61" transform="translate(272.314453 0)"/>
      <use xlink:href="#ArialMT-20" transform="translate(327.929688 0)"/>
      <use xlink:href="#ArialMT-52" transform="translate(355.712891 0)"/>
      <use xlink:href="#ArialMT-65" transform="translate(427.929688 0)"/>
      <use xlink:href="#ArialMT-6d" transform="translate(483.544922 0)"/>
      <use xlink:href="#ArialMT-6f" transform="translate(566.845703 0)"/>
      <use xlink:href="#ArialMT-76" transform="translate(622.460938 0)"/>
      <use xlink:href="#ArialMT-65" transform="translate(672.460938 0)"/>
      <use xlink:href="#ArialMT-64" transform="translate(728.076172 0)"/>
     </g>
    </g>
   </g>
   <g id="matplotlib.axis_4">
    <g id="ytick_9">
     <g id="line2d_29">
      <path d="M 336.458333 200.543291 
L 554.131667 200.543291 
" clip-path="url(#p01c5ae6cee)" style="fill: none; stroke: #cccccc; stroke-width: 0.8; stroke-linecap: round"/>
     </g>
     <g id="text_28">
      <!-- −1.0 -->
      <g style="fill: #262626" transform="translate(309.717708 204.122198) scale(0.1 -0.1)">
       <use xlink:href="#ArialMT-2212"/>
       <use xlink:href="#ArialMT-31" transform="translate(58.398438 0)"/>
       <use xlink:href="#ArialMT-2e" transform="translate(114.013672 0)"/>
       <use xlink:href="#ArialMT-30" transform="translate(141.796875 0)"/>
      </g>
     </g>
    </g>
    <g id="ytick_10">
     <g id="line2d_30">
      <path d="M 336.458333 169.26492 
L 554.131667 169.26492 
" clip-path="url(#p01c5ae6cee)" style="fill: none; stroke: #cccccc; stroke-width: 0.8; stroke-linecap: round"/>
     </g>
     <g id="text_29">
      <!-- −0.5 -->
      <g style="fill: #262626" transform="translate(309.717708 172.843826) scale(0.1 -0.1)">
       <defs>
        <path id="ArialMT-35" d="M 266 1200 
L 856 1250 
Q 922 819 1161 601 
Q 1400 384 1738 384 
Q 2144 384 2425 690 
Q 2706 997 2706 1503 
Q 2706 1984 2436 2262 
Q 2166 2541 1728 2541 
Q 1456 2541 1237 2417 
Q 1019 2294 894 2097 
L 366 2166 
L 809 4519 
L 3088 4519 
L 3088 3981 
L 1259 3981 
L 1013 2750 
Q 1425 3038 1878 3038 
Q 2478 3038 2890 2622 
Q 3303 2206 3303 1553 
Q 3303 931 2941 478 
Q 2500 -78 1738 -78 
Q 1113 -78 717 272 
Q 322 622 266 1200 
z
" transform="scale(0.015625)"/>
       </defs>
       <use xlink:href="#ArialMT-2212"/>
       <use xlink:href="#ArialMT-30" transform="translate(58.398438 0)"/>
       <use xlink:href="#ArialMT-2e" transform="translate(114.013672 0)"/>
       <use xlink:href="#ArialMT-35" transform="translate(141.796875 0)"/>
      </g>
     </g>
    </g>
    <g id="ytick_11">
     <g id="line2d_31">
      <path d="M 336.458333 137.986549 
L 554.131667 137.986549 
" clip-path="url(#p01c5ae6cee)" style="fill: none; stroke: #cccccc; stroke-width: 0.8; stroke-linecap: round"/>
     </g>
     <g id="text_30">
      <!-- 0.0 -->
      <g style="fill: #262626" transform="translate(315.558333 141.565455) scale(0.1 -0.1)">
       <use xlink:href="#ArialMT-30"/>
       <use xlink:href="#ArialMT-2e" transform="translate(55.615234 0)"/>
       <use xlink:href="#ArialMT-30" transform="translate(83.398438 0)"/>
      </g>
     </g>
    </g>
    <g id="ytick_12">
     <g id="line2d_32">
      <path d="M 336.458333 106.708178 
L 554.131667 106.708178 
" clip-path="url(#p01c5ae6cee)" style="fill: none; stroke: #cccccc; stroke-width: 0.8; stroke-linecap: round"/>
     </g>
     <g id="text_31">
      <!-- 0.5 -->
      <g style="fill: #262626" transform="translate(315.558333 110.287084) scale(0.1 -0.1)">
       <use xlink:href="#ArialMT-30"/>
       <use xlink:href="#ArialMT-2e" transform="translate(55.615234 0)"/>
       <use xlink:href="#ArialMT-35" transform="translate(83.398438 0)"/>
      </g>
     </g>
    </g>
    <g id="ytick_13">
     <g id="line2d_33">
      <path d="M 336.458333 75.429807 
L 554.131667 75.429807 
" clip-path="url(#p01c5ae6cee)" style="fill: none; stroke: #cccccc; stroke-width: 0.8; stroke-linecap: round"/>
     </g>
     <g id="text_32">
      <!-- 1.0 -->
      <g style="fill: #262626" transform="translate(315.558333 79.008713) scale(0.1 -0.1)">
       <use xlink:href="#ArialMT-31"/>
       <use xlink:href="#ArialMT-2e" transform="translate(55.615234 0)"/>
       <use xlink:href="#ArialMT-30" transform="translate(83.398438 0)"/>
      </g>
     </g>
    </g>
    <g id="text_33">
     <!-- Δ Accuracy in % -->
     <g style="fill: #262626" transform="translate(303.613021 166.583594) rotate(-90) scale(0.1 -0.1)">
      <use xlink:href="#ArialMT-394"/>
      <use xlink:href="#ArialMT-20" transform="translate(61.296875 0)"/>
      <use xlink:href="#ArialMT-41" transform="translate(83.580078 0)"/>
      <use xlink:href="#ArialMT-63" transform="translate(150.279297 0)"/>
      <use xlink:href="#ArialMT-63" transform="translate(200.279297 0)"/>
      <use xlink:href="#ArialMT-75" transform="translate(250.279297 0)"/>
      <use xlink:href="#ArialMT-72" transform="translate(305.894531 0)"/>
      <use xlink:href="#ArialMT-61" transform="translate(339.195312 0)"/>
      <use xlink:href="#ArialMT-63" transform="translate(394.810547 0)"/>
      <use xlink:href="#ArialMT-79" transform="translate(444.810547 0)"/>
      <use xlink:href="#ArialMT-20" transform="translate(494.810547 0)"/>
      <use xlink:href="#ArialMT-69" transform="translate(522.59375 0)"/>
      <use xlink:href="#ArialMT-6e" transform="translate(544.810547 0)"/>
      <use xlink:href="#ArialMT-20" transform="translate(600.425781 0)"/>
      <use xlink:href="#ArialMT-25" transform="translate(628.208984 0)"/>
     </g>
    </g>
   </g>
   <g id="FillBetweenPolyCollection_4">
    <defs>
     <path id="m49a62088cf" d="M 336.458333 -118.999672 
L 336.458333 -102.40848 
L 347.342 -114.498784 
L 358.225667 -111.539711 
L 369.109333 -119.20437 
L 379.993 -117.634478 
L 390.876667 -130.330976 
L 401.760333 -144.296573 
L 412.644 -154.193559 
L 423.527667 -171.731653 
L 434.411333 -171.432268 
L 445.295 -170.341504 
L 456.178667 -157.653372 
L 467.062333 -163.59497 
L 477.946 -143.655506 
L 488.829667 -121.952337 
L 499.713333 -112.990176 
L 510.597 -101.260619 
L 521.480667 -93.899629 
L 532.364333 -90.511222 
L 543.248 -56.801757 
L 554.131667 -43.897159 
L 554.131667 -69.913396 
L 554.131667 -69.913396 
L 543.248 -84.533765 
L 532.364333 -110.044682 
L 521.480667 -117.499444 
L 510.597 -123.483893 
L 499.713333 -135.108853 
L 488.829667 -147.833029 
L 477.946 -159.493456 
L 467.062333 -180.424397 
L 456.178667 -179.693276 
L 445.295 -184.521032 
L 434.411333 -185.932537 
L 423.527667 -184.799062 
L 412.644 -168.139471 
L 401.760333 -159.686479 
L 390.876667 -145.293019 
L 379.993 -133.80091 
L 369.109333 -130.562838 
L 358.225667 -124.04797 
L 347.342 -129.429795 
L 336.458333 -118.999672 
z
" style="stroke: #ffffff; stroke-opacity: 0.2"/>
    </defs>
    <g clip-path="url(#p01c5ae6cee)">
     <use xlink:href="#m49a62088cf" x="0" y="248.690625" style="fill: #1f77b4; fill-opacity: 0.2; stroke: #ffffff; stroke-opacity: 0.2"/>
    </g>
   </g>
   <g id="FillBetweenPolyCollection_5">
    <defs>
     <path id="m1361a22e72" d="M 336.458333 -118.999672 
L 336.458333 -102.40848 
L 347.342 -109.070731 
L 358.225667 -113.189812 
L 369.109333 -119.538757 
L 379.993 -131.417308 
L 390.876667 -132.995642 
L 401.760333 -132.702741 
L 412.644 -146.330043 
L 423.527667 -170.280021 
L 434.411333 -177.124106 
L 445.295 -175.684803 
L 456.178667 -177.054893 
L 467.062333 -165.469776 
L 477.946 -178.682403 
L 488.829667 -165.011945 
L 499.713333 -158.008498 
L 510.597 -156.165838 
L 521.480667 -147.398767 
L 532.364333 -150.624196 
L 543.248 -147.96107 
L 554.131667 -140.163848 
L 554.131667 -158.814665 
L 554.131667 -158.814665 
L 543.248 -167.69924 
L 532.364333 -167.538384 
L 521.480667 -165.759273 
L 510.597 -176.176271 
L 499.713333 -175.1677 
L 488.829667 -181.509691 
L 477.946 -192.027841 
L 467.062333 -181.051861 
L 456.178667 -190.318991 
L 445.295 -188.352722 
L 434.411333 -191.083868 
L 423.527667 -182.914334 
L 412.644 -160.989369 
L 401.760333 -151.262153 
L 390.876667 -145.130623 
L 379.993 -145.874867 
L 369.109333 -133.564811 
L 358.225667 -130.738767 
L 347.342 -124.01468 
L 336.458333 -118.999672 
z
" style="stroke: #ffffff; stroke-opacity: 0.2"/>
    </defs>
    <g clip-path="url(#p01c5ae6cee)">
     <use xlink:href="#m1361a22e72" x="0" y="248.690625" style="fill: #ff7f0e; fill-opacity: 0.2; stroke: #ffffff; stroke-opacity: 0.2"/>
    </g>
   </g>
   <g id="FillBetweenPolyCollection_6">
    <defs>
     <path id="m7060071ebe" d="M 336.458333 -118.999672 
L 336.458333 -102.40848 
L 347.342 -111.565736 
L 358.225667 -105.465213 
L 369.109333 -100.763629 
L 379.993 -110.200008 
L 390.876667 -105.651498 
L 401.760333 -102.603542 
L 412.644 -106.464559 
L 423.527667 -112.789301 
L 434.411333 -104.518275 
L 445.295 -92.557503 
L 456.178667 -90.390236 
L 467.062333 -99.362555 
L 477.946 -89.152043 
L 488.829667 -100.959138 
L 499.713333 -88.08128 
L 510.597 -99.443862 
L 521.480667 -88.167115 
L 532.364333 -85.001213 
L 543.248 -93.948275 
L 554.131667 -85.982115 
L 554.131667 -98.726082 
L 554.131667 -98.726082 
L 543.248 -105.77354 
L 532.364333 -100.541074 
L 521.480667 -105.71607 
L 510.597 -111.955211 
L 499.713333 -109.138265 
L 488.829667 -116.278564 
L 477.946 -105.565233 
L 467.062333 -113.704698 
L 456.178667 -106.829309 
L 445.295 -110.500671 
L 434.411333 -117.723967 
L 423.527667 -128.637009 
L 412.644 -117.445863 
L 401.760333 -115.46825 
L 390.876667 -115.756654 
L 379.993 -125.387673 
L 369.109333 -117.308164 
L 358.225667 -121.781569 
L 347.342 -124.856034 
L 336.458333 -118.999672 
z
" style="stroke: #ffffff; stroke-opacity: 0.2"/>
    </defs>
    <g clip-path="url(#p01c5ae6cee)">
     <use xlink:href="#m7060071ebe" x="0" y="248.690625" style="fill: #2ca02c; fill-opacity: 0.2; stroke: #ffffff; stroke-opacity: 0.2"/>
    </g>
   </g>
   <g id="line2d_34">
    <path d="M 336.458333 137.986549 
L 347.342 126.726335 
L 358.225667 130.896785 
L 369.109333 123.807021 
L 379.993 122.972931 
L 390.876667 110.878627 
L 401.760333 96.699099 
L 412.644 87.52411 
L 423.527667 70.425267 
L 434.411333 70.008222 
L 445.295 71.259357 
L 456.178667 80.017301 
L 467.062333 76.680942 
L 477.946 97.116144 
L 488.829667 113.797942 
L 499.713333 124.641111 
L 510.597 136.318369 
L 521.480667 142.991088 
L 532.364333 148.412673 
L 543.248 178.022864 
L 554.131667 191.785347 
" clip-path="url(#p01c5ae6cee)" style="fill: none; stroke: #1f77b4; stroke-width: 1.5; stroke-linecap: round"/>
   </g>
   <g id="line2d_35">
    <path d="M 336.458333 137.986549 
L 347.342 132.14792 
L 358.225667 126.726335 
L 369.109333 122.138841 
L 379.993 110.044537 
L 390.876667 109.627493 
L 401.760333 106.708178 
L 412.644 95.030919 
L 423.527667 72.093447 
L 434.411333 64.586638 
L 445.295 66.671863 
L 456.178667 65.003683 
L 467.062333 75.429807 
L 477.946 63.335503 
L 488.829667 75.429807 
L 499.713333 82.102526 
L 510.597 82.519571 
L 521.480667 92.111605 
L 532.364333 89.609335 
L 543.248 90.86047 
L 554.131667 99.201369 
" clip-path="url(#p01c5ae6cee)" style="fill: none; stroke: #ff7f0e; stroke-width: 1.5; stroke-linecap: round"/>
   </g>
   <g id="line2d_36">
    <path d="M 336.458333 137.986549 
L 347.342 130.47974 
L 358.225667 135.067234 
L 369.109333 139.654729 
L 379.993 130.896785 
L 390.876667 137.986549 
L 401.760333 139.654729 
L 412.644 136.735414 
L 423.527667 127.97747 
L 434.411333 137.569504 
L 445.295 147.161538 
L 456.178667 150.080853 
L 467.062333 142.156998 
L 477.946 151.331987 
L 488.829667 140.071774 
L 499.713333 150.080853 
L 510.597 142.991088 
L 521.480667 151.749032 
L 532.364333 155.919482 
L 543.248 148.829718 
L 554.131667 156.336527 
" clip-path="url(#p01c5ae6cee)" style="fill: none; stroke: #2ca02c; stroke-width: 1.5; stroke-linecap: round"/>
   </g>
   <g id="line2d_37">
    <path d="M 336.458333 137.986549 
L 554.131667 137.986549 
" clip-path="url(#p01c5ae6cee)" style="fill: none; stroke: #808080; stroke-opacity: 0.5; stroke-width: 1.5; stroke-linecap: round"/>
   </g>
   <g id="line2d_38">
    <path d="M 445.295 212.2 
L 445.295 49.25625 
" clip-path="url(#p01c5ae6cee)" style="fill: none; stroke-dasharray: 5.55,2.4; stroke-dashoffset: 0; stroke: #000000; stroke-opacity: 0.5; stroke-width: 1.5"/>
   </g>
   <g id="patch_9">
    <path d="M 336.458333 212.2 
L 336.458333 49.25625 
" style="fill: none; stroke: #cccccc; stroke-width: 0.8; stroke-linejoin: miter; stroke-linecap: square"/>
   </g>
   <g id="patch_10">
    <path d="M 554.131667 212.2 
L 554.131667 49.25625 
" style="fill: none; stroke: #cccccc; stroke-width: 0.8; stroke-linejoin: miter; stroke-linecap: square"/>
   </g>
   <g id="patch_11">
    <path d="M 336.458333 212.2 
L 554.131667 212.2 
" style="fill: none; stroke: #cccccc; stroke-width: 0.8; stroke-linejoin: miter; stroke-linecap: square"/>
   </g>
   <g id="patch_12">
    <path d="M 336.458333 49.25625 
L 554.131667 49.25625 
" style="fill: none; stroke: #cccccc; stroke-width: 0.8; stroke-linejoin: miter; stroke-linecap: square"/>
   </g>
   <g id="text_34">
    <!-- Spirals -->
    <g style="fill: #262626" transform="translate(426.955625 43.25625) scale(0.12 -0.12)">
     <defs>
      <path id="ArialMT-70" d="M 422 -1272 
L 422 3319 
L 934 3319 
L 934 2888 
Q 1116 3141 1344 3267 
Q 1572 3394 1897 3394 
Q 2322 3394 2647 3175 
Q 2972 2956 3137 2557 
Q 3303 2159 3303 1684 
Q 3303 1175 3120 767 
Q 2938 359 2589 142 
Q 2241 -75 1856 -75 
Q 1575 -75 1351 44 
Q 1128 163 984 344 
L 984 -1272 
L 422 -1272 
z
M 931 1641 
Q 931 1000 1190 694 
Q 1450 388 1819 388 
Q 2194 388 2461 705 
Q 2728 1022 2728 1688 
Q 2728 2322 2467 2637 
Q 2206 2953 1844 2953 
Q 1484 2953 1207 2617 
Q 931 2281 931 1641 
z
" transform="scale(0.015625)"/>
     </defs>
     <use xlink:href="#ArialMT-53"/>
     <use xlink:href="#ArialMT-70" transform="translate(66.699219 0)"/>
     <use xlink:href="#ArialMT-69" transform="translate(122.314453 0)"/>
     <use xlink:href="#ArialMT-72" transform="translate(144.53125 0)"/>
     <use xlink:href="#ArialMT-61" transform="translate(177.832031 0)"/>
     <use xlink:href="#ArialMT-6c" transform="translate(233.447266 0)"/>
     <use xlink:href="#ArialMT-73" transform="translate(255.664062 0)"/>
    </g>
   </g>
  </g>
  <g id="axes_3">
   <g id="patch_13">
    <path d="M 625.591667 212.2 
L 843.265 212.2 
L 843.265 49.25625 
L 625.591667 49.25625 
z
" style="fill: #ffffff"/>
   </g>
   <g id="matplotlib.axis_5">
    <g id="xtick_13">
     <g id="line2d_39">
      <path d="M 625.591667 212.2 
L 625.591667 49.25625 
" clip-path="url(#p5ddfd4d7d1)" style="fill: none; stroke: #cccccc; stroke-width: 0.8; stroke-linecap: round"/>
     </g>
     <g id="text_35">
      <!-- 0 -->
      <g style="fill: #262626" transform="translate(622.811198 226.357813) scale(0.1 -0.1)">
       <use xlink:href="#ArialMT-30"/>
      </g>
     </g>
    </g>
    <g id="xtick_14">
     <g id="line2d_40">
      <path d="M 669.126333 212.2 
L 669.126333 49.25625 
" clip-path="url(#p5ddfd4d7d1)" style="fill: none; stroke: #cccccc; stroke-width: 0.8; stroke-linecap: round"/>
     </g>
     <g id="text_36">
      <!-- 2 -->
      <g style="fill: #262626" transform="translate(666.345865 226.357813) scale(0.1 -0.1)">
       <use xlink:href="#ArialMT-32"/>
      </g>
     </g>
    </g>
    <g id="xtick_15">
     <g id="line2d_41">
      <path d="M 712.661 212.2 
L 712.661 49.25625 
" clip-path="url(#p5ddfd4d7d1)" style="fill: none; stroke: #cccccc; stroke-width: 0.8; stroke-linecap: round"/>
     </g>
     <g id="text_37">
      <!-- 4 -->
      <g style="fill: #262626" transform="translate(709.880531 226.357813) scale(0.1 -0.1)">
       <use xlink:href="#ArialMT-34"/>
      </g>
     </g>
    </g>
    <g id="xtick_16">
     <g id="line2d_42">
      <path d="M 756.195667 212.2 
L 756.195667 49.25625 
" clip-path="url(#p5ddfd4d7d1)" style="fill: none; stroke: #cccccc; stroke-width: 0.8; stroke-linecap: round"/>
     </g>
     <g id="text_38">
      <!-- 6 -->
      <g style="fill: #262626" transform="translate(753.415198 226.357813) scale(0.1 -0.1)">
       <use xlink:href="#ArialMT-36"/>
      </g>
     </g>
    </g>
    <g id="xtick_17">
     <g id="line2d_43">
      <path d="M 799.730333 212.2 
L 799.730333 49.25625 
" clip-path="url(#p5ddfd4d7d1)" style="fill: none; stroke: #cccccc; stroke-width: 0.8; stroke-linecap: round"/>
     </g>
     <g id="text_39">
      <!-- 8 -->
      <g style="fill: #262626" transform="translate(796.949865 226.357813) scale(0.1 -0.1)">
       <use xlink:href="#ArialMT-38"/>
      </g>
     </g>
    </g>
    <g id="xtick_18">
     <g id="line2d_44">
      <path d="M 843.265 212.2 
L 843.265 49.25625 
" clip-path="url(#p5ddfd4d7d1)" style="fill: none; stroke: #cccccc; stroke-width: 0.8; stroke-linecap: round"/>
     </g>
     <g id="text_40">
      <!-- 10 -->
      <g style="fill: #262626" transform="translate(837.704063 226.357813) scale(0.1 -0.1)">
       <use xlink:href="#ArialMT-31"/>
       <use xlink:href="#ArialMT-30" transform="translate(55.615234 0)"/>
      </g>
     </g>
    </g>
    <g id="text_41">
     <!-- % Data Removed -->
     <g style="fill: #262626" transform="translate(695.245521 239.503125) scale(0.1 -0.1)">
      <use xlink:href="#ArialMT-25"/>
      <use xlink:href="#ArialMT-20" transform="translate(88.916016 0)"/>
      <use xlink:href="#ArialMT-44" transform="translate(116.699219 0)"/>
      <use xlink:href="#ArialMT-61" transform="translate(188.916016 0)"/>
      <use xlink:href="#ArialMT-74" transform="translate(244.53125 0)"/>
      <use xlink:href="#ArialMT-61" transform="translate(272.314453 0)"/>
      <use xlink:href="#ArialMT-20" transform="translate(327.929688 0)"/>
      <use xlink:href="#ArialMT-52" transform="translate(355.712891 0)"/>
      <use xlink:href="#ArialMT-65" transform="translate(427.929688 0)"/>
      <use xlink:href="#ArialMT-6d" transform="translate(483.544922 0)"/>
      <use xlink:href="#ArialMT-6f" transform="translate(566.845703 0)"/>
      <use xlink:href="#ArialMT-76" transform="translate(622.460938 0)"/>
      <use xlink:href="#ArialMT-65" transform="translate(672.460938 0)"/>
      <use xlink:href="#ArialMT-64" transform="translate(728.076172 0)"/>
     </g>
    </g>
   </g>
   <g id="matplotlib.axis_6">
    <g id="ytick_14">
     <g id="line2d_45">
      <path d="M 625.591667 189.191235 
L 843.265 189.191235 
" clip-path="url(#p5ddfd4d7d1)" style="fill: none; stroke: #cccccc; stroke-width: 0.8; stroke-linecap: round"/>
     </g>
     <g id="text_42">
      <!-- −0.2 -->
      <g style="fill: #262626" transform="translate(598.851042 192.770141) scale(0.1 -0.1)">
       <use xlink:href="#ArialMT-2212"/>
       <use xlink:href="#ArialMT-30" transform="translate(58.398438 0)"/>
       <use xlink:href="#ArialMT-2e" transform="translate(114.013672 0)"/>
       <use xlink:href="#ArialMT-32" transform="translate(141.796875 0)"/>
      </g>
     </g>
    </g>
    <g id="ytick_15">
     <g id="line2d_46">
      <path d="M 625.591667 158.890215 
L 843.265 158.890215 
" clip-path="url(#p5ddfd4d7d1)" style="fill: none; stroke: #cccccc; stroke-width: 0.8; stroke-linecap: round"/>
     </g>
     <g id="text_43">
      <!-- 0.0 -->
      <g style="fill: #262626" transform="translate(604.691667 162.469121) scale(0.1 -0.1)">
       <use xlink:href="#ArialMT-30"/>
       <use xlink:href="#ArialMT-2e" transform="translate(55.615234 0)"/>
       <use xlink:href="#ArialMT-30" transform="translate(83.398438 0)"/>
      </g>
     </g>
    </g>
    <g id="ytick_16">
     <g id="line2d_47">
      <path d="M 625.591667 128.589195 
L 843.265 128.589195 
" clip-path="url(#p5ddfd4d7d1)" style="fill: none; stroke: #cccccc; stroke-width: 0.8; stroke-linecap: round"/>
     </g>
     <g id="text_44">
      <!-- 0.2 -->
      <g style="fill: #262626" transform="translate(604.691667 132.168101) scale(0.1 -0.1)">
       <use xlink:href="#ArialMT-30"/>
       <use xlink:href="#ArialMT-2e" transform="translate(55.615234 0)"/>
       <use xlink:href="#ArialMT-32" transform="translate(83.398438 0)"/>
      </g>
     </g>
    </g>
    <g id="ytick_17">
     <g id="line2d_48">
      <path d="M 625.591667 98.288174 
L 843.265 98.288174 
" clip-path="url(#p5ddfd4d7d1)" style="fill: none; stroke: #cccccc; stroke-width: 0.8; stroke-linecap: round"/>
     </g>
     <g id="text_45">
      <!-- 0.4 -->
      <g style="fill: #262626" transform="translate(604.691667 101.867081) scale(0.1 -0.1)">
       <use xlink:href="#ArialMT-30"/>
       <use xlink:href="#ArialMT-2e" transform="translate(55.615234 0)"/>
       <use xlink:href="#ArialMT-34" transform="translate(83.398438 0)"/>
      </g>
     </g>
    </g>
    <g id="ytick_18">
     <g id="line2d_49">
      <path d="M 625.591667 67.987154 
L 843.265 67.987154 
" clip-path="url(#p5ddfd4d7d1)" style="fill: none; stroke: #cccccc; stroke-width: 0.8; stroke-linecap: round"/>
     </g>
     <g id="text_46">
      <!-- 0.6 -->
      <g style="fill: #262626" transform="translate(604.691667 71.56606) scale(0.1 -0.1)">
       <use xlink:href="#ArialMT-30"/>
       <use xlink:href="#ArialMT-2e" transform="translate(55.615234 0)"/>
       <use xlink:href="#ArialMT-36" transform="translate(83.398438 0)"/>
      </g>
     </g>
    </g>
    <g id="text_47">
     <!-- Δ Accuracy in % -->
     <g style="fill: #262626" transform="translate(592.746354 166.583594) rotate(-90) scale(0.1 -0.1)">
      <use xlink:href="#ArialMT-394"/>
      <use xlink:href="#ArialMT-20" transform="translate(61.296875 0)"/>
      <use xlink:href="#ArialMT-41" transform="translate(83.580078 0)"/>
      <use xlink:href="#ArialMT-63" transform="translate(150.279297 0)"/>
      <use xlink:href="#ArialMT-63" transform="translate(200.279297 0)"/>
      <use xlink:href="#ArialMT-75" transform="translate(250.279297 0)"/>
      <use xlink:href="#ArialMT-72" transform="translate(305.894531 0)"/>
      <use xlink:href="#ArialMT-61" transform="translate(339.195312 0)"/>
      <use xlink:href="#ArialMT-63" transform="translate(394.810547 0)"/>
      <use xlink:href="#ArialMT-79" transform="translate(444.810547 0)"/>
      <use xlink:href="#ArialMT-20" transform="translate(494.810547 0)"/>
      <use xlink:href="#ArialMT-69" transform="translate(522.59375 0)"/>
      <use xlink:href="#ArialMT-6e" transform="translate(544.810547 0)"/>
      <use xlink:href="#ArialMT-20" transform="translate(600.425781 0)"/>
      <use xlink:href="#ArialMT-25" transform="translate(628.208984 0)"/>
     </g>
    </g>
   </g>
   <g id="FillBetweenPolyCollection_7">
    <defs>
     <path id="m8333b29d76" d="M 625.591667 -99.876424 
L 625.591667 -79.724396 
L 636.475333 -105.270445 
L 647.359 -97.400797 
L 658.242667 -100.318843 
L 669.126333 -102.114756 
L 680.01 -118.759718 
L 690.893667 -145.482439 
L 701.777333 -147.024182 
L 712.661 -147.600488 
L 723.544667 -162.94351 
L 734.428333 -163.809982 
L 745.312 -173.569918 
L 756.195667 -163.681757 
L 767.079333 -154.369617 
L 777.963 -142.758464 
L 788.846667 -153.239351 
L 799.730333 -157.323088 
L 810.614 -131.763483 
L 821.497667 -116.943836 
L 832.381333 -113.185858 
L 843.265 -106.175616 
L 843.265 -121.454793 
L 843.265 -121.454793 
L 832.381333 -129.512658 
L 821.497667 -133.288733 
L 810.614 -151.901447 
L 799.730333 -172.01704 
L 788.846667 -178.455168 
L 777.963 -158.799842 
L 767.079333 -177.324902 
L 756.195667 -176.95945 
L 745.312 -192.027841 
L 734.428333 -177.302104 
L 723.544667 -179.581211 
L 712.661 -167.142411 
L 701.777333 -164.893448 
L 690.893667 -157.017624 
L 680.01 -139.948661 
L 669.126333 -133.049706 
L 658.242667 -111.772581 
L 647.359 -115.161506 
L 636.475333 -121.418208 
L 625.591667 -99.876424 
z
" style="stroke: #ffffff; stroke-opacity: 0.2"/>
    </defs>
    <g clip-path="url(#p5ddfd4d7d1)">
     <use xlink:href="#m8333b29d76" x="0" y="248.690625" style="fill: #1f77b4; fill-opacity: 0.2; stroke: #ffffff; stroke-opacity: 0.2"/>
    </g>
   </g>
   <g id="FillBetweenPolyCollection_8">
    <defs>
     <path id="me20ea37e78" d="M 625.591667 -99.876424 
L 625.591667 -79.724396 
L 636.475333 -74.094559 
L 647.359 -89.134443 
L 658.242667 -105.397347 
L 669.126333 -119.332847 
L 680.01 -130.280405 
L 690.893667 -132.208387 
L 701.777333 -128.475555 
L 712.661 -124.404619 
L 723.544667 -128.059941 
L 734.428333 -153.357858 
L 745.312 -153.536554 
L 756.195667 -131.433049 
L 767.079333 -144.867063 
L 777.963 -136.430184 
L 788.846667 -123.742464 
L 799.730333 -124.668921 
L 810.614 -120.344994 
L 821.497667 -122.778261 
L 832.381333 -110.595541 
L 843.265 -100.029985 
L 843.265 -116.299344 
L 843.265 -116.299344 
L 832.381333 -119.860138 
L 821.497667 -137.813632 
L 810.614 -134.596358 
L 799.730333 -147.69493 
L 788.846667 -149.092264 
L 777.963 -159.477582 
L 767.079333 -159.045636 
L 756.195667 -151.290124 
L 745.312 -176.745331 
L 734.428333 -175.511392 
L 723.544667 -139.595126 
L 712.661 -134.774638 
L 701.777333 -140.121269 
L 690.893667 -145.806003 
L 680.01 -147.733985 
L 669.126333 -134.666748 
L 658.242667 -132.121507 
L 647.359 -118.248198 
L 636.475333 -89.02552 
L 625.591667 -99.876424 
z
" style="stroke: #ffffff; stroke-opacity: 0.2"/>
    </defs>
    <g clip-path="url(#p5ddfd4d7d1)">
     <use xlink:href="#me20ea37e78" x="0" y="248.690625" style="fill: #ff7f0e; fill-opacity: 0.2; stroke: #ffffff; stroke-opacity: 0.2"/>
    </g>
   </g>
   <g id="FillBetweenPolyCollection_9">
    <defs>
     <path id="m047dabf99d" d="M 625.591667 -99.876424 
L 625.591667 -79.724396 
L 636.475333 -83.306829 
L 647.359 -86.982027 
L 658.242667 -91.868441 
L 669.126333 -67.487359 
L 680.01 -63.107868 
L 690.893667 -82.933932 
L 701.777333 -68.049991 
L 712.661 -59.859206 
L 723.544667 -80.836951 
L 734.428333 -67.105978 
L 745.312 -43.897159 
L 756.195667 -54.207545 
L 767.079333 -70.105724 
L 777.963 -54.112549 
L 788.846667 -45.818002 
L 799.730333 -48.514982 
L 810.614 -60.635442 
L 821.497667 -52.897047 
L 832.381333 -68.625037 
L 843.265 -65.037682 
L 843.265 -87.723073 
L 843.265 -87.723073 
L 832.381333 -86.019232 
L 821.497667 -76.319793 
L 810.614 -75.644573 
L 799.730333 -72.696926 
L 788.846667 -64.092826 
L 777.963 -77.92956 
L 767.079333 -91.60172 
L 756.195667 -80.188956 
L 745.312 -73.076844 
L 734.428333 -89.892683 
L 723.544667 -105.827044 
L 712.661 -89.605401 
L 701.777333 -97.42448 
L 690.893667 -110.793238 
L 680.01 -84.002348 
L 669.126333 -92.336572 
L 658.242667 -107.03839 
L 647.359 -104.86163 
L 636.475333 -93.9396 
L 625.591667 -99.876424 
z
" style="stroke: #ffffff; stroke-opacity: 0.2"/>
    </defs>
    <g clip-path="url(#p5ddfd4d7d1)">
     <use xlink:href="#m047dabf99d" x="0" y="248.690625" style="fill: #2ca02c; fill-opacity: 0.2; stroke: #ffffff; stroke-opacity: 0.2"/>
    </g>
   </g>
   <g id="line2d_50">
    <path d="M 625.591667 158.890215 
L 636.475333 135.346299 
L 647.359 142.409474 
L 658.242667 142.644913 
L 669.126333 131.108394 
L 680.01 119.336436 
L 690.893667 97.440593 
L 701.777333 92.73181 
L 712.661 91.319175 
L 723.544667 77.428265 
L 734.428333 78.134582 
L 745.312 65.891746 
L 756.195667 78.370021 
L 767.079333 82.843365 
L 777.963 97.911472 
L 788.846667 82.843365 
L 799.730333 84.020561 
L 810.614 106.85816 
L 821.497667 123.574341 
L 832.381333 127.341367 
L 843.265 134.87542 
" clip-path="url(#p5ddfd4d7d1)" style="fill: none; stroke: #1f77b4; stroke-width: 1.5; stroke-linecap: round"/>
   </g>
   <g id="line2d_51">
    <path d="M 625.591667 158.890215 
L 636.475333 167.130586 
L 647.359 144.999304 
L 658.242667 129.931198 
L 669.126333 121.690827 
L 680.01 109.68343 
L 690.893667 109.68343 
L 701.777333 114.392213 
L 712.661 119.100996 
L 723.544667 114.863091 
L 734.428333 84.256 
L 745.312 83.549683 
L 756.195667 107.329038 
L 767.079333 96.734276 
L 777.963 100.736742 
L 788.846667 112.273261 
L 799.730333 112.5087 
L 810.614 121.219949 
L 821.497667 118.394679 
L 832.381333 133.462785 
L 843.265 140.52596 
" clip-path="url(#p5ddfd4d7d1)" style="fill: none; stroke: #ff7f0e; stroke-width: 1.5; stroke-linecap: round"/>
   </g>
   <g id="line2d_52">
    <path d="M 625.591667 158.890215 
L 636.475333 160.067411 
L 647.359 152.768797 
L 658.242667 149.237209 
L 669.126333 168.77866 
L 680.01 175.135517 
L 690.893667 151.82704 
L 701.777333 165.95339 
L 712.661 173.958321 
L 723.544667 155.358627 
L 734.428333 170.191295 
L 745.312 190.203624 
L 756.195667 181.492375 
L 767.079333 167.836903 
L 777.963 182.66957 
L 788.846667 193.735211 
L 799.730333 188.084671 
L 810.614 180.550618 
L 821.497667 184.082205 
L 832.381333 171.368491 
L 843.265 172.310247 
" clip-path="url(#p5ddfd4d7d1)" style="fill: none; stroke: #2ca02c; stroke-width: 1.5; stroke-linecap: round"/>
   </g>
   <g id="line2d_53">
    <path d="M 625.591667 158.890215 
L 843.265 158.890215 
" clip-path="url(#p5ddfd4d7d1)" style="fill: none; stroke: #808080; stroke-opacity: 0.5; stroke-width: 1.5; stroke-linecap: round"/>
   </g>
   <g id="line2d_54">
    <path d="M 734.428333 212.2 
L 734.428333 49.25625 
" clip-path="url(#p5ddfd4d7d1)" style="fill: none; stroke-dasharray: 5.55,2.4; stroke-dashoffset: 0; stroke: #000000; stroke-opacity: 0.5; stroke-width: 1.5"/>
   </g>
   <g id="patch_14">
    <path d="M 625.591667 212.2 
L 625.591667 49.25625 
" style="fill: none; stroke: #cccccc; stroke-width: 0.8; stroke-linejoin: miter; stroke-linecap: square"/>
   </g>
   <g id="patch_15">
    <path d="M 843.265 212.2 
L 843.265 49.25625 
" style="fill: none; stroke: #cccccc; stroke-width: 0.8; stroke-linejoin: miter; stroke-linecap: square"/>
   </g>
   <g id="patch_16">
    <path d="M 625.591667 212.2 
L 843.265 212.2 
" style="fill: none; stroke: #cccccc; stroke-width: 0.8; stroke-linejoin: miter; stroke-linecap: square"/>
   </g>
   <g id="patch_17">
    <path d="M 625.591667 49.25625 
L 843.265 49.25625 
" style="fill: none; stroke: #cccccc; stroke-width: 0.8; stroke-linejoin: miter; stroke-linecap: square"/>
   </g>
   <g id="text_48">
    <!-- Satelite -->
    <g style="fill: #262626" transform="translate(714.416458 43.25625) scale(0.12 -0.12)">
     <use xlink:href="#ArialMT-53"/>
     <use xlink:href="#ArialMT-61" transform="translate(66.699219 0)"/>
     <use xlink:href="#ArialMT-74" transform="translate(122.314453 0)"/>
     <use xlink:href="#ArialMT-65" transform="translate(150.097656 0)"/>
     <use xlink:href="#ArialMT-6c" transform="translate(205.712891 0)"/>
     <use xlink:href="#ArialMT-69" transform="translate(227.929688 0)"/>
     <use xlink:href="#ArialMT-74" transform="translate(250.146484 0)"/>
     <use xlink:href="#ArialMT-65" transform="translate(277.929688 0)"/>
    </g>
   </g>
  </g>
  <g id="text_49">
   <!-- Error Removal for Uniform 5% Noise -->
   <g style="fill: #262626" transform="translate(330.290312 15.789375) scale(0.12 -0.12)">
    <defs>
     <path id="ArialMT-45" d="M 506 0 
L 506 4581 
L 3819 4581 
L 3819 4041 
L 1113 4041 
L 1113 2638 
L 3647 2638 
L 3647 2100 
L 1113 2100 
L 1113 541 
L 3925 541 
L 3925 0 
L 506 0 
z
" transform="scale(0.015625)"/>
     <path id="ArialMT-4e" d="M 488 0 
L 488 4581 
L 1109 4581 
L 3516 984 
L 3516 4581 
L 4097 4581 
L 4097 0 
L 3475 0 
L 1069 3600 
L 1069 0 
L 488 0 
z
" transform="scale(0.015625)"/>
    </defs>
    <use xlink:href="#ArialMT-45"/>
    <use xlink:href="#ArialMT-72" transform="translate(66.699219 0)"/>
    <use xlink:href="#ArialMT-72" transform="translate(100 0)"/>
    <use xlink:href="#ArialMT-6f" transform="translate(133.300781 0)"/>
    <use xlink:href="#ArialMT-72" transform="translate(188.916016 0)"/>
    <use xlink:href="#ArialMT-20" transform="translate(222.216797 0)"/>
    <use xlink:href="#ArialMT-52" transform="translate(250 0)"/>
    <use xlink:href="#ArialMT-65" transform="translate(322.216797 0)"/>
    <use xlink:href="#ArialMT-6d" transform="translate(377.832031 0)"/>
    <use xlink:href="#ArialMT-6f" transform="translate(461.132812 0)"/>
    <use xlink:href="#ArialMT-76" transform="translate(516.748047 0)"/>
    <use xlink:href="#ArialMT-61" transform="translate(566.748047 0)"/>
    <use xlink:href="#ArialMT-6c" transform="translate(622.363281 0)"/>
    <use xlink:href="#ArialMT-20" transform="translate(644.580078 0)"/>
    <use xlink:href="#ArialMT-66" transform="translate(672.363281 0)"/>
    <use xlink:href="#ArialMT-6f" transform="translate(700.146484 0)"/>
    <use xlink:href="#ArialMT-72" transform="translate(755.761719 0)"/>
    <use xlink:href="#ArialMT-20" transform="translate(789.0625 0)"/>
    <use xlink:href="#ArialMT-55" transform="translate(816.845703 0)"/>
    <use xlink:href="#ArialMT-6e" transform="translate(889.0625 0)"/>
    <use xlink:href="#ArialMT-69" transform="translate(944.677734 0)"/>
    <use xlink:href="#ArialMT-66" transform="translate(966.894531 0)"/>
    <use xlink:href="#ArialMT-6f" transform="translate(994.677734 0)"/>
    <use xlink:href="#ArialMT-72" transform="translate(1050.292969 0)"/>
    <use xlink:href="#ArialMT-6d" transform="translate(1083.59375 0)"/>
    <use xlink:href="#ArialMT-20" transform="translate(1166.894531 0)"/>
    <use xlink:href="#ArialMT-35" transform="translate(1194.677734 0)"/>
    <use xlink:href="#ArialMT-25" transform="translate(1250.292969 0)"/>
    <use xlink:href="#ArialMT-20" transform="translate(1339.208984 0)"/>
    <use xlink:href="#ArialMT-4e" transform="translate(1366.992188 0)"/>
    <use xlink:href="#ArialMT-6f" transform="translate(1439.208984 0)"/>
    <use xlink:href="#ArialMT-69" transform="translate(1494.824219 0)"/>
    <use xlink:href="#ArialMT-73" transform="translate(1517.041016 0)"/>
    <use xlink:href="#ArialMT-65" transform="translate(1567.041016 0)"/>
   </g>
  </g>
 </g>
 <defs>
  <clipPath id="p3e01ac5791">
   <rect x="47.325" y="49.25625" width="217.673333" height="162.94375"/>
  </clipPath>
  <clipPath id="p01c5ae6cee">
   <rect x="336.458333" y="49.25625" width="217.673333" height="162.94375"/>
  </clipPath>
  <clipPath id="p5ddfd4d7d1">
   <rect x="625.591667" y="49.25625" width="217.673333" height="162.94375"/>
  </clipPath>
 </defs>
</svg>
