<?xml version="1.0" encoding="utf-8" standalone="no"?>
<!DOCTYPE svg PUBLIC "-//W3C//DTD SVG 1.1//EN"
  "http://www.w3.org/Graphics/SVG/1.1/DTD/svg11.dtd">
<svg xmlns:xlink="http://www.w3.org/1999/xlink" width="861.641406pt" height="248.690625pt" viewBox="0 0 861.641406 248.690625" xmlns="http://www.w3.org/2000/svg" version="1.1">
 <metadata>
  <rdf:RDF xmlns:dc="http://purl.org/dc/elements/1.1/" xmlns:cc="http://creativecommons.org/ns#" xmlns:rdf="http://www.w3.org/1999/02/22-rdf-syntax-ns#">
   <cc:Work>
    <dc:type rdf:resource="http://purl.org/dc/dcmitype/StillImage"/>
    <dc:date>2025-01-14T16:06:52.260306</dc:date>
    <dc:format>image/svg+xml</dc:format>
    <dc:creator>
     <cc:Agent>
      <dc:title>Matplotlib v3.10.0, https://matplotlib.org/</dc:title>
     </cc:Agent>
    </dc:creator>
   </cc:Work>
  </rdf:RDF>
 </metadata>
 <defs>
  <style type="text/css">*{stroke-linejoin: round; stroke-linecap: butt}</style>
 </defs>
 <g id="figure_1">
  <g id="patch_1">
   <path d="M 0 248.690625 
L 861.641406 248.690625 
L 861.641406 0 
L 0 0 
z
" style="fill: #ffffff"/>
  </g>
  <g id="axes_1">
   <g id="patch_2">
    <path d="M 52.885938 212.2 
L 273.394271 212.2 
L 273.394271 49.25625 
L 52.885938 49.25625 
z
" style="fill: #ffffff"/>
   </g>
   <g id="matplotlib.axis_1">
    <g id="xtick_1">
     <g id="line2d_1">
      <path d="M 52.885938 212.2 
L 52.885938 49.25625 
" clip-path="url(#p159ccb1227)" style="fill: none; stroke: #cccccc; stroke-width: 0.8; stroke-linecap: round"/>
     </g>
     <g id="text_1">
      <!-- 0 -->
      <g style="fill: #262626" transform="translate(50.105469 226.357813) scale(0.1 -0.1)">
       <defs>
        <path id="ArialMT-30" d="M 266 2259 
Q 266 3072 433 3567 
Q 600 4063 929 4331 
Q 1259 4600 1759 4600 
Q 2128 4600 2406 4451 
Q 2684 4303 2865 4023 
Q 3047 3744 3150 3342 
Q 3253 2941 3253 2259 
Q 3253 1453 3087 958 
Q 2922 463 2592 192 
Q 2263 -78 1759 -78 
Q 1097 -78 719 397 
Q 266 969 266 2259 
z
M 844 2259 
Q 844 1131 1108 757 
Q 1372 384 1759 384 
Q 2147 384 2411 759 
Q 2675 1134 2675 2259 
Q 2675 3391 2411 3762 
Q 2147 4134 1753 4134 
Q 1366 4134 1134 3806 
Q 844 3388 844 2259 
z
" transform="scale(0.015625)"/>
       </defs>
       <use xlink:href="#ArialMT-30"/>
      </g>
     </g>
    </g>
    <g id="xtick_2">
     <g id="line2d_2">
      <path d="M 96.987604 212.2 
L 96.987604 49.25625 
" clip-path="url(#p159ccb1227)" style="fill: none; stroke: #cccccc; stroke-width: 0.8; stroke-linecap: round"/>
     </g>
     <g id="text_2">
      <!-- 1 -->
      <g style="fill: #262626" transform="translate(94.207135 226.357813) scale(0.1 -0.1)">
       <defs>
        <path id="ArialMT-31" d="M 2384 0 
L 1822 0 
L 1822 3584 
Q 1619 3391 1289 3197 
Q 959 3003 697 2906 
L 697 3450 
Q 1169 3672 1522 3987 
Q 1875 4303 2022 4600 
L 2384 4600 
L 2384 0 
z
" transform="scale(0.015625)"/>
       </defs>
       <use xlink:href="#ArialMT-31"/>
      </g>
     </g>
    </g>
    <g id="xtick_3">
     <g id="line2d_3">
      <path d="M 141.089271 212.2 
L 141.089271 49.25625 
" clip-path="url(#p159ccb1227)" style="fill: none; stroke: #cccccc; stroke-width: 0.8; stroke-linecap: round"/>
     </g>
     <g id="text_3">
      <!-- 2 -->
      <g style="fill: #262626" transform="translate(138.308802 226.357813) scale(0.1 -0.1)">
       <defs>
        <path id="ArialMT-32" d="M 3222 541 
L 3222 0 
L 194 0 
Q 188 203 259 391 
Q 375 700 629 1000 
Q 884 1300 1366 1694 
Q 2113 2306 2375 2664 
Q 2638 3022 2638 3341 
Q 2638 3675 2398 3904 
Q 2159 4134 1775 4134 
Q 1369 4134 1125 3890 
Q 881 3647 878 3216 
L 300 3275 
Q 359 3922 746 4261 
Q 1134 4600 1788 4600 
Q 2447 4600 2831 4234 
Q 3216 3869 3216 3328 
Q 3216 3053 3103 2787 
Q 2991 2522 2730 2228 
Q 2469 1934 1863 1422 
Q 1356 997 1212 845 
Q 1069 694 975 541 
L 3222 541 
z
" transform="scale(0.015625)"/>
       </defs>
       <use xlink:href="#ArialMT-32"/>
      </g>
     </g>
    </g>
    <g id="xtick_4">
     <g id="line2d_4">
      <path d="M 185.190938 212.2 
L 185.190938 49.25625 
" clip-path="url(#p159ccb1227)" style="fill: none; stroke: #cccccc; stroke-width: 0.8; stroke-linecap: round"/>
     </g>
     <g id="text_4">
      <!-- 3 -->
      <g style="fill: #262626" transform="translate(182.410469 226.357813) scale(0.1 -0.1)">
       <defs>
        <path id="ArialMT-33" d="M 269 1209 
L 831 1284 
Q 928 806 1161 595 
Q 1394 384 1728 384 
Q 2125 384 2398 659 
Q 2672 934 2672 1341 
Q 2672 1728 2419 1979 
Q 2166 2231 1775 2231 
Q 1616 2231 1378 2169 
L 1441 2663 
Q 1497 2656 1531 2656 
Q 1891 2656 2178 2843 
Q 2466 3031 2466 3422 
Q 2466 3731 2256 3934 
Q 2047 4138 1716 4138 
Q 1388 4138 1169 3931 
Q 950 3725 888 3313 
L 325 3413 
Q 428 3978 793 4289 
Q 1159 4600 1703 4600 
Q 2078 4600 2393 4439 
Q 2709 4278 2876 4000 
Q 3044 3722 3044 3409 
Q 3044 3113 2884 2869 
Q 2725 2625 2413 2481 
Q 2819 2388 3044 2092 
Q 3269 1797 3269 1353 
Q 3269 753 2831 336 
Q 2394 -81 1725 -81 
Q 1122 -81 723 278 
Q 325 638 269 1209 
z
" transform="scale(0.015625)"/>
       </defs>
       <use xlink:href="#ArialMT-33"/>
      </g>
     </g>
    </g>
    <g id="xtick_5">
     <g id="line2d_5">
      <path d="M 229.292604 212.2 
L 229.292604 49.25625 
" clip-path="url(#p159ccb1227)" style="fill: none; stroke: #cccccc; stroke-width: 0.8; stroke-linecap: round"/>
     </g>
     <g id="text_5">
      <!-- 4 -->
      <g style="fill: #262626" transform="translate(226.512135 226.357813) scale(0.1 -0.1)">
       <defs>
        <path id="ArialMT-34" d="M 2069 0 
L 2069 1097 
L 81 1097 
L 81 1613 
L 2172 4581 
L 2631 4581 
L 2631 1613 
L 3250 1613 
L 3250 1097 
L 2631 1097 
L 2631 0 
L 2069 0 
z
M 2069 1613 
L 2069 3678 
L 634 1613 
L 2069 1613 
z
" transform="scale(0.015625)"/>
       </defs>
       <use xlink:href="#ArialMT-34"/>
      </g>
     </g>
    </g>
    <g id="xtick_6">
     <g id="line2d_6">
      <path d="M 273.394271 212.2 
L 273.394271 49.25625 
" clip-path="url(#p159ccb1227)" style="fill: none; stroke: #cccccc; stroke-width: 0.8; stroke-linecap: round"/>
     </g>
     <g id="text_6">
      <!-- 5 -->
      <g style="fill: #262626" transform="translate(270.613802 226.357813) scale(0.1 -0.1)">
       <defs>
        <path id="ArialMT-35" d="M 266 1200 
L 856 1250 
Q 922 819 1161 601 
Q 1400 384 1738 384 
Q 2144 384 2425 690 
Q 2706 997 2706 1503 
Q 2706 1984 2436 2262 
Q 2166 2541 1728 2541 
Q 1456 2541 1237 2417 
Q 1019 2294 894 2097 
L 366 2166 
L 809 4519 
L 3088 4519 
L 3088 3981 
L 1259 3981 
L 1013 2750 
Q 1425 3038 1878 3038 
Q 2478 3038 2890 2622 
Q 3303 2206 3303 1553 
Q 3303 931 2941 478 
Q 2500 -78 1738 -78 
Q 1113 -78 717 272 
Q 322 622 266 1200 
z
" transform="scale(0.015625)"/>
       </defs>
       <use xlink:href="#ArialMT-35"/>
      </g>
     </g>
    </g>
    <g id="text_7">
     <!-- % Data Removed -->
     <g style="fill: #262626" transform="translate(123.957292 239.503125) scale(0.1 -0.1)">
      <defs>
       <path id="ArialMT-25" d="M 372 3481 
Q 372 3972 619 4315 
Q 866 4659 1334 4659 
Q 1766 4659 2048 4351 
Q 2331 4044 2331 3447 
Q 2331 2866 2045 2552 
Q 1759 2238 1341 2238 
Q 925 2238 648 2547 
Q 372 2856 372 3481 
z
M 1350 4272 
Q 1141 4272 1002 4090 
Q 863 3909 863 3425 
Q 863 2984 1003 2804 
Q 1144 2625 1350 2625 
Q 1563 2625 1702 2806 
Q 1841 2988 1841 3469 
Q 1841 3913 1700 4092 
Q 1559 4272 1350 4272 
z
M 1353 -169 
L 3859 4659 
L 4316 4659 
L 1819 -169 
L 1353 -169 
z
M 3334 1075 
Q 3334 1569 3581 1911 
Q 3828 2253 4300 2253 
Q 4731 2253 5014 1945 
Q 5297 1638 5297 1041 
Q 5297 459 5011 145 
Q 4725 -169 4303 -169 
Q 3888 -169 3611 142 
Q 3334 453 3334 1075 
z
M 4316 1866 
Q 4103 1866 3964 1684 
Q 3825 1503 3825 1019 
Q 3825 581 3965 400 
Q 4106 219 4313 219 
Q 4528 219 4667 400 
Q 4806 581 4806 1063 
Q 4806 1506 4665 1686 
Q 4525 1866 4316 1866 
z
" transform="scale(0.015625)"/>
       <path id="ArialMT-20" transform="scale(0.015625)"/>
       <path id="ArialMT-44" d="M 494 0 
L 494 4581 
L 2072 4581 
Q 2606 4581 2888 4516 
Q 3281 4425 3559 4188 
Q 3922 3881 4101 3404 
Q 4281 2928 4281 2316 
Q 4281 1794 4159 1391 
Q 4038 988 3847 723 
Q 3656 459 3429 307 
Q 3203 156 2883 78 
Q 2563 0 2147 0 
L 494 0 
z
M 1100 541 
L 2078 541 
Q 2531 541 2789 625 
Q 3047 709 3200 863 
Q 3416 1078 3536 1442 
Q 3656 1806 3656 2325 
Q 3656 3044 3420 3430 
Q 3184 3816 2847 3947 
Q 2603 4041 2063 4041 
L 1100 4041 
L 1100 541 
z
" transform="scale(0.015625)"/>
       <path id="ArialMT-61" d="M 2588 409 
Q 2275 144 1986 34 
Q 1697 -75 1366 -75 
Q 819 -75 525 192 
Q 231 459 231 875 
Q 231 1119 342 1320 
Q 453 1522 633 1644 
Q 813 1766 1038 1828 
Q 1203 1872 1538 1913 
Q 2219 1994 2541 2106 
Q 2544 2222 2544 2253 
Q 2544 2597 2384 2738 
Q 2169 2928 1744 2928 
Q 1347 2928 1158 2789 
Q 969 2650 878 2297 
L 328 2372 
Q 403 2725 575 2942 
Q 747 3159 1072 3276 
Q 1397 3394 1825 3394 
Q 2250 3394 2515 3294 
Q 2781 3194 2906 3042 
Q 3031 2891 3081 2659 
Q 3109 2516 3109 2141 
L 3109 1391 
Q 3109 606 3145 398 
Q 3181 191 3288 0 
L 2700 0 
Q 2613 175 2588 409 
z
M 2541 1666 
Q 2234 1541 1622 1453 
Q 1275 1403 1131 1340 
Q 988 1278 909 1158 
Q 831 1038 831 891 
Q 831 666 1001 516 
Q 1172 366 1500 366 
Q 1825 366 2078 508 
Q 2331 650 2450 897 
Q 2541 1088 2541 1459 
L 2541 1666 
z
" transform="scale(0.015625)"/>
       <path id="ArialMT-74" d="M 1650 503 
L 1731 6 
Q 1494 -44 1306 -44 
Q 1000 -44 831 53 
Q 663 150 594 308 
Q 525 466 525 972 
L 525 2881 
L 113 2881 
L 113 3319 
L 525 3319 
L 525 4141 
L 1084 4478 
L 1084 3319 
L 1650 3319 
L 1650 2881 
L 1084 2881 
L 1084 941 
Q 1084 700 1114 631 
Q 1144 563 1211 522 
Q 1278 481 1403 481 
Q 1497 481 1650 503 
z
" transform="scale(0.015625)"/>
       <path id="ArialMT-52" d="M 503 0 
L 503 4581 
L 2534 4581 
Q 3147 4581 3465 4457 
Q 3784 4334 3975 4021 
Q 4166 3709 4166 3331 
Q 4166 2844 3850 2509 
Q 3534 2175 2875 2084 
Q 3116 1969 3241 1856 
Q 3506 1613 3744 1247 
L 4541 0 
L 3778 0 
L 3172 953 
Q 2906 1366 2734 1584 
Q 2563 1803 2427 1890 
Q 2291 1978 2150 2013 
Q 2047 2034 1813 2034 
L 1109 2034 
L 1109 0 
L 503 0 
z
M 1109 2559 
L 2413 2559 
Q 2828 2559 3062 2645 
Q 3297 2731 3419 2920 
Q 3541 3109 3541 3331 
Q 3541 3656 3305 3865 
Q 3069 4075 2559 4075 
L 1109 4075 
L 1109 2559 
z
" transform="scale(0.015625)"/>
       <path id="ArialMT-65" d="M 2694 1069 
L 3275 997 
Q 3138 488 2766 206 
Q 2394 -75 1816 -75 
Q 1088 -75 661 373 
Q 234 822 234 1631 
Q 234 2469 665 2931 
Q 1097 3394 1784 3394 
Q 2450 3394 2872 2941 
Q 3294 2488 3294 1666 
Q 3294 1616 3291 1516 
L 816 1516 
Q 847 969 1125 678 
Q 1403 388 1819 388 
Q 2128 388 2347 550 
Q 2566 713 2694 1069 
z
M 847 1978 
L 2700 1978 
Q 2663 2397 2488 2606 
Q 2219 2931 1791 2931 
Q 1403 2931 1139 2672 
Q 875 2413 847 1978 
z
" transform="scale(0.015625)"/>
       <path id="ArialMT-6d" d="M 422 0 
L 422 3319 
L 925 3319 
L 925 2853 
Q 1081 3097 1340 3245 
Q 1600 3394 1931 3394 
Q 2300 3394 2536 3241 
Q 2772 3088 2869 2813 
Q 3263 3394 3894 3394 
Q 4388 3394 4653 3120 
Q 4919 2847 4919 2278 
L 4919 0 
L 4359 0 
L 4359 2091 
Q 4359 2428 4304 2576 
Q 4250 2725 4106 2815 
Q 3963 2906 3769 2906 
Q 3419 2906 3187 2673 
Q 2956 2441 2956 1928 
L 2956 0 
L 2394 0 
L 2394 2156 
Q 2394 2531 2256 2718 
Q 2119 2906 1806 2906 
Q 1569 2906 1367 2781 
Q 1166 2656 1075 2415 
Q 984 2175 984 1722 
L 984 0 
L 422 0 
z
" transform="scale(0.015625)"/>
       <path id="ArialMT-6f" d="M 213 1659 
Q 213 2581 725 3025 
Q 1153 3394 1769 3394 
Q 2453 3394 2887 2945 
Q 3322 2497 3322 1706 
Q 3322 1066 3130 698 
Q 2938 331 2570 128 
Q 2203 -75 1769 -75 
Q 1072 -75 642 372 
Q 213 819 213 1659 
z
M 791 1659 
Q 791 1022 1069 705 
Q 1347 388 1769 388 
Q 2188 388 2466 706 
Q 2744 1025 2744 1678 
Q 2744 2294 2464 2611 
Q 2184 2928 1769 2928 
Q 1347 2928 1069 2612 
Q 791 2297 791 1659 
z
" transform="scale(0.015625)"/>
       <path id="ArialMT-76" d="M 1344 0 
L 81 3319 
L 675 3319 
L 1388 1331 
Q 1503 1009 1600 663 
Q 1675 925 1809 1294 
L 2547 3319 
L 3125 3319 
L 1869 0 
L 1344 0 
z
" transform="scale(0.015625)"/>
       <path id="ArialMT-64" d="M 2575 0 
L 2575 419 
Q 2259 -75 1647 -75 
Q 1250 -75 917 144 
Q 584 363 401 755 
Q 219 1147 219 1656 
Q 219 2153 384 2558 
Q 550 2963 881 3178 
Q 1213 3394 1622 3394 
Q 1922 3394 2156 3267 
Q 2391 3141 2538 2938 
L 2538 4581 
L 3097 4581 
L 3097 0 
L 2575 0 
z
M 797 1656 
Q 797 1019 1065 703 
Q 1334 388 1700 388 
Q 2069 388 2326 689 
Q 2584 991 2584 1609 
Q 2584 2291 2321 2609 
Q 2059 2928 1675 2928 
Q 1300 2928 1048 2622 
Q 797 2316 797 1656 
z
" transform="scale(0.015625)"/>
      </defs>
      <use xlink:href="#ArialMT-25"/>
      <use xlink:href="#ArialMT-20" transform="translate(88.916016 0)"/>
      <use xlink:href="#ArialMT-44" transform="translate(116.699219 0)"/>
      <use xlink:href="#ArialMT-61" transform="translate(188.916016 0)"/>
      <use xlink:href="#ArialMT-74" transform="translate(244.53125 0)"/>
      <use xlink:href="#ArialMT-61" transform="translate(272.314453 0)"/>
      <use xlink:href="#ArialMT-20" transform="translate(327.929688 0)"/>
      <use xlink:href="#ArialMT-52" transform="translate(355.712891 0)"/>
      <use xlink:href="#ArialMT-65" transform="translate(427.929688 0)"/>
      <use xlink:href="#ArialMT-6d" transform="translate(483.544922 0)"/>
      <use xlink:href="#ArialMT-6f" transform="translate(566.845703 0)"/>
      <use xlink:href="#ArialMT-76" transform="translate(622.460938 0)"/>
      <use xlink:href="#ArialMT-65" transform="translate(672.460938 0)"/>
      <use xlink:href="#ArialMT-64" transform="translate(728.076172 0)"/>
     </g>
    </g>
   </g>
   <g id="matplotlib.axis_2">
    <g id="ytick_1">
     <g id="line2d_7">
      <path d="M 52.885938 192.489978 
L 273.394271 192.489978 
" clip-path="url(#p159ccb1227)" style="fill: none; stroke: #cccccc; stroke-width: 0.8; stroke-linecap: round"/>
     </g>
     <g id="text_8">
      <!-- −1.25 -->
      <g style="fill: #262626" transform="translate(20.584375 196.068884) scale(0.1 -0.1)">
       <defs>
        <path id="ArialMT-2212" d="M 3381 1997 
L 356 1997 
L 356 2522 
L 3381 2522 
L 3381 1997 
z
" transform="scale(0.015625)"/>
        <path id="ArialMT-2e" d="M 581 0 
L 581 641 
L 1222 641 
L 1222 0 
L 581 0 
z
" transform="scale(0.015625)"/>
       </defs>
       <use xlink:href="#ArialMT-2212"/>
       <use xlink:href="#ArialMT-31" transform="translate(58.398438 0)"/>
       <use xlink:href="#ArialMT-2e" transform="translate(114.013672 0)"/>
       <use xlink:href="#ArialMT-32" transform="translate(141.796875 0)"/>
       <use xlink:href="#ArialMT-35" transform="translate(197.412109 0)"/>
      </g>
     </g>
    </g>
    <g id="ytick_2">
     <g id="line2d_8">
      <path d="M 52.885938 167.108744 
L 273.394271 167.108744 
" clip-path="url(#p159ccb1227)" style="fill: none; stroke: #cccccc; stroke-width: 0.8; stroke-linecap: round"/>
     </g>
     <g id="text_9">
      <!-- −1.00 -->
      <g style="fill: #262626" transform="translate(20.584375 170.68765) scale(0.1 -0.1)">
       <use xlink:href="#ArialMT-2212"/>
       <use xlink:href="#ArialMT-31" transform="translate(58.398438 0)"/>
       <use xlink:href="#ArialMT-2e" transform="translate(114.013672 0)"/>
       <use xlink:href="#ArialMT-30" transform="translate(141.796875 0)"/>
       <use xlink:href="#ArialMT-30" transform="translate(197.412109 0)"/>
      </g>
     </g>
    </g>
    <g id="ytick_3">
     <g id="line2d_9">
      <path d="M 52.885938 141.727511 
L 273.394271 141.727511 
" clip-path="url(#p159ccb1227)" style="fill: none; stroke: #cccccc; stroke-width: 0.8; stroke-linecap: round"/>
     </g>
     <g id="text_10">
      <!-- −0.75 -->
      <g style="fill: #262626" transform="translate(20.584375 145.306417) scale(0.1 -0.1)">
       <defs>
        <path id="ArialMT-37" d="M 303 3981 
L 303 4522 
L 3269 4522 
L 3269 4084 
Q 2831 3619 2401 2847 
Q 1972 2075 1738 1259 
Q 1569 684 1522 0 
L 944 0 
Q 953 541 1156 1306 
Q 1359 2072 1739 2783 
Q 2119 3494 2547 3981 
L 303 3981 
z
" transform="scale(0.015625)"/>
       </defs>
       <use xlink:href="#ArialMT-2212"/>
       <use xlink:href="#ArialMT-30" transform="translate(58.398438 0)"/>
       <use xlink:href="#ArialMT-2e" transform="translate(114.013672 0)"/>
       <use xlink:href="#ArialMT-37" transform="translate(141.796875 0)"/>
       <use xlink:href="#ArialMT-35" transform="translate(197.412109 0)"/>
      </g>
     </g>
    </g>
    <g id="ytick_4">
     <g id="line2d_10">
      <path d="M 52.885938 116.346277 
L 273.394271 116.346277 
" clip-path="url(#p159ccb1227)" style="fill: none; stroke: #cccccc; stroke-width: 0.8; stroke-linecap: round"/>
     </g>
     <g id="text_11">
      <!-- −0.50 -->
      <g style="fill: #262626" transform="translate(20.584375 119.925183) scale(0.1 -0.1)">
       <use xlink:href="#ArialMT-2212"/>
       <use xlink:href="#ArialMT-30" transform="translate(58.398438 0)"/>
       <use xlink:href="#ArialMT-2e" transform="translate(114.013672 0)"/>
       <use xlink:href="#ArialMT-35" transform="translate(141.796875 0)"/>
       <use xlink:href="#ArialMT-30" transform="translate(197.412109 0)"/>
      </g>
     </g>
    </g>
    <g id="ytick_5">
     <g id="line2d_11">
      <path d="M 52.885938 90.965044 
L 273.394271 90.965044 
" clip-path="url(#p159ccb1227)" style="fill: none; stroke: #cccccc; stroke-width: 0.8; stroke-linecap: round"/>
     </g>
     <g id="text_12">
      <!-- −0.25 -->
      <g style="fill: #262626" transform="translate(20.584375 94.54395) scale(0.1 -0.1)">
       <use xlink:href="#ArialMT-2212"/>
       <use xlink:href="#ArialMT-30" transform="translate(58.398438 0)"/>
       <use xlink:href="#ArialMT-2e" transform="translate(114.013672 0)"/>
       <use xlink:href="#ArialMT-32" transform="translate(141.796875 0)"/>
       <use xlink:href="#ArialMT-35" transform="translate(197.412109 0)"/>
      </g>
     </g>
    </g>
    <g id="ytick_6">
     <g id="line2d_12">
      <path d="M 52.885938 65.58381 
L 273.394271 65.58381 
" clip-path="url(#p159ccb1227)" style="fill: none; stroke: #cccccc; stroke-width: 0.8; stroke-linecap: round"/>
     </g>
     <g id="text_13">
      <!-- 0.00 -->
      <g style="fill: #262626" transform="translate(26.425 69.162716) scale(0.1 -0.1)">
       <use xlink:href="#ArialMT-30"/>
       <use xlink:href="#ArialMT-2e" transform="translate(55.615234 0)"/>
       <use xlink:href="#ArialMT-30" transform="translate(83.398438 0)"/>
       <use xlink:href="#ArialMT-30" transform="translate(139.013672 0)"/>
      </g>
     </g>
    </g>
    <g id="text_14">
     <!-- Δ Accuracy in % -->
     <g style="fill: #262626" transform="translate(14.479687 166.583594) rotate(-90) scale(0.1 -0.1)">
      <defs>
       <path id="ArialMT-394" d="M -6 0 
L 1753 4581 
L 2406 4581 
L 4281 0 
L -6 0 
z
M 834 541 
L 3381 541 
L 2391 3150 
Q 2169 3738 2066 4100 
Q 1981 3675 1819 3225 
L 834 541 
z
" transform="scale(0.015625)"/>
       <path id="ArialMT-41" d="M -9 0 
L 1750 4581 
L 2403 4581 
L 4278 0 
L 3588 0 
L 3053 1388 
L 1138 1388 
L 634 0 
L -9 0 
z
M 1313 1881 
L 2866 1881 
L 2388 3150 
Q 2169 3728 2063 4100 
Q 1975 3659 1816 3225 
L 1313 1881 
z
" transform="scale(0.015625)"/>
       <path id="ArialMT-63" d="M 2588 1216 
L 3141 1144 
Q 3050 572 2676 248 
Q 2303 -75 1759 -75 
Q 1078 -75 664 370 
Q 250 816 250 1647 
Q 250 2184 428 2587 
Q 606 2991 970 3192 
Q 1334 3394 1763 3394 
Q 2303 3394 2647 3120 
Q 2991 2847 3088 2344 
L 2541 2259 
Q 2463 2594 2264 2762 
Q 2066 2931 1784 2931 
Q 1359 2931 1093 2626 
Q 828 2322 828 1663 
Q 828 994 1084 691 
Q 1341 388 1753 388 
Q 2084 388 2306 591 
Q 2528 794 2588 1216 
z
" transform="scale(0.015625)"/>
       <path id="ArialMT-75" d="M 2597 0 
L 2597 488 
Q 2209 -75 1544 -75 
Q 1250 -75 995 37 
Q 741 150 617 320 
Q 494 491 444 738 
Q 409 903 409 1263 
L 409 3319 
L 972 3319 
L 972 1478 
Q 972 1038 1006 884 
Q 1059 663 1231 536 
Q 1403 409 1656 409 
Q 1909 409 2131 539 
Q 2353 669 2445 892 
Q 2538 1116 2538 1541 
L 2538 3319 
L 3100 3319 
L 3100 0 
L 2597 0 
z
" transform="scale(0.015625)"/>
       <path id="ArialMT-72" d="M 416 0 
L 416 3319 
L 922 3319 
L 922 2816 
Q 1116 3169 1280 3281 
Q 1444 3394 1641 3394 
Q 1925 3394 2219 3213 
L 2025 2691 
Q 1819 2813 1613 2813 
Q 1428 2813 1281 2702 
Q 1134 2591 1072 2394 
Q 978 2094 978 1738 
L 978 0 
L 416 0 
z
" transform="scale(0.015625)"/>
       <path id="ArialMT-79" d="M 397 -1278 
L 334 -750 
Q 519 -800 656 -800 
Q 844 -800 956 -737 
Q 1069 -675 1141 -563 
Q 1194 -478 1313 -144 
Q 1328 -97 1363 -6 
L 103 3319 
L 709 3319 
L 1400 1397 
Q 1534 1031 1641 628 
Q 1738 1016 1872 1384 
L 2581 3319 
L 3144 3319 
L 1881 -56 
Q 1678 -603 1566 -809 
Q 1416 -1088 1222 -1217 
Q 1028 -1347 759 -1347 
Q 597 -1347 397 -1278 
z
" transform="scale(0.015625)"/>
       <path id="ArialMT-69" d="M 425 3934 
L 425 4581 
L 988 4581 
L 988 3934 
L 425 3934 
z
M 425 0 
L 425 3319 
L 988 3319 
L 988 0 
L 425 0 
z
" transform="scale(0.015625)"/>
       <path id="ArialMT-6e" d="M 422 0 
L 422 3319 
L 928 3319 
L 928 2847 
Q 1294 3394 1984 3394 
Q 2284 3394 2536 3286 
Q 2788 3178 2913 3003 
Q 3038 2828 3088 2588 
Q 3119 2431 3119 2041 
L 3119 0 
L 2556 0 
L 2556 2019 
Q 2556 2363 2490 2533 
Q 2425 2703 2258 2804 
Q 2091 2906 1866 2906 
Q 1506 2906 1245 2678 
Q 984 2450 984 1813 
L 984 0 
L 422 0 
z
" transform="scale(0.015625)"/>
      </defs>
      <use xlink:href="#ArialMT-394"/>
      <use xlink:href="#ArialMT-20" transform="translate(61.296875 0)"/>
      <use xlink:href="#ArialMT-41" transform="translate(83.580078 0)"/>
      <use xlink:href="#ArialMT-63" transform="translate(150.279297 0)"/>
      <use xlink:href="#ArialMT-63" transform="translate(200.279297 0)"/>
      <use xlink:href="#ArialMT-75" transform="translate(250.279297 0)"/>
      <use xlink:href="#ArialMT-72" transform="translate(305.894531 0)"/>
      <use xlink:href="#ArialMT-61" transform="translate(339.195312 0)"/>
      <use xlink:href="#ArialMT-63" transform="translate(394.810547 0)"/>
      <use xlink:href="#ArialMT-79" transform="translate(444.810547 0)"/>
      <use xlink:href="#ArialMT-20" transform="translate(494.810547 0)"/>
      <use xlink:href="#ArialMT-69" transform="translate(522.59375 0)"/>
      <use xlink:href="#ArialMT-6e" transform="translate(544.810547 0)"/>
      <use xlink:href="#ArialMT-20" transform="translate(600.425781 0)"/>
      <use xlink:href="#ArialMT-25" transform="translate(628.208984 0)"/>
     </g>
    </g>
   </g>
   <g id="FillBetweenPolyCollection_1">
    <defs>
     <path id="mc0f25cf5e8" d="M 52.885938 -192.027841 
L 52.885938 -174.185789 
L 63.911354 -98.568808 
L 74.936771 -174.197889 
L 85.962187 -146.669455 
L 96.987604 -144.409579 
L 108.013021 -133.586441 
L 119.038438 -120.583576 
L 130.063854 -129.085927 
L 141.089271 -124.350036 
L 152.114688 -91.822305 
L 163.140104 -91.958479 
L 174.165521 -82.803485 
L 185.190938 -89.290677 
L 196.216354 -45.954396 
L 207.241771 -96.628335 
L 218.267188 -112.480459 
L 229.292604 -100.649314 
L 240.318021 -82.281872 
L 251.343438 -75.386054 
L 262.368854 -44.124434 
L 273.394271 -55.800461 
L 273.394271 -64.086673 
L 273.394271 -64.086673 
L 262.368854 -50.904063 
L 251.343438 -87.438726 
L 240.318021 -90.712351 
L 229.292604 -110.762803 
L 218.267188 -119.270542 
L 207.241771 -106.874215 
L 196.216354 -51.333977 
L 185.190938 -98.39274 
L 174.165521 -89.060799 
L 163.140104 -97.984815 
L 152.114688 -99.250926 
L 141.089271 -132.259602 
L 130.063854 -135.433278 
L 119.038438 -129.246434 
L 108.013021 -137.712392 
L 96.987604 -147.228139 
L 85.962187 -149.488016 
L 74.936771 -177.326546 
L 63.911354 -100.413989 
L 52.885938 -192.027841 
z
" style="stroke: #ffffff; stroke-opacity: 0.2"/>
    </defs>
    <g clip-path="url(#p159ccb1227)">
     <use xlink:href="#mc0f25cf5e8" x="0" y="248.690625" style="fill: #1f77b4; fill-opacity: 0.2; stroke: #ffffff; stroke-opacity: 0.2"/>
    </g>
   </g>
   <g id="FillBetweenPolyCollection_2">
    <defs>
     <path id="m108be43190" d="M 52.885938 -192.027841 
L 52.885938 -174.185789 
L 63.911354 -131.357129 
L 74.936771 -123.433673 
L 85.962187 -132.465975 
L 96.987604 -132.605776 
L 108.013021 -129.115742 
L 119.038438 -131.42923 
L 130.063854 -95.204577 
L 141.089271 -95.458448 
L 152.114688 -107.322835 
L 163.140104 -73.436948 
L 174.165521 -84.118353 
L 185.190938 -70.307965 
L 196.216354 -50.593474 
L 207.241771 -78.337771 
L 218.267188 -49.829474 
L 229.292604 -67.053977 
L 240.318021 -50.29285 
L 251.343438 -62.619122 
L 262.368854 -47.73697 
L 273.394271 -43.897159 
L 273.394271 -70.340285 
L 273.394271 -70.340285 
L 262.368854 -75.539978 
L 251.343438 -84.386525 
L 240.318021 -74.114036 
L 229.292604 -98.030679 
L 218.267188 -77.967226 
L 207.241771 -99.176204 
L 196.216354 -80.59304 
L 185.190938 -97.036567 
L 174.165521 -102.435126 
L 163.140104 -95.037523 
L 152.114688 -125.558104 
L 141.089271 -115.953668 
L 130.063854 -122.987168 
L 119.038438 -144.389356 
L 108.013021 -144.442967 
L 96.987604 -146.602623 
L 85.962187 -150.132239 
L 74.936771 -144.475346 
L 63.911354 -146.721332 
L 52.885938 -192.027841 
z
" style="stroke: #ffffff; stroke-opacity: 0.2"/>
    </defs>
    <g clip-path="url(#p159ccb1227)">
     <use xlink:href="#m108be43190" x="0" y="248.690625" style="fill: #ff7f0e; fill-opacity: 0.2; stroke: #ffffff; stroke-opacity: 0.2"/>
    </g>
   </g>
   <g id="FillBetweenPolyCollection_3">
    <defs>
     <path id="m23cb9f1def" d="M 52.885938 -192.027841 
L 52.885938 -174.185789 
L 63.911354 -147.284436 
L 74.936771 -146.264946 
L 85.962187 -135.560242 
L 96.987604 -139.012832 
L 108.013021 -159.244724 
L 119.038438 -154.023575 
L 130.063854 -165.013047 
L 141.089271 -154.30087 
L 152.114688 -143.723787 
L 163.140104 -144.092623 
L 174.165521 -139.976568 
L 185.190938 -134.029107 
L 196.216354 -134.173013 
L 207.241771 -132.948855 
L 218.267188 -152.02009 
L 229.292604 -152.473855 
L 240.318021 -153.025968 
L 251.343438 -137.437298 
L 262.368854 -146.948797 
L 273.394271 -157.320028 
L 273.394271 -170.475708 
L 273.394271 -170.475708 
L 262.368854 -162.76793 
L 251.343438 -159.85011 
L 240.318021 -172.509892 
L 229.292604 -169.67219 
L 218.267188 -159.956514 
L 207.241771 -148.519421 
L 196.216354 -152.944953 
L 185.190938 -155.348735 
L 174.165521 -148.271336 
L 163.140104 -161.104352 
L 152.114688 -169.382754 
L 141.089271 -178.014618 
L 130.063854 -184.251512 
L 119.038438 -171.512284 
L 108.013021 -175.33064 
L 96.987604 -160.534453 
L 85.962187 -151.557724 
L 74.936771 -164.581719 
L 63.911354 -168.081982 
L 52.885938 -192.027841 
z
" style="stroke: #ffffff; stroke-opacity: 0.2"/>
    </defs>
    <g clip-path="url(#p159ccb1227)">
     <use xlink:href="#m23cb9f1def" x="0" y="248.690625" style="fill: #2ca02c; fill-opacity: 0.2; stroke: #ffffff; stroke-opacity: 0.2"/>
    </g>
   </g>
   <g id="line2d_13">
    <path d="M 52.885938 65.58381 
L 63.911354 149.199226 
L 74.936771 72.928408 
L 85.962187 100.61189 
L 96.987604 102.871766 
L 108.013021 113.041208 
L 119.038438 123.77562 
L 130.063854 116.431023 
L 141.089271 120.385806 
L 152.114688 153.154009 
L 163.140104 153.718978 
L 174.165521 162.758483 
L 185.190938 154.848916 
L 196.216354 200.046438 
L 207.241771 146.93935 
L 218.267188 132.815124 
L 229.292604 142.984567 
L 240.318021 162.193514 
L 251.343438 167.278235 
L 262.368854 201.176377 
L 273.394271 188.747058 
" clip-path="url(#p159ccb1227)" style="fill: none; stroke: #1f77b4; stroke-width: 1.5; stroke-linecap: round"/>
   </g>
   <g id="line2d_14">
    <path d="M 52.885938 65.58381 
L 63.911354 109.651394 
L 74.936771 114.736115 
L 85.962187 107.391518 
L 96.987604 109.086425 
L 108.013021 111.91127 
L 119.038438 110.781332 
L 130.063854 139.594753 
L 141.089271 142.984567 
L 152.114688 132.250155 
L 163.140104 164.45339 
L 174.165521 155.413885 
L 185.190938 165.018359 
L 196.216354 183.097368 
L 207.241771 159.933638 
L 218.267188 184.792275 
L 229.292604 166.148297 
L 240.318021 186.487182 
L 251.343438 175.187801 
L 262.368854 187.052151 
L 273.394271 191.571903 
" clip-path="url(#p159ccb1227)" style="fill: none; stroke: #ff7f0e; stroke-width: 1.5; stroke-linecap: round"/>
   </g>
   <g id="line2d_15">
    <path d="M 52.885938 65.58381 
L 63.911354 91.007416 
L 74.936771 93.267292 
L 85.962187 105.131642 
L 96.987604 98.916983 
L 108.013021 81.402943 
L 119.038438 85.922695 
L 130.063854 74.058346 
L 141.089271 82.532881 
L 152.114688 92.137354 
L 163.140104 96.092138 
L 174.165521 104.566673 
L 185.190938 104.001704 
L 196.216354 105.131642 
L 207.241771 107.956487 
L 218.267188 92.702323 
L 229.292604 87.617602 
L 240.318021 85.922695 
L 251.343438 100.046921 
L 262.368854 93.832262 
L 273.394271 84.792757 
" clip-path="url(#p159ccb1227)" style="fill: none; stroke: #2ca02c; stroke-width: 1.5; stroke-linecap: round"/>
   </g>
   <g id="line2d_16">
    <path d="M 52.885938 65.58381 
L 273.394271 65.58381 
" clip-path="url(#p159ccb1227)" style="fill: none; stroke: #808080; stroke-opacity: 0.5; stroke-width: 1.5; stroke-linecap: round"/>
   </g>
   <g id="patch_3">
    <path d="M 52.885938 212.2 
L 52.885938 49.25625 
" style="fill: none; stroke: #cccccc; stroke-width: 0.8; stroke-linejoin: miter; stroke-linecap: square"/>
   </g>
   <g id="patch_4">
    <path d="M 273.394271 212.2 
L 273.394271 49.25625 
" style="fill: none; stroke: #cccccc; stroke-width: 0.8; stroke-linejoin: miter; stroke-linecap: square"/>
   </g>
   <g id="patch_5">
    <path d="M 52.885938 212.2 
L 273.394271 212.2 
" style="fill: none; stroke: #cccccc; stroke-width: 0.8; stroke-linejoin: miter; stroke-linecap: square"/>
   </g>
   <g id="patch_6">
    <path d="M 52.885938 49.25625 
L 273.394271 49.25625 
" style="fill: none; stroke: #cccccc; stroke-width: 0.8; stroke-linejoin: miter; stroke-linecap: square"/>
   </g>
   <g id="text_15">
    <!-- Digits -->
    <g style="fill: #262626" transform="translate(148.137292 43.25625) scale(0.12 -0.12)">
     <defs>
      <path id="ArialMT-67" d="M 319 -275 
L 866 -356 
Q 900 -609 1056 -725 
Q 1266 -881 1628 -881 
Q 2019 -881 2231 -725 
Q 2444 -569 2519 -288 
Q 2563 -116 2559 434 
Q 2191 0 1641 0 
Q 956 0 581 494 
Q 206 988 206 1678 
Q 206 2153 378 2554 
Q 550 2956 876 3175 
Q 1203 3394 1644 3394 
Q 2231 3394 2613 2919 
L 2613 3319 
L 3131 3319 
L 3131 450 
Q 3131 -325 2973 -648 
Q 2816 -972 2473 -1159 
Q 2131 -1347 1631 -1347 
Q 1038 -1347 672 -1080 
Q 306 -813 319 -275 
z
M 784 1719 
Q 784 1066 1043 766 
Q 1303 466 1694 466 
Q 2081 466 2343 764 
Q 2606 1063 2606 1700 
Q 2606 2309 2336 2618 
Q 2066 2928 1684 2928 
Q 1309 2928 1046 2623 
Q 784 2319 784 1719 
z
" transform="scale(0.015625)"/>
      <path id="ArialMT-73" d="M 197 991 
L 753 1078 
Q 800 744 1014 566 
Q 1228 388 1613 388 
Q 2000 388 2187 545 
Q 2375 703 2375 916 
Q 2375 1106 2209 1216 
Q 2094 1291 1634 1406 
Q 1016 1563 777 1677 
Q 538 1791 414 1992 
Q 291 2194 291 2438 
Q 291 2659 392 2848 
Q 494 3038 669 3163 
Q 800 3259 1026 3326 
Q 1253 3394 1513 3394 
Q 1903 3394 2198 3281 
Q 2494 3169 2634 2976 
Q 2775 2784 2828 2463 
L 2278 2388 
Q 2241 2644 2061 2787 
Q 1881 2931 1553 2931 
Q 1166 2931 1000 2803 
Q 834 2675 834 2503 
Q 834 2394 903 2306 
Q 972 2216 1119 2156 
Q 1203 2125 1616 2013 
Q 2213 1853 2448 1751 
Q 2684 1650 2818 1456 
Q 2953 1263 2953 975 
Q 2953 694 2789 445 
Q 2625 197 2315 61 
Q 2006 -75 1616 -75 
Q 969 -75 630 194 
Q 291 463 197 991 
z
" transform="scale(0.015625)"/>
     </defs>
     <use xlink:href="#ArialMT-44"/>
     <use xlink:href="#ArialMT-69" transform="translate(72.216797 0)"/>
     <use xlink:href="#ArialMT-67" transform="translate(94.433594 0)"/>
     <use xlink:href="#ArialMT-69" transform="translate(150.048828 0)"/>
     <use xlink:href="#ArialMT-74" transform="translate(172.265625 0)"/>
     <use xlink:href="#ArialMT-73" transform="translate(200.048828 0)"/>
    </g>
   </g>
   <g id="legend_1">
    <g id="patch_7">
     <path d="M 58.485938 208.2 
L 141.004688 208.2 
Q 142.604688 208.2 142.604688 206.6 
L 142.604688 173.45125 
Q 142.604688 171.85125 141.004688 171.85125 
L 58.485938 171.85125 
Q 56.885938 171.85125 56.885938 173.45125 
L 56.885938 206.6 
Q 56.885938 208.2 58.485938 208.2 
z
" style="fill: #ffffff; opacity: 0.8; stroke: #cccccc; stroke-linejoin: miter"/>
    </g>
    <g id="line2d_17">
     <path d="M 60.085938 177.9775 
L 68.085938 177.9775 
L 76.085938 177.9775 
" style="fill: none; stroke: #1f77b4; stroke-width: 1.5; stroke-linecap: round"/>
    </g>
    <g id="text_16">
     <!-- AUM -->
     <g style="fill: #262626" transform="translate(82.485938 180.7775) scale(0.08 -0.08)">
      <defs>
       <path id="ArialMT-55" d="M 3500 4581 
L 4106 4581 
L 4106 1934 
Q 4106 1244 3950 837 
Q 3794 431 3386 176 
Q 2978 -78 2316 -78 
Q 1672 -78 1262 144 
Q 853 366 678 786 
Q 503 1206 503 1934 
L 503 4581 
L 1109 4581 
L 1109 1938 
Q 1109 1341 1220 1058 
Q 1331 775 1601 622 
Q 1872 469 2263 469 
Q 2931 469 3215 772 
Q 3500 1075 3500 1938 
L 3500 4581 
z
" transform="scale(0.015625)"/>
       <path id="ArialMT-4d" d="M 475 0 
L 475 4581 
L 1388 4581 
L 2472 1338 
Q 2622 884 2691 659 
Q 2769 909 2934 1394 
L 4031 4581 
L 4847 4581 
L 4847 0 
L 4263 0 
L 4263 3834 
L 2931 0 
L 2384 0 
L 1059 3900 
L 1059 0 
L 475 0 
z
" transform="scale(0.015625)"/>
      </defs>
      <use xlink:href="#ArialMT-41"/>
      <use xlink:href="#ArialMT-55" transform="translate(66.699219 0)"/>
      <use xlink:href="#ArialMT-4d" transform="translate(138.916016 0)"/>
     </g>
    </g>
    <g id="line2d_18">
     <path d="M 60.085938 189.29375 
L 68.085938 189.29375 
L 76.085938 189.29375 
" style="fill: none; stroke: #ff7f0e; stroke-width: 1.5; stroke-linecap: round"/>
    </g>
    <g id="text_17">
     <!-- Self-Confidence -->
     <g style="fill: #262626" transform="translate(82.485938 192.09375) scale(0.08 -0.08)">
      <defs>
       <path id="ArialMT-53" d="M 288 1472 
L 859 1522 
Q 900 1178 1048 958 
Q 1197 738 1509 602 
Q 1822 466 2213 466 
Q 2559 466 2825 569 
Q 3091 672 3220 851 
Q 3350 1031 3350 1244 
Q 3350 1459 3225 1620 
Q 3100 1781 2813 1891 
Q 2628 1963 1997 2114 
Q 1366 2266 1113 2400 
Q 784 2572 623 2826 
Q 463 3081 463 3397 
Q 463 3744 659 4045 
Q 856 4347 1234 4503 
Q 1613 4659 2075 4659 
Q 2584 4659 2973 4495 
Q 3363 4331 3572 4012 
Q 3781 3694 3797 3291 
L 3216 3247 
Q 3169 3681 2898 3903 
Q 2628 4125 2100 4125 
Q 1550 4125 1298 3923 
Q 1047 3722 1047 3438 
Q 1047 3191 1225 3031 
Q 1400 2872 2139 2705 
Q 2878 2538 3153 2413 
Q 3553 2228 3743 1945 
Q 3934 1663 3934 1294 
Q 3934 928 3725 604 
Q 3516 281 3123 101 
Q 2731 -78 2241 -78 
Q 1619 -78 1198 103 
Q 778 284 539 648 
Q 300 1013 288 1472 
z
" transform="scale(0.015625)"/>
       <path id="ArialMT-6c" d="M 409 0 
L 409 4581 
L 972 4581 
L 972 0 
L 409 0 
z
" transform="scale(0.015625)"/>
       <path id="ArialMT-66" d="M 556 0 
L 556 2881 
L 59 2881 
L 59 3319 
L 556 3319 
L 556 3672 
Q 556 4006 616 4169 
Q 697 4388 901 4523 
Q 1106 4659 1475 4659 
Q 1713 4659 2000 4603 
L 1916 4113 
Q 1741 4144 1584 4144 
Q 1328 4144 1222 4034 
Q 1116 3925 1116 3625 
L 1116 3319 
L 1763 3319 
L 1763 2881 
L 1116 2881 
L 1116 0 
L 556 0 
z
" transform="scale(0.015625)"/>
       <path id="ArialMT-2d" d="M 203 1375 
L 203 1941 
L 1931 1941 
L 1931 1375 
L 203 1375 
z
" transform="scale(0.015625)"/>
       <path id="ArialMT-43" d="M 3763 1606 
L 4369 1453 
Q 4178 706 3683 314 
Q 3188 -78 2472 -78 
Q 1731 -78 1267 223 
Q 803 525 561 1097 
Q 319 1669 319 2325 
Q 319 3041 592 3573 
Q 866 4106 1370 4382 
Q 1875 4659 2481 4659 
Q 3169 4659 3637 4309 
Q 4106 3959 4291 3325 
L 3694 3184 
Q 3534 3684 3231 3912 
Q 2928 4141 2469 4141 
Q 1941 4141 1586 3887 
Q 1231 3634 1087 3207 
Q 944 2781 944 2328 
Q 944 1744 1114 1308 
Q 1284 872 1643 656 
Q 2003 441 2422 441 
Q 2931 441 3284 734 
Q 3638 1028 3763 1606 
z
" transform="scale(0.015625)"/>
      </defs>
      <use xlink:href="#ArialMT-53"/>
      <use xlink:href="#ArialMT-65" transform="translate(66.699219 0)"/>
      <use xlink:href="#ArialMT-6c" transform="translate(122.314453 0)"/>
      <use xlink:href="#ArialMT-66" transform="translate(144.53125 0)"/>
      <use xlink:href="#ArialMT-2d" transform="translate(172.314453 0)"/>
      <use xlink:href="#ArialMT-43" transform="translate(205.615234 0)"/>
      <use xlink:href="#ArialMT-6f" transform="translate(277.832031 0)"/>
      <use xlink:href="#ArialMT-6e" transform="translate(333.447266 0)"/>
      <use xlink:href="#ArialMT-66" transform="translate(389.0625 0)"/>
      <use xlink:href="#ArialMT-69" transform="translate(416.845703 0)"/>
      <use xlink:href="#ArialMT-64" transform="translate(439.0625 0)"/>
      <use xlink:href="#ArialMT-65" transform="translate(494.677734 0)"/>
      <use xlink:href="#ArialMT-6e" transform="translate(550.292969 0)"/>
      <use xlink:href="#ArialMT-63" transform="translate(605.908203 0)"/>
      <use xlink:href="#ArialMT-65" transform="translate(655.908203 0)"/>
     </g>
    </g>
    <g id="line2d_19">
     <path d="M 60.085938 200.61 
L 68.085938 200.61 
L 76.085938 200.61 
" style="fill: none; stroke: #2ca02c; stroke-width: 1.5; stroke-linecap: round"/>
    </g>
    <g id="text_18">
     <!-- Random -->
     <g style="fill: #262626" transform="translate(82.485938 203.41) scale(0.08 -0.08)">
      <use xlink:href="#ArialMT-52"/>
      <use xlink:href="#ArialMT-61" transform="translate(72.216797 0)"/>
      <use xlink:href="#ArialMT-6e" transform="translate(127.832031 0)"/>
      <use xlink:href="#ArialMT-64" transform="translate(183.447266 0)"/>
      <use xlink:href="#ArialMT-6f" transform="translate(239.0625 0)"/>
      <use xlink:href="#ArialMT-6d" transform="translate(294.677734 0)"/>
     </g>
    </g>
   </g>
  </g>
  <g id="axes_2">
   <g id="patch_8">
    <path d="M 342.019271 212.2 
L 562.527604 212.2 
L 562.527604 49.25625 
L 342.019271 49.25625 
z
" style="fill: #ffffff"/>
   </g>
   <g id="matplotlib.axis_3">
    <g id="xtick_7">
     <g id="line2d_20">
      <path d="M 342.019271 212.2 
L 342.019271 49.25625 
" clip-path="url(#p0a7bc3cbe5)" style="fill: none; stroke: #cccccc; stroke-width: 0.8; stroke-linecap: round"/>
     </g>
     <g id="text_19">
      <!-- 0 -->
      <g style="fill: #262626" transform="translate(339.238802 226.357813) scale(0.1 -0.1)">
       <use xlink:href="#ArialMT-30"/>
      </g>
     </g>
    </g>
    <g id="xtick_8">
     <g id="line2d_21">
      <path d="M 386.120938 212.2 
L 386.120938 49.25625 
" clip-path="url(#p0a7bc3cbe5)" style="fill: none; stroke: #cccccc; stroke-width: 0.8; stroke-linecap: round"/>
     </g>
     <g id="text_20">
      <!-- 1 -->
      <g style="fill: #262626" transform="translate(383.340469 226.357813) scale(0.1 -0.1)">
       <use xlink:href="#ArialMT-31"/>
      </g>
     </g>
    </g>
    <g id="xtick_9">
     <g id="line2d_22">
      <path d="M 430.222604 212.2 
L 430.222604 49.25625 
" clip-path="url(#p0a7bc3cbe5)" style="fill: none; stroke: #cccccc; stroke-width: 0.8; stroke-linecap: round"/>
     </g>
     <g id="text_21">
      <!-- 2 -->
      <g style="fill: #262626" transform="translate(427.442135 226.357813) scale(0.1 -0.1)">
       <use xlink:href="#ArialMT-32"/>
      </g>
     </g>
    </g>
    <g id="xtick_10">
     <g id="line2d_23">
      <path d="M 474.324271 212.2 
L 474.324271 49.25625 
" clip-path="url(#p0a7bc3cbe5)" style="fill: none; stroke: #cccccc; stroke-width: 0.8; stroke-linecap: round"/>
     </g>
     <g id="text_22">
      <!-- 3 -->
      <g style="fill: #262626" transform="translate(471.543802 226.357813) scale(0.1 -0.1)">
       <use xlink:href="#ArialMT-33"/>
      </g>
     </g>
    </g>
    <g id="xtick_11">
     <g id="line2d_24">
      <path d="M 518.425937 212.2 
L 518.425937 49.25625 
" clip-path="url(#p0a7bc3cbe5)" style="fill: none; stroke: #cccccc; stroke-width: 0.8; stroke-linecap: round"/>
     </g>
     <g id="text_23">
      <!-- 4 -->
      <g style="fill: #262626" transform="translate(515.645469 226.357813) scale(0.1 -0.1)">
       <use xlink:href="#ArialMT-34"/>
      </g>
     </g>
    </g>
    <g id="xtick_12">
     <g id="line2d_25">
      <path d="M 562.527604 212.2 
L 562.527604 49.25625 
" clip-path="url(#p0a7bc3cbe5)" style="fill: none; stroke: #cccccc; stroke-width: 0.8; stroke-linecap: round"/>
     </g>
     <g id="text_24">
      <!-- 5 -->
      <g style="fill: #262626" transform="translate(559.747135 226.357813) scale(0.1 -0.1)">
       <use xlink:href="#ArialMT-35"/>
      </g>
     </g>
    </g>
    <g id="text_25">
     <!-- % Data Removed -->
     <g style="fill: #262626" transform="translate(413.090625 239.503125) scale(0.1 -0.1)">
      <use xlink:href="#ArialMT-25"/>
      <use xlink:href="#ArialMT-20" transform="translate(88.916016 0)"/>
      <use xlink:href="#ArialMT-44" transform="translate(116.699219 0)"/>
      <use xlink:href="#ArialMT-61" transform="translate(188.916016 0)"/>
      <use xlink:href="#ArialMT-74" transform="translate(244.53125 0)"/>
      <use xlink:href="#ArialMT-61" transform="translate(272.314453 0)"/>
      <use xlink:href="#ArialMT-20" transform="translate(327.929688 0)"/>
      <use xlink:href="#ArialMT-52" transform="translate(355.712891 0)"/>
      <use xlink:href="#ArialMT-65" transform="translate(427.929688 0)"/>
      <use xlink:href="#ArialMT-6d" transform="translate(483.544922 0)"/>
      <use xlink:href="#ArialMT-6f" transform="translate(566.845703 0)"/>
      <use xlink:href="#ArialMT-76" transform="translate(622.460938 0)"/>
      <use xlink:href="#ArialMT-65" transform="translate(672.460938 0)"/>
      <use xlink:href="#ArialMT-64" transform="translate(728.076172 0)"/>
     </g>
    </g>
   </g>
   <g id="matplotlib.axis_4">
    <g id="ytick_7">
     <g id="line2d_26">
      <path d="M 342.019271 185.560985 
L 562.527604 185.560985 
" clip-path="url(#p0a7bc3cbe5)" style="fill: none; stroke: #cccccc; stroke-width: 0.8; stroke-linecap: round"/>
     </g>
     <g id="text_26">
      <!-- −2.0 -->
      <g style="fill: #262626" transform="translate(315.278646 189.139891) scale(0.1 -0.1)">
       <use xlink:href="#ArialMT-2212"/>
       <use xlink:href="#ArialMT-32" transform="translate(58.398438 0)"/>
       <use xlink:href="#ArialMT-2e" transform="translate(114.013672 0)"/>
       <use xlink:href="#ArialMT-30" transform="translate(141.796875 0)"/>
      </g>
     </g>
    </g>
    <g id="ytick_8">
     <g id="line2d_27">
      <path d="M 342.019271 155.403831 
L 562.527604 155.403831 
" clip-path="url(#p0a7bc3cbe5)" style="fill: none; stroke: #cccccc; stroke-width: 0.8; stroke-linecap: round"/>
     </g>
     <g id="text_27">
      <!-- −1.5 -->
      <g style="fill: #262626" transform="translate(315.278646 158.982738) scale(0.1 -0.1)">
       <use xlink:href="#ArialMT-2212"/>
       <use xlink:href="#ArialMT-31" transform="translate(58.398438 0)"/>
       <use xlink:href="#ArialMT-2e" transform="translate(114.013672 0)"/>
       <use xlink:href="#ArialMT-35" transform="translate(141.796875 0)"/>
      </g>
     </g>
    </g>
    <g id="ytick_9">
     <g id="line2d_28">
      <path d="M 342.019271 125.246678 
L 562.527604 125.246678 
" clip-path="url(#p0a7bc3cbe5)" style="fill: none; stroke: #cccccc; stroke-width: 0.8; stroke-linecap: round"/>
     </g>
     <g id="text_28">
      <!-- −1.0 -->
      <g style="fill: #262626" transform="translate(315.278646 128.825585) scale(0.1 -0.1)">
       <use xlink:href="#ArialMT-2212"/>
       <use xlink:href="#ArialMT-31" transform="translate(58.398438 0)"/>
       <use xlink:href="#ArialMT-2e" transform="translate(114.013672 0)"/>
       <use xlink:href="#ArialMT-30" transform="translate(141.796875 0)"/>
      </g>
     </g>
    </g>
    <g id="ytick_10">
     <g id="line2d_29">
      <path d="M 342.019271 95.089525 
L 562.527604 95.089525 
" clip-path="url(#p0a7bc3cbe5)" style="fill: none; stroke: #cccccc; stroke-width: 0.8; stroke-linecap: round"/>
     </g>
     <g id="text_29">
      <!-- −0.5 -->
      <g style="fill: #262626" transform="translate(315.278646 98.668431) scale(0.1 -0.1)">
       <use xlink:href="#ArialMT-2212"/>
       <use xlink:href="#ArialMT-30" transform="translate(58.398438 0)"/>
       <use xlink:href="#ArialMT-2e" transform="translate(114.013672 0)"/>
       <use xlink:href="#ArialMT-35" transform="translate(141.796875 0)"/>
      </g>
     </g>
    </g>
    <g id="ytick_11">
     <g id="line2d_30">
      <path d="M 342.019271 64.932372 
L 562.527604 64.932372 
" clip-path="url(#p0a7bc3cbe5)" style="fill: none; stroke: #cccccc; stroke-width: 0.8; stroke-linecap: round"/>
     </g>
     <g id="text_30">
      <!-- 0.0 -->
      <g style="fill: #262626" transform="translate(321.119271 68.511278) scale(0.1 -0.1)">
       <use xlink:href="#ArialMT-30"/>
       <use xlink:href="#ArialMT-2e" transform="translate(55.615234 0)"/>
       <use xlink:href="#ArialMT-30" transform="translate(83.398438 0)"/>
      </g>
     </g>
    </g>
    <g id="text_31">
     <!-- Δ Accuracy in % -->
     <g style="fill: #262626" transform="translate(309.173958 166.583594) rotate(-90) scale(0.1 -0.1)">
      <use xlink:href="#ArialMT-394"/>
      <use xlink:href="#ArialMT-20" transform="translate(61.296875 0)"/>
      <use xlink:href="#ArialMT-41" transform="translate(83.580078 0)"/>
      <use xlink:href="#ArialMT-63" transform="translate(150.279297 0)"/>
      <use xlink:href="#ArialMT-63" transform="translate(200.279297 0)"/>
      <use xlink:href="#ArialMT-75" transform="translate(250.279297 0)"/>
      <use xlink:href="#ArialMT-72" transform="translate(305.894531 0)"/>
      <use xlink:href="#ArialMT-61" transform="translate(339.195312 0)"/>
      <use xlink:href="#ArialMT-63" transform="translate(394.810547 0)"/>
      <use xlink:href="#ArialMT-79" transform="translate(444.810547 0)"/>
      <use xlink:href="#ArialMT-20" transform="translate(494.810547 0)"/>
      <use xlink:href="#ArialMT-69" transform="translate(522.59375 0)"/>
      <use xlink:href="#ArialMT-6e" transform="translate(544.810547 0)"/>
      <use xlink:href="#ArialMT-20" transform="translate(600.425781 0)"/>
      <use xlink:href="#ArialMT-25" transform="translate(628.208984 0)"/>
     </g>
    </g>
   </g>
   <g id="FillBetweenPolyCollection_4">
    <defs>
     <path id="mcc83cc9270" d="M 342.019271 -186.572921 
L 342.019271 -180.943586 
L 353.044688 -178.902751 
L 364.070104 -165.566004 
L 375.095521 -163.665916 
L 386.120938 -149.050256 
L 397.146354 -146.354458 
L 408.171771 -140.974815 
L 419.197188 -129.65664 
L 430.222604 -129.921152 
L 441.248021 -127.605991 
L 452.273438 -119.573537 
L 463.298854 -114.722313 
L 474.324271 -114.878925 
L 485.349687 -87.495283 
L 496.375104 -85.182934 
L 507.400521 -74.770122 
L 518.425937 -67.766049 
L 529.451354 -63.096196 
L 540.476771 -46.295547 
L 551.502187 -43.897159 
L 562.527604 -47.854873 
L 562.527604 -66.341546 
L 562.527604 -66.341546 
L 551.502187 -64.669925 
L 540.476771 -67.900873 
L 529.451354 -80.855282 
L 518.425937 -91.465053 
L 507.400521 -92.502887 
L 496.375104 -103.803225 
L 485.349687 -111.141165 
L 474.324271 -132.81316 
L 463.298854 -129.753009 
L 452.273438 -136.964646 
L 441.248021 -137.778289 
L 430.222604 -145.917609 
L 419.197188 -142.161167 
L 408.171771 -154.164524 
L 397.146354 -154.414216 
L 386.120938 -160.564516 
L 375.095521 -170.878769 
L 364.070104 -172.999635 
L 353.044688 -187.809565 
L 342.019271 -186.572921 
z
" style="stroke: #ffffff; stroke-opacity: 0.2"/>
    </defs>
    <g clip-path="url(#p0a7bc3cbe5)">
     <use xlink:href="#mcc83cc9270" x="0" y="248.690625" style="fill: #1f77b4; fill-opacity: 0.2; stroke: #ffffff; stroke-opacity: 0.2"/>
    </g>
   </g>
   <g id="FillBetweenPolyCollection_5">
    <defs>
     <path id="m86659af4de" d="M 342.019271 -186.572921 
L 342.019271 -180.943586 
L 353.044688 -173.289581 
L 364.070104 -175.240354 
L 375.095521 -161.868058 
L 386.120938 -163.519453 
L 397.146354 -169.491517 
L 408.171771 -156.600359 
L 419.197188 -156.47045 
L 430.222604 -152.463396 
L 441.248021 -156.034729 
L 452.273438 -152.377481 
L 463.298854 -148.851001 
L 474.324271 -148.820884 
L 485.349687 -150.389924 
L 496.375104 -146.984877 
L 507.400521 -140.80492 
L 518.425937 -136.023994 
L 529.451354 -141.140333 
L 540.476771 -145.278957 
L 551.502187 -133.881702 
L 562.527604 -138.343866 
L 562.527604 -147.949374 
L 562.527604 -147.949374 
L 551.502187 -143.565441 
L 540.476771 -157.098099 
L 529.451354 -153.999005 
L 518.425937 -150.269247 
L 507.400521 -155.9428 
L 496.375104 -157.000559 
L 485.349687 -163.245802 
L 474.324271 -156.772935 
L 463.298854 -158.351199 
L 452.273438 -159.649864 
L 441.248021 -169.663858 
L 430.222604 -166.801665 
L 419.197188 -169.228137 
L 408.171771 -165.077274 
L 397.146354 -177.11603 
L 386.120938 -171.829424 
L 375.095521 -170.264056 
L 364.070104 -185.038436 
L 353.044688 -182.164064 
L 342.019271 -186.572921 
z
" style="stroke: #ffffff; stroke-opacity: 0.2"/>
    </defs>
    <g clip-path="url(#p0a7bc3cbe5)">
     <use xlink:href="#m86659af4de" x="0" y="248.690625" style="fill: #ff7f0e; fill-opacity: 0.2; stroke: #ffffff; stroke-opacity: 0.2"/>
    </g>
   </g>
   <g id="FillBetweenPolyCollection_6">
    <defs>
     <path id="mbbef4e39f6" d="M 342.019271 -186.572921 
L 342.019271 -180.943586 
L 353.044688 -178.566915 
L 364.070104 -182.772464 
L 375.095521 -180.943586 
L 386.120938 -180.524157 
L 397.146354 -171.592615 
L 408.171771 -176.460736 
L 419.197188 -177.088193 
L 430.222604 -172.131172 
L 441.248021 -182.726382 
L 452.273438 -175.783877 
L 463.298854 -172.391574 
L 474.324271 -179.555701 
L 485.349687 -178.26295 
L 496.375104 -177.662308 
L 507.400521 -183.770685 
L 518.425937 -182.283903 
L 529.451354 -177.551068 
L 540.476771 -176.359765 
L 551.502187 -170.919206 
L 562.527604 -175.829818 
L 562.527604 -182.84059 
L 562.527604 -182.84059 
L 551.502187 -180.513486 
L 540.476771 -187.135788 
L 529.451354 -188.357057 
L 518.425937 -191.666129 
L 507.400521 -190.983538 
L 496.375104 -186.637435 
L 485.349687 -183.624221 
L 474.324271 -187.156615 
L 463.298854 -180.649499 
L 452.273438 -184.494912 
L 441.248021 -192.027841 
L 430.222604 -178.497329 
L 419.197188 -185.603169 
L 408.171771 -187.034817 
L 397.146354 -183.056839 
L 386.120938 -187.79654 
L 375.095521 -188.985493 
L 364.070104 -190.373378 
L 353.044688 -186.537019 
L 342.019271 -186.572921 
z
" style="stroke: #ffffff; stroke-opacity: 0.2"/>
    </defs>
    <g clip-path="url(#p0a7bc3cbe5)">
     <use xlink:href="#mbbef4e39f6" x="0" y="248.690625" style="fill: #2ca02c; fill-opacity: 0.2; stroke: #ffffff; stroke-opacity: 0.2"/>
    </g>
   </g>
   <g id="line2d_31">
    <path d="M 342.019271 64.932372 
L 353.044688 65.334467 
L 364.070104 79.407805 
L 375.095521 81.418282 
L 386.120938 93.883239 
L 397.146354 98.306288 
L 408.171771 101.120956 
L 419.197188 112.781722 
L 430.222604 110.771245 
L 441.248021 115.998485 
L 452.273438 120.421534 
L 463.298854 126.452964 
L 474.324271 124.844583 
L 485.349687 149.372401 
L 496.375104 154.197545 
L 507.400521 165.054121 
L 518.425937 169.075074 
L 529.451354 176.714886 
L 540.476771 191.592415 
L 551.502187 194.407083 
L 562.527604 191.592415 
" clip-path="url(#p0a7bc3cbe5)" style="fill: none; stroke: #1f77b4; stroke-width: 1.5; stroke-linecap: round"/>
   </g>
   <g id="line2d_32">
    <path d="M 342.019271 64.932372 
L 353.044688 70.963802 
L 364.070104 68.55123 
L 375.095521 82.624568 
L 386.120938 81.016187 
L 397.146354 75.386852 
L 408.171771 87.851808 
L 419.197188 85.841331 
L 430.222604 89.058094 
L 441.248021 85.841331 
L 452.273438 92.676953 
L 463.298854 95.089525 
L 474.324271 95.893716 
L 485.349687 91.872762 
L 496.375104 96.697907 
L 507.400521 100.316765 
L 518.425937 105.544005 
L 529.451354 101.120956 
L 540.476771 97.502097 
L 551.502187 109.967054 
L 562.527604 105.544005 
" clip-path="url(#p0a7bc3cbe5)" style="fill: none; stroke: #ff7f0e; stroke-width: 1.5; stroke-linecap: round"/>
   </g>
   <g id="line2d_33">
    <path d="M 342.019271 64.932372 
L 353.044688 66.138658 
L 364.070104 62.117704 
L 375.095521 63.726086 
L 386.120938 64.530276 
L 397.146354 71.365898 
L 408.171771 66.942849 
L 419.197188 67.344944 
L 430.222604 73.376375 
L 441.248021 61.313513 
L 452.273438 68.55123 
L 463.298854 72.170089 
L 474.324271 65.334467 
L 485.349687 67.747039 
L 496.375104 66.540753 
L 507.400521 61.313513 
L 518.425937 61.715609 
L 529.451354 65.736563 
L 540.476771 66.942849 
L 551.502187 72.974279 
L 562.527604 69.355421 
" clip-path="url(#p0a7bc3cbe5)" style="fill: none; stroke: #2ca02c; stroke-width: 1.5; stroke-linecap: round"/>
   </g>
   <g id="line2d_34">
    <path d="M 342.019271 64.932372 
L 562.527604 64.932372 
" clip-path="url(#p0a7bc3cbe5)" style="fill: none; stroke: #808080; stroke-opacity: 0.5; stroke-width: 1.5; stroke-linecap: round"/>
   </g>
   <g id="patch_9">
    <path d="M 342.019271 212.2 
L 342.019271 49.25625 
" style="fill: none; stroke: #cccccc; stroke-width: 0.8; stroke-linejoin: miter; stroke-linecap: square"/>
   </g>
   <g id="patch_10">
    <path d="M 562.527604 212.2 
L 562.527604 49.25625 
" style="fill: none; stroke: #cccccc; stroke-width: 0.8; stroke-linejoin: miter; stroke-linecap: square"/>
   </g>
   <g id="patch_11">
    <path d="M 342.019271 212.2 
L 562.527604 212.2 
" style="fill: none; stroke: #cccccc; stroke-width: 0.8; stroke-linejoin: miter; stroke-linecap: square"/>
   </g>
   <g id="patch_12">
    <path d="M 342.019271 49.25625 
L 562.527604 49.25625 
" style="fill: none; stroke: #cccccc; stroke-width: 0.8; stroke-linejoin: miter; stroke-linecap: square"/>
   </g>
   <g id="text_32">
    <!-- Spirals -->
    <g style="fill: #262626" transform="translate(433.934062 43.25625) scale(0.12 -0.12)">
     <defs>
      <path id="ArialMT-70" d="M 422 -1272 
L 422 3319 
L 934 3319 
L 934 2888 
Q 1116 3141 1344 3267 
Q 1572 3394 1897 3394 
Q 2322 3394 2647 3175 
Q 2972 2956 3137 2557 
Q 3303 2159 3303 1684 
Q 3303 1175 3120 767 
Q 2938 359 2589 142 
Q 2241 -75 1856 -75 
Q 1575 -75 1351 44 
Q 1128 163 984 344 
L 984 -1272 
L 422 -1272 
z
M 931 1641 
Q 931 1000 1190 694 
Q 1450 388 1819 388 
Q 2194 388 2461 705 
Q 2728 1022 2728 1688 
Q 2728 2322 2467 2637 
Q 2206 2953 1844 2953 
Q 1484 2953 1207 2617 
Q 931 2281 931 1641 
z
" transform="scale(0.015625)"/>
     </defs>
     <use xlink:href="#ArialMT-53"/>
     <use xlink:href="#ArialMT-70" transform="translate(66.699219 0)"/>
     <use xlink:href="#ArialMT-69" transform="translate(122.314453 0)"/>
     <use xlink:href="#ArialMT-72" transform="translate(144.53125 0)"/>
     <use xlink:href="#ArialMT-61" transform="translate(177.832031 0)"/>
     <use xlink:href="#ArialMT-6c" transform="translate(233.447266 0)"/>
     <use xlink:href="#ArialMT-73" transform="translate(255.664062 0)"/>
    </g>
   </g>
  </g>
  <g id="axes_3">
   <g id="patch_13">
    <path d="M 631.152604 212.2 
L 851.660938 212.2 
L 851.660938 49.25625 
L 631.152604 49.25625 
z
" style="fill: #ffffff"/>
   </g>
   <g id="matplotlib.axis_5">
    <g id="xtick_13">
     <g id="line2d_35">
      <path d="M 631.152604 212.2 
L 631.152604 49.25625 
" clip-path="url(#p3bbc4d7590)" style="fill: none; stroke: #cccccc; stroke-width: 0.8; stroke-linecap: round"/>
     </g>
     <g id="text_33">
      <!-- 0 -->
      <g style="fill: #262626" transform="translate(628.372135 226.357813) scale(0.1 -0.1)">
       <use xlink:href="#ArialMT-30"/>
      </g>
     </g>
    </g>
    <g id="xtick_14">
     <g id="line2d_36">
      <path d="M 675.254271 212.2 
L 675.254271 49.25625 
" clip-path="url(#p3bbc4d7590)" style="fill: none; stroke: #cccccc; stroke-width: 0.8; stroke-linecap: round"/>
     </g>
     <g id="text_34">
      <!-- 1 -->
      <g style="fill: #262626" transform="translate(672.473802 226.357813) scale(0.1 -0.1)">
       <use xlink:href="#ArialMT-31"/>
      </g>
     </g>
    </g>
    <g id="xtick_15">
     <g id="line2d_37">
      <path d="M 719.355938 212.2 
L 719.355938 49.25625 
" clip-path="url(#p3bbc4d7590)" style="fill: none; stroke: #cccccc; stroke-width: 0.8; stroke-linecap: round"/>
     </g>
     <g id="text_35">
      <!-- 2 -->
      <g style="fill: #262626" transform="translate(716.575469 226.357813) scale(0.1 -0.1)">
       <use xlink:href="#ArialMT-32"/>
      </g>
     </g>
    </g>
    <g id="xtick_16">
     <g id="line2d_38">
      <path d="M 763.457604 212.2 
L 763.457604 49.25625 
" clip-path="url(#p3bbc4d7590)" style="fill: none; stroke: #cccccc; stroke-width: 0.8; stroke-linecap: round"/>
     </g>
     <g id="text_36">
      <!-- 3 -->
      <g style="fill: #262626" transform="translate(760.677135 226.357813) scale(0.1 -0.1)">
       <use xlink:href="#ArialMT-33"/>
      </g>
     </g>
    </g>
    <g id="xtick_17">
     <g id="line2d_39">
      <path d="M 807.559271 212.2 
L 807.559271 49.25625 
" clip-path="url(#p3bbc4d7590)" style="fill: none; stroke: #cccccc; stroke-width: 0.8; stroke-linecap: round"/>
     </g>
     <g id="text_37">
      <!-- 4 -->
      <g style="fill: #262626" transform="translate(804.778802 226.357813) scale(0.1 -0.1)">
       <use xlink:href="#ArialMT-34"/>
      </g>
     </g>
    </g>
    <g id="xtick_18">
     <g id="line2d_40">
      <path d="M 851.660938 212.2 
L 851.660938 49.25625 
" clip-path="url(#p3bbc4d7590)" style="fill: none; stroke: #cccccc; stroke-width: 0.8; stroke-linecap: round"/>
     </g>
     <g id="text_38">
      <!-- 5 -->
      <g style="fill: #262626" transform="translate(848.880469 226.357813) scale(0.1 -0.1)">
       <use xlink:href="#ArialMT-35"/>
      </g>
     </g>
    </g>
    <g id="text_39">
     <!-- % Data Removed -->
     <g style="fill: #262626" transform="translate(702.223958 239.503125) scale(0.1 -0.1)">
      <use xlink:href="#ArialMT-25"/>
      <use xlink:href="#ArialMT-20" transform="translate(88.916016 0)"/>
      <use xlink:href="#ArialMT-44" transform="translate(116.699219 0)"/>
      <use xlink:href="#ArialMT-61" transform="translate(188.916016 0)"/>
      <use xlink:href="#ArialMT-74" transform="translate(244.53125 0)"/>
      <use xlink:href="#ArialMT-61" transform="translate(272.314453 0)"/>
      <use xlink:href="#ArialMT-20" transform="translate(327.929688 0)"/>
      <use xlink:href="#ArialMT-52" transform="translate(355.712891 0)"/>
      <use xlink:href="#ArialMT-65" transform="translate(427.929688 0)"/>
      <use xlink:href="#ArialMT-6d" transform="translate(483.544922 0)"/>
      <use xlink:href="#ArialMT-6f" transform="translate(566.845703 0)"/>
      <use xlink:href="#ArialMT-76" transform="translate(622.460938 0)"/>
      <use xlink:href="#ArialMT-65" transform="translate(672.460938 0)"/>
      <use xlink:href="#ArialMT-64" transform="translate(728.076172 0)"/>
     </g>
    </g>
   </g>
   <g id="matplotlib.axis_6">
    <g id="ytick_12">
     <g id="line2d_41">
      <path d="M 631.152604 198.819362 
L 851.660938 198.819362 
" clip-path="url(#p3bbc4d7590)" style="fill: none; stroke: #cccccc; stroke-width: 0.8; stroke-linecap: round"/>
     </g>
     <g id="text_40">
      <!-- −0.3 -->
      <g style="fill: #262626" transform="translate(604.411979 202.398268) scale(0.1 -0.1)">
       <use xlink:href="#ArialMT-2212"/>
       <use xlink:href="#ArialMT-30" transform="translate(58.398438 0)"/>
       <use xlink:href="#ArialMT-2e" transform="translate(114.013672 0)"/>
       <use xlink:href="#ArialMT-33" transform="translate(141.796875 0)"/>
      </g>
     </g>
    </g>
    <g id="ytick_13">
     <g id="line2d_42">
      <path d="M 631.152604 176.796871 
L 851.660938 176.796871 
" clip-path="url(#p3bbc4d7590)" style="fill: none; stroke: #cccccc; stroke-width: 0.8; stroke-linecap: round"/>
     </g>
     <g id="text_41">
      <!-- −0.2 -->
      <g style="fill: #262626" transform="translate(604.411979 180.375777) scale(0.1 -0.1)">
       <use xlink:href="#ArialMT-2212"/>
       <use xlink:href="#ArialMT-30" transform="translate(58.398438 0)"/>
       <use xlink:href="#ArialMT-2e" transform="translate(114.013672 0)"/>
       <use xlink:href="#ArialMT-32" transform="translate(141.796875 0)"/>
      </g>
     </g>
    </g>
    <g id="ytick_14">
     <g id="line2d_43">
      <path d="M 631.152604 154.77438 
L 851.660938 154.77438 
" clip-path="url(#p3bbc4d7590)" style="fill: none; stroke: #cccccc; stroke-width: 0.8; stroke-linecap: round"/>
     </g>
     <g id="text_42">
      <!-- −0.1 -->
      <g style="fill: #262626" transform="translate(604.411979 158.353286) scale(0.1 -0.1)">
       <use xlink:href="#ArialMT-2212"/>
       <use xlink:href="#ArialMT-30" transform="translate(58.398438 0)"/>
       <use xlink:href="#ArialMT-2e" transform="translate(114.013672 0)"/>
       <use xlink:href="#ArialMT-31" transform="translate(141.796875 0)"/>
      </g>
     </g>
    </g>
    <g id="ytick_15">
     <g id="line2d_44">
      <path d="M 631.152604 132.751889 
L 851.660938 132.751889 
" clip-path="url(#p3bbc4d7590)" style="fill: none; stroke: #cccccc; stroke-width: 0.8; stroke-linecap: round"/>
     </g>
     <g id="text_43">
      <!-- 0.0 -->
      <g style="fill: #262626" transform="translate(610.252604 136.330795) scale(0.1 -0.1)">
       <use xlink:href="#ArialMT-30"/>
       <use xlink:href="#ArialMT-2e" transform="translate(55.615234 0)"/>
       <use xlink:href="#ArialMT-30" transform="translate(83.398438 0)"/>
      </g>
     </g>
    </g>
    <g id="ytick_16">
     <g id="line2d_45">
      <path d="M 631.152604 110.729397 
L 851.660938 110.729397 
" clip-path="url(#p3bbc4d7590)" style="fill: none; stroke: #cccccc; stroke-width: 0.8; stroke-linecap: round"/>
     </g>
     <g id="text_44">
      <!-- 0.1 -->
      <g style="fill: #262626" transform="translate(610.252604 114.308304) scale(0.1 -0.1)">
       <use xlink:href="#ArialMT-30"/>
       <use xlink:href="#ArialMT-2e" transform="translate(55.615234 0)"/>
       <use xlink:href="#ArialMT-31" transform="translate(83.398438 0)"/>
      </g>
     </g>
    </g>
    <g id="ytick_17">
     <g id="line2d_46">
      <path d="M 631.152604 88.706906 
L 851.660938 88.706906 
" clip-path="url(#p3bbc4d7590)" style="fill: none; stroke: #cccccc; stroke-width: 0.8; stroke-linecap: round"/>
     </g>
     <g id="text_45">
      <!-- 0.2 -->
      <g style="fill: #262626" transform="translate(610.252604 92.285812) scale(0.1 -0.1)">
       <use xlink:href="#ArialMT-30"/>
       <use xlink:href="#ArialMT-2e" transform="translate(55.615234 0)"/>
       <use xlink:href="#ArialMT-32" transform="translate(83.398438 0)"/>
      </g>
     </g>
    </g>
    <g id="ytick_18">
     <g id="line2d_47">
      <path d="M 631.152604 66.684415 
L 851.660938 66.684415 
" clip-path="url(#p3bbc4d7590)" style="fill: none; stroke: #cccccc; stroke-width: 0.8; stroke-linecap: round"/>
     </g>
     <g id="text_46">
      <!-- 0.3 -->
      <g style="fill: #262626" transform="translate(610.252604 70.263321) scale(0.1 -0.1)">
       <use xlink:href="#ArialMT-30"/>
       <use xlink:href="#ArialMT-2e" transform="translate(55.615234 0)"/>
       <use xlink:href="#ArialMT-33" transform="translate(83.398438 0)"/>
      </g>
     </g>
    </g>
    <g id="text_47">
     <!-- Δ Accuracy in % -->
     <g style="fill: #262626" transform="translate(598.307292 166.583594) rotate(-90) scale(0.1 -0.1)">
      <use xlink:href="#ArialMT-394"/>
      <use xlink:href="#ArialMT-20" transform="translate(61.296875 0)"/>
      <use xlink:href="#ArialMT-41" transform="translate(83.580078 0)"/>
      <use xlink:href="#ArialMT-63" transform="translate(150.279297 0)"/>
      <use xlink:href="#ArialMT-63" transform="translate(200.279297 0)"/>
      <use xlink:href="#ArialMT-75" transform="translate(250.279297 0)"/>
      <use xlink:href="#ArialMT-72" transform="translate(305.894531 0)"/>
      <use xlink:href="#ArialMT-61" transform="translate(339.195312 0)"/>
      <use xlink:href="#ArialMT-63" transform="translate(394.810547 0)"/>
      <use xlink:href="#ArialMT-79" transform="translate(444.810547 0)"/>
      <use xlink:href="#ArialMT-20" transform="translate(494.810547 0)"/>
      <use xlink:href="#ArialMT-69" transform="translate(522.59375 0)"/>
      <use xlink:href="#ArialMT-6e" transform="translate(544.810547 0)"/>
      <use xlink:href="#ArialMT-20" transform="translate(600.425781 0)"/>
      <use xlink:href="#ArialMT-25" transform="translate(628.208984 0)"/>
     </g>
    </g>
   </g>
   <g id="FillBetweenPolyCollection_7">
    <defs>
     <path id="ma7993d8661" d="M 631.152604 -127.510065 
L 631.152604 -104.367408 
L 642.178021 -142.974895 
L 653.203438 -95.062715 
L 664.228854 -119.246958 
L 675.254271 -150.765392 
L 686.279688 -191.115228 
L 697.305104 -173.265416 
L 708.330521 -143.864916 
L 719.355938 -138.639983 
L 730.381354 -185.183244 
L 741.406771 -130.868569 
L 752.432188 -172.04087 
L 763.457604 -137.750419 
L 774.483021 -132.251693 
L 785.508438 -82.514287 
L 796.533854 -122.742933 
L 807.559271 -84.587581 
L 818.584688 -43.897159 
L 829.610104 -70.290351 
L 840.635521 -105.329611 
L 851.660938 -69.031615 
L 851.660938 -73.866095 
L 851.660938 -73.866095 
L 840.635521 -114.227587 
L 829.610104 -73.976279 
L 818.584688 -48.350533 
L 807.559271 -89.795276 
L 796.533854 -127.614952 
L 785.508438 -85.708432 
L 774.483021 -137.271064 
L 763.457604 -139.985855 
L 752.432188 -174.825835 
L 741.406771 -134.547429 
L 730.381354 -187.00847 
L 719.355938 -141.834129 
L 708.330521 -146.191632 
L 697.305104 -174.285748 
L 686.279688 -192.027841 
L 675.254271 -152.295891 
L 664.228854 -120.159571 
L 653.203438 -95.062715 
L 642.178021 -142.974895 
L 631.152604 -127.510065 
z
" style="stroke: #ffffff; stroke-opacity: 0.2"/>
    </defs>
    <g clip-path="url(#p3bbc4d7590)">
     <use xlink:href="#ma7993d8661" x="0" y="248.690625" style="fill: #1f77b4; fill-opacity: 0.2; stroke: #ffffff; stroke-opacity: 0.2"/>
    </g>
   </g>
   <g id="FillBetweenPolyCollection_8">
    <defs>
     <path id="m52ca4f6984" d="M 631.152604 -127.510065 
L 631.152604 -104.367408 
L 642.178021 -108.393498 
L 653.203438 -89.951473 
L 664.228854 -97.410889 
L 675.254271 -109.696509 
L 686.279688 -116.511157 
L 697.305104 -105.755667 
L 708.330521 -92.814135 
L 719.355938 -109.837858 
L 730.381354 -105.344248 
L 741.406771 -73.813384 
L 752.432188 -108.985629 
L 763.457604 -93.033015 
L 774.483021 -91.40035 
L 785.508438 -97.705326 
L 796.533854 -90.337433 
L 807.559271 -87.739914 
L 818.584688 -87.546347 
L 829.610104 -90.550901 
L 840.635521 -84.875624 
L 851.660938 -78.419175 
L 851.660938 -100.7549 
L 851.660938 -100.7549 
L 840.635521 -114.147782 
L 829.610104 -105.734666 
L 818.584688 -99.841245 
L 807.559271 -99.647677 
L 796.533854 -125.797467 
L 785.508438 -121.851872 
L 774.483021 -121.996711 
L 763.457604 -123.786345 
L 752.432188 -127.683062 
L 741.406771 -103.991771 
L 730.381354 -123.110926 
L 719.355938 -128.884212 
L 708.330521 -116.476167 
L 697.305104 -131.597483 
L 686.279688 -142.060245 
L 675.254271 -132.44786 
L 664.228854 -120.77739 
L 653.203438 -110.440853 
L 642.178021 -126.906274 
L 631.152604 -127.510065 
z
" style="stroke: #ffffff; stroke-opacity: 0.2"/>
    </defs>
    <g clip-path="url(#p3bbc4d7590)">
     <use xlink:href="#m52ca4f6984" x="0" y="248.690625" style="fill: #ff7f0e; fill-opacity: 0.2; stroke: #ffffff; stroke-opacity: 0.2"/>
    </g>
   </g>
   <g id="FillBetweenPolyCollection_9">
    <defs>
     <path id="md41875d4e0" d="M 631.152604 -127.510065 
L 631.152604 -104.367408 
L 642.178021 -110.660626 
L 653.203438 -121.651466 
L 664.228854 -102.402113 
L 675.254271 -101.731039 
L 686.279688 -89.953737 
L 697.305104 -92.790537 
L 708.330521 -90.424706 
L 719.355938 -93.790218 
L 730.381354 -104.490262 
L 741.406771 -98.927775 
L 752.432188 -89.039376 
L 763.457604 -89.128976 
L 774.483021 -86.315653 
L 785.508438 -108.513841 
L 796.533854 -92.746316 
L 807.559271 -86.210925 
L 818.584688 -89.48712 
L 829.610104 -87.300988 
L 840.635521 -97.092216 
L 851.660938 -76.102343 
L 851.660938 -100.333893 
L 851.660938 -100.333893 
L 840.635521 -121.096062 
L 829.610104 -110.353499 
L 818.584688 -119.803182 
L 807.559271 -108.705723 
L 796.533854 -115.175067 
L 785.508438 -129.523769 
L 774.483021 -110.654375 
L 763.457604 -118.792407 
L 752.432188 -111.35295 
L 741.406771 -121.998343 
L 730.381354 -133.547348 
L 719.355938 -119.606843 
L 708.330521 -111.33654 
L 697.305104 -120.606524 
L 686.279688 -113.860887 
L 675.254271 -113.719401 
L 664.228854 -123.999682 
L 653.203438 -146.502371 
L 642.178021 -141.750638 
L 631.152604 -127.510065 
z
" style="stroke: #ffffff; stroke-opacity: 0.2"/>
    </defs>
    <g clip-path="url(#p3bbc4d7590)">
     <use xlink:href="#md41875d4e0" x="0" y="248.690625" style="fill: #2ca02c; fill-opacity: 0.2; stroke: #ffffff; stroke-opacity: 0.2"/>
    </g>
   </g>
   <g id="line2d_48">
    <path d="M 631.152604 132.751889 
L 642.178021 105.71573 
L 653.203438 153.62791 
L 664.228854 128.98736 
L 675.254271 97.159984 
L 686.279688 57.119091 
L 697.305104 74.915043 
L 708.330521 103.662351 
L 719.355938 108.453569 
L 730.381354 62.594768 
L 741.406771 115.982626 
L 752.432188 75.257273 
L 763.457604 109.822488 
L 774.483021 113.929247 
L 785.508438 164.579265 
L 796.533854 123.511683 
L 807.559271 161.499196 
L 818.584688 202.566779 
L 829.610104 176.55731 
L 840.635521 138.912026 
L 851.660938 177.24177 
" clip-path="url(#p3bbc4d7590)" style="fill: none; stroke: #1f77b4; stroke-width: 1.5; stroke-linecap: round"/>
   </g>
   <g id="line2d_49">
    <path d="M 631.152604 132.751889 
L 642.178021 131.040739 
L 653.203438 148.494462 
L 664.228854 139.596486 
L 675.254271 127.618441 
L 686.279688 119.404924 
L 697.305104 130.01405 
L 708.330521 144.045474 
L 719.355938 129.32959 
L 730.381354 134.463038 
L 741.406771 159.788047 
L 752.432188 130.35628 
L 763.457604 140.280945 
L 774.483021 141.992095 
L 785.508438 138.912026 
L 796.533854 140.623175 
L 807.559271 154.996829 
L 818.584688 154.996829 
L 829.610104 150.547841 
L 840.635521 149.178922 
L 851.660938 159.103588 
" clip-path="url(#p3bbc4d7590)" style="fill: none; stroke: #ff7f0e; stroke-width: 1.5; stroke-linecap: round"/>
   </g>
   <g id="line2d_50">
    <path d="M 631.152604 132.751889 
L 642.178021 122.484993 
L 653.203438 114.613706 
L 664.228854 135.489727 
L 675.254271 140.965405 
L 686.279688 146.783313 
L 697.305104 141.992095 
L 708.330521 147.810002 
L 719.355938 141.992095 
L 730.381354 129.67182 
L 741.406771 138.227566 
L 752.432188 148.494462 
L 763.457604 144.729934 
L 774.483021 150.205611 
L 785.508438 129.67182 
L 796.533854 144.729934 
L 807.559271 151.232301 
L 818.584688 144.045474 
L 829.610104 149.863381 
L 840.635521 139.596486 
L 851.660938 160.472507 
" clip-path="url(#p3bbc4d7590)" style="fill: none; stroke: #2ca02c; stroke-width: 1.5; stroke-linecap: round"/>
   </g>
   <g id="line2d_51">
    <path d="M 631.152604 132.751889 
L 851.660938 132.751889 
" clip-path="url(#p3bbc4d7590)" style="fill: none; stroke: #808080; stroke-opacity: 0.5; stroke-width: 1.5; stroke-linecap: round"/>
   </g>
   <g id="patch_14">
    <path d="M 631.152604 212.2 
L 631.152604 49.25625 
" style="fill: none; stroke: #cccccc; stroke-width: 0.8; stroke-linejoin: miter; stroke-linecap: square"/>
   </g>
   <g id="patch_15">
    <path d="M 851.660938 212.2 
L 851.660938 49.25625 
" style="fill: none; stroke: #cccccc; stroke-width: 0.8; stroke-linejoin: miter; stroke-linecap: square"/>
   </g>
   <g id="patch_16">
    <path d="M 631.152604 212.2 
L 851.660938 212.2 
" style="fill: none; stroke: #cccccc; stroke-width: 0.8; stroke-linejoin: miter; stroke-linecap: square"/>
   </g>
   <g id="patch_17">
    <path d="M 631.152604 49.25625 
L 851.660938 49.25625 
" style="fill: none; stroke: #cccccc; stroke-width: 0.8; stroke-linejoin: miter; stroke-linecap: square"/>
   </g>
   <g id="text_48">
    <!-- Satelite -->
    <g style="fill: #262626" transform="translate(721.394896 43.25625) scale(0.12 -0.12)">
     <use xlink:href="#ArialMT-53"/>
     <use xlink:href="#ArialMT-61" transform="translate(66.699219 0)"/>
     <use xlink:href="#ArialMT-74" transform="translate(122.314453 0)"/>
     <use xlink:href="#ArialMT-65" transform="translate(150.097656 0)"/>
     <use xlink:href="#ArialMT-6c" transform="translate(205.712891 0)"/>
     <use xlink:href="#ArialMT-69" transform="translate(227.929688 0)"/>
     <use xlink:href="#ArialMT-74" transform="translate(250.146484 0)"/>
     <use xlink:href="#ArialMT-65" transform="translate(277.929688 0)"/>
    </g>
   </g>
  </g>
  <g id="text_49">
   <!-- Error Removal for Uniform 0% Noise -->
   <g style="fill: #262626" transform="translate(335.85125 15.789375) scale(0.12 -0.12)">
    <defs>
     <path id="ArialMT-45" d="M 506 0 
L 506 4581 
L 3819 4581 
L 3819 4041 
L 1113 4041 
L 1113 2638 
L 3647 2638 
L 3647 2100 
L 1113 2100 
L 1113 541 
L 3925 541 
L 3925 0 
L 506 0 
z
" transform="scale(0.015625)"/>
     <path id="ArialMT-4e" d="M 488 0 
L 488 4581 
L 1109 4581 
L 3516 984 
L 3516 4581 
L 4097 4581 
L 4097 0 
L 3475 0 
L 1069 3600 
L 1069 0 
L 488 0 
z
" transform="scale(0.015625)"/>
    </defs>
    <use xlink:href="#ArialMT-45"/>
    <use xlink:href="#ArialMT-72" transform="translate(66.699219 0)"/>
    <use xlink:href="#ArialMT-72" transform="translate(100 0)"/>
    <use xlink:href="#ArialMT-6f" transform="translate(133.300781 0)"/>
    <use xlink:href="#ArialMT-72" transform="translate(188.916016 0)"/>
    <use xlink:href="#ArialMT-20" transform="translate(222.216797 0)"/>
    <use xlink:href="#ArialMT-52" transform="translate(250 0)"/>
    <use xlink:href="#ArialMT-65" transform="translate(322.216797 0)"/>
    <use xlink:href="#ArialMT-6d" transform="translate(377.832031 0)"/>
    <use xlink:href="#ArialMT-6f" transform="translate(461.132812 0)"/>
    <use xlink:href="#ArialMT-76" transform="translate(516.748047 0)"/>
    <use xlink:href="#ArialMT-61" transform="translate(566.748047 0)"/>
    <use xlink:href="#ArialMT-6c" transform="translate(622.363281 0)"/>
    <use xlink:href="#ArialMT-20" transform="translate(644.580078 0)"/>
    <use xlink:href="#ArialMT-66" transform="translate(672.363281 0)"/>
    <use xlink:href="#ArialMT-6f" transform="translate(700.146484 0)"/>
    <use xlink:href="#ArialMT-72" transform="translate(755.761719 0)"/>
    <use xlink:href="#ArialMT-20" transform="translate(789.0625 0)"/>
    <use xlink:href="#ArialMT-55" transform="translate(816.845703 0)"/>
    <use xlink:href="#ArialMT-6e" transform="translate(889.0625 0)"/>
    <use xlink:href="#ArialMT-69" transform="translate(944.677734 0)"/>
    <use xlink:href="#ArialMT-66" transform="translate(966.894531 0)"/>
    <use xlink:href="#ArialMT-6f" transform="translate(994.677734 0)"/>
    <use xlink:href="#ArialMT-72" transform="translate(1050.292969 0)"/>
    <use xlink:href="#ArialMT-6d" transform="translate(1083.59375 0)"/>
    <use xlink:href="#ArialMT-20" transform="translate(1166.894531 0)"/>
    <use xlink:href="#ArialMT-30" transform="translate(1194.677734 0)"/>
    <use xlink:href="#ArialMT-25" transform="translate(1250.292969 0)"/>
    <use xlink:href="#ArialMT-20" transform="translate(1339.208984 0)"/>
    <use xlink:href="#ArialMT-4e" transform="translate(1366.992188 0)"/>
    <use xlink:href="#ArialMT-6f" transform="translate(1439.208984 0)"/>
    <use xlink:href="#ArialMT-69" transform="translate(1494.824219 0)"/>
    <use xlink:href="#ArialMT-73" transform="translate(1517.041016 0)"/>
    <use xlink:href="#ArialMT-65" transform="translate(1567.041016 0)"/>
   </g>
  </g>
 </g>
 <defs>
  <clipPath id="p159ccb1227">
   <rect x="52.885938" y="49.25625" width="220.508333" height="162.94375"/>
  </clipPath>
  <clipPath id="p0a7bc3cbe5">
   <rect x="342.019271" y="49.25625" width="220.508333" height="162.94375"/>
  </clipPath>
  <clipPath id="p3bbc4d7590">
   <rect x="631.152604" y="49.25625" width="220.508333" height="162.94375"/>
  </clipPath>
 </defs>
</svg>
