<?xml version="1.0" encoding="utf-8" standalone="no"?>
<!DOCTYPE svg PUBLIC "-//W3C//DTD SVG 1.1//EN"
  "http://www.w3.org/Graphics/SVG/1.1/DTD/svg11.dtd">
<svg xmlns:xlink="http://www.w3.org/1999/xlink" width="861.641406pt" height="248.690625pt" viewBox="0 0 861.641406 248.690625" xmlns="http://www.w3.org/2000/svg" version="1.1">
 <metadata>
  <rdf:RDF xmlns:dc="http://purl.org/dc/elements/1.1/" xmlns:cc="http://creativecommons.org/ns#" xmlns:rdf="http://www.w3.org/1999/02/22-rdf-syntax-ns#">
   <cc:Work>
    <dc:type rdf:resource="http://purl.org/dc/dcmitype/StillImage"/>
    <dc:date>2025-01-14T16:06:55.245164</dc:date>
    <dc:format>image/svg+xml</dc:format>
    <dc:creator>
     <cc:Agent>
      <dc:title>Matplotlib v3.10.0, https://matplotlib.org/</dc:title>
     </cc:Agent>
    </dc:creator>
   </cc:Work>
  </rdf:RDF>
 </metadata>
 <defs>
  <style type="text/css">*{stroke-linejoin: round; stroke-linecap: butt}</style>
 </defs>
 <g id="figure_1">
  <g id="patch_1">
   <path d="M 0 248.690625 
L 861.641406 248.690625 
L 861.641406 0 
L 0 0 
z
" style="fill: #ffffff"/>
  </g>
  <g id="axes_1">
   <g id="patch_2">
    <path d="M 52.885938 212.2 
L 273.394271 212.2 
L 273.394271 49.3125 
L 52.885938 49.3125 
z
" style="fill: #ffffff"/>
   </g>
   <g id="matplotlib.axis_1">
    <g id="xtick_1">
     <g id="line2d_1">
      <path d="M 52.885938 212.2 
L 52.885938 49.3125 
" clip-path="url(#p51bbad8d33)" style="fill: none; stroke: #cccccc; stroke-width: 0.8; stroke-linecap: round"/>
     </g>
     <g id="text_1">
      <!-- 0 -->
      <g style="fill: #262626" transform="translate(50.105469 226.357813) scale(0.1 -0.1)">
       <defs>
        <path id="ArialMT-30" d="M 266 2259 
Q 266 3072 433 3567 
Q 600 4063 929 4331 
Q 1259 4600 1759 4600 
Q 2128 4600 2406 4451 
Q 2684 4303 2865 4023 
Q 3047 3744 3150 3342 
Q 3253 2941 3253 2259 
Q 3253 1453 3087 958 
Q 2922 463 2592 192 
Q 2263 -78 1759 -78 
Q 1097 -78 719 397 
Q 266 969 266 2259 
z
M 844 2259 
Q 844 1131 1108 757 
Q 1372 384 1759 384 
Q 2147 384 2411 759 
Q 2675 1134 2675 2259 
Q 2675 3391 2411 3762 
Q 2147 4134 1753 4134 
Q 1366 4134 1134 3806 
Q 844 3388 844 2259 
z
" transform="scale(0.015625)"/>
       </defs>
       <use xlink:href="#ArialMT-30"/>
      </g>
     </g>
    </g>
    <g id="xtick_2">
     <g id="line2d_2">
      <path d="M 96.987604 212.2 
L 96.987604 49.3125 
" clip-path="url(#p51bbad8d33)" style="fill: none; stroke: #cccccc; stroke-width: 0.8; stroke-linecap: round"/>
     </g>
     <g id="text_2">
      <!-- 1 -->
      <g style="fill: #262626" transform="translate(94.207135 226.357813) scale(0.1 -0.1)">
       <defs>
        <path id="ArialMT-31" d="M 2384 0 
L 1822 0 
L 1822 3584 
Q 1619 3391 1289 3197 
Q 959 3003 697 2906 
L 697 3450 
Q 1169 3672 1522 3987 
Q 1875 4303 2022 4600 
L 2384 4600 
L 2384 0 
z
" transform="scale(0.015625)"/>
       </defs>
       <use xlink:href="#ArialMT-31"/>
      </g>
     </g>
    </g>
    <g id="xtick_3">
     <g id="line2d_3">
      <path d="M 141.089271 212.2 
L 141.089271 49.3125 
" clip-path="url(#p51bbad8d33)" style="fill: none; stroke: #cccccc; stroke-width: 0.8; stroke-linecap: round"/>
     </g>
     <g id="text_3">
      <!-- 2 -->
      <g style="fill: #262626" transform="translate(138.308802 226.357813) scale(0.1 -0.1)">
       <defs>
        <path id="ArialMT-32" d="M 3222 541 
L 3222 0 
L 194 0 
Q 188 203 259 391 
Q 375 700 629 1000 
Q 884 1300 1366 1694 
Q 2113 2306 2375 2664 
Q 2638 3022 2638 3341 
Q 2638 3675 2398 3904 
Q 2159 4134 1775 4134 
Q 1369 4134 1125 3890 
Q 881 3647 878 3216 
L 300 3275 
Q 359 3922 746 4261 
Q 1134 4600 1788 4600 
Q 2447 4600 2831 4234 
Q 3216 3869 3216 3328 
Q 3216 3053 3103 2787 
Q 2991 2522 2730 2228 
Q 2469 1934 1863 1422 
Q 1356 997 1212 845 
Q 1069 694 975 541 
L 3222 541 
z
" transform="scale(0.015625)"/>
       </defs>
       <use xlink:href="#ArialMT-32"/>
      </g>
     </g>
    </g>
    <g id="xtick_4">
     <g id="line2d_4">
      <path d="M 185.190938 212.2 
L 185.190938 49.3125 
" clip-path="url(#p51bbad8d33)" style="fill: none; stroke: #cccccc; stroke-width: 0.8; stroke-linecap: round"/>
     </g>
     <g id="text_4">
      <!-- 3 -->
      <g style="fill: #262626" transform="translate(182.410469 226.357813) scale(0.1 -0.1)">
       <defs>
        <path id="ArialMT-33" d="M 269 1209 
L 831 1284 
Q 928 806 1161 595 
Q 1394 384 1728 384 
Q 2125 384 2398 659 
Q 2672 934 2672 1341 
Q 2672 1728 2419 1979 
Q 2166 2231 1775 2231 
Q 1616 2231 1378 2169 
L 1441 2663 
Q 1497 2656 1531 2656 
Q 1891 2656 2178 2843 
Q 2466 3031 2466 3422 
Q 2466 3731 2256 3934 
Q 2047 4138 1716 4138 
Q 1388 4138 1169 3931 
Q 950 3725 888 3313 
L 325 3413 
Q 428 3978 793 4289 
Q 1159 4600 1703 4600 
Q 2078 4600 2393 4439 
Q 2709 4278 2876 4000 
Q 3044 3722 3044 3409 
Q 3044 3113 2884 2869 
Q 2725 2625 2413 2481 
Q 2819 2388 3044 2092 
Q 3269 1797 3269 1353 
Q 3269 753 2831 336 
Q 2394 -81 1725 -81 
Q 1122 -81 723 278 
Q 325 638 269 1209 
z
" transform="scale(0.015625)"/>
       </defs>
       <use xlink:href="#ArialMT-33"/>
      </g>
     </g>
    </g>
    <g id="xtick_5">
     <g id="line2d_5">
      <path d="M 229.292604 212.2 
L 229.292604 49.3125 
" clip-path="url(#p51bbad8d33)" style="fill: none; stroke: #cccccc; stroke-width: 0.8; stroke-linecap: round"/>
     </g>
     <g id="text_5">
      <!-- 4 -->
      <g style="fill: #262626" transform="translate(226.512135 226.357813) scale(0.1 -0.1)">
       <defs>
        <path id="ArialMT-34" d="M 2069 0 
L 2069 1097 
L 81 1097 
L 81 1613 
L 2172 4581 
L 2631 4581 
L 2631 1613 
L 3250 1613 
L 3250 1097 
L 2631 1097 
L 2631 0 
L 2069 0 
z
M 2069 1613 
L 2069 3678 
L 634 1613 
L 2069 1613 
z
" transform="scale(0.015625)"/>
       </defs>
       <use xlink:href="#ArialMT-34"/>
      </g>
     </g>
    </g>
    <g id="xtick_6">
     <g id="line2d_6">
      <path d="M 273.394271 212.2 
L 273.394271 49.3125 
" clip-path="url(#p51bbad8d33)" style="fill: none; stroke: #cccccc; stroke-width: 0.8; stroke-linecap: round"/>
     </g>
     <g id="text_6">
      <!-- 5 -->
      <g style="fill: #262626" transform="translate(270.613802 226.357813) scale(0.1 -0.1)">
       <defs>
        <path id="ArialMT-35" d="M 266 1200 
L 856 1250 
Q 922 819 1161 601 
Q 1400 384 1738 384 
Q 2144 384 2425 690 
Q 2706 997 2706 1503 
Q 2706 1984 2436 2262 
Q 2166 2541 1728 2541 
Q 1456 2541 1237 2417 
Q 1019 2294 894 2097 
L 366 2166 
L 809 4519 
L 3088 4519 
L 3088 3981 
L 1259 3981 
L 1013 2750 
Q 1425 3038 1878 3038 
Q 2478 3038 2890 2622 
Q 3303 2206 3303 1553 
Q 3303 931 2941 478 
Q 2500 -78 1738 -78 
Q 1113 -78 717 272 
Q 322 622 266 1200 
z
" transform="scale(0.015625)"/>
       </defs>
       <use xlink:href="#ArialMT-35"/>
      </g>
     </g>
    </g>
    <g id="text_7">
     <!-- % Data Removed -->
     <g style="fill: #262626" transform="translate(123.957292 239.503125) scale(0.1 -0.1)">
      <defs>
       <path id="ArialMT-25" d="M 372 3481 
Q 372 3972 619 4315 
Q 866 4659 1334 4659 
Q 1766 4659 2048 4351 
Q 2331 4044 2331 3447 
Q 2331 2866 2045 2552 
Q 1759 2238 1341 2238 
Q 925 2238 648 2547 
Q 372 2856 372 3481 
z
M 1350 4272 
Q 1141 4272 1002 4090 
Q 863 3909 863 3425 
Q 863 2984 1003 2804 
Q 1144 2625 1350 2625 
Q 1563 2625 1702 2806 
Q 1841 2988 1841 3469 
Q 1841 3913 1700 4092 
Q 1559 4272 1350 4272 
z
M 1353 -169 
L 3859 4659 
L 4316 4659 
L 1819 -169 
L 1353 -169 
z
M 3334 1075 
Q 3334 1569 3581 1911 
Q 3828 2253 4300 2253 
Q 4731 2253 5014 1945 
Q 5297 1638 5297 1041 
Q 5297 459 5011 145 
Q 4725 -169 4303 -169 
Q 3888 -169 3611 142 
Q 3334 453 3334 1075 
z
M 4316 1866 
Q 4103 1866 3964 1684 
Q 3825 1503 3825 1019 
Q 3825 581 3965 400 
Q 4106 219 4313 219 
Q 4528 219 4667 400 
Q 4806 581 4806 1063 
Q 4806 1506 4665 1686 
Q 4525 1866 4316 1866 
z
" transform="scale(0.015625)"/>
       <path id="ArialMT-20" transform="scale(0.015625)"/>
       <path id="ArialMT-44" d="M 494 0 
L 494 4581 
L 2072 4581 
Q 2606 4581 2888 4516 
Q 3281 4425 3559 4188 
Q 3922 3881 4101 3404 
Q 4281 2928 4281 2316 
Q 4281 1794 4159 1391 
Q 4038 988 3847 723 
Q 3656 459 3429 307 
Q 3203 156 2883 78 
Q 2563 0 2147 0 
L 494 0 
z
M 1100 541 
L 2078 541 
Q 2531 541 2789 625 
Q 3047 709 3200 863 
Q 3416 1078 3536 1442 
Q 3656 1806 3656 2325 
Q 3656 3044 3420 3430 
Q 3184 3816 2847 3947 
Q 2603 4041 2063 4041 
L 1100 4041 
L 1100 541 
z
" transform="scale(0.015625)"/>
       <path id="ArialMT-61" d="M 2588 409 
Q 2275 144 1986 34 
Q 1697 -75 1366 -75 
Q 819 -75 525 192 
Q 231 459 231 875 
Q 231 1119 342 1320 
Q 453 1522 633 1644 
Q 813 1766 1038 1828 
Q 1203 1872 1538 1913 
Q 2219 1994 2541 2106 
Q 2544 2222 2544 2253 
Q 2544 2597 2384 2738 
Q 2169 2928 1744 2928 
Q 1347 2928 1158 2789 
Q 969 2650 878 2297 
L 328 2372 
Q 403 2725 575 2942 
Q 747 3159 1072 3276 
Q 1397 3394 1825 3394 
Q 2250 3394 2515 3294 
Q 2781 3194 2906 3042 
Q 3031 2891 3081 2659 
Q 3109 2516 3109 2141 
L 3109 1391 
Q 3109 606 3145 398 
Q 3181 191 3288 0 
L 2700 0 
Q 2613 175 2588 409 
z
M 2541 1666 
Q 2234 1541 1622 1453 
Q 1275 1403 1131 1340 
Q 988 1278 909 1158 
Q 831 1038 831 891 
Q 831 666 1001 516 
Q 1172 366 1500 366 
Q 1825 366 2078 508 
Q 2331 650 2450 897 
Q 2541 1088 2541 1459 
L 2541 1666 
z
" transform="scale(0.015625)"/>
       <path id="ArialMT-74" d="M 1650 503 
L 1731 6 
Q 1494 -44 1306 -44 
Q 1000 -44 831 53 
Q 663 150 594 308 
Q 525 466 525 972 
L 525 2881 
L 113 2881 
L 113 3319 
L 525 3319 
L 525 4141 
L 1084 4478 
L 1084 3319 
L 1650 3319 
L 1650 2881 
L 1084 2881 
L 1084 941 
Q 1084 700 1114 631 
Q 1144 563 1211 522 
Q 1278 481 1403 481 
Q 1497 481 1650 503 
z
" transform="scale(0.015625)"/>
       <path id="ArialMT-52" d="M 503 0 
L 503 4581 
L 2534 4581 
Q 3147 4581 3465 4457 
Q 3784 4334 3975 4021 
Q 4166 3709 4166 3331 
Q 4166 2844 3850 2509 
Q 3534 2175 2875 2084 
Q 3116 1969 3241 1856 
Q 3506 1613 3744 1247 
L 4541 0 
L 3778 0 
L 3172 953 
Q 2906 1366 2734 1584 
Q 2563 1803 2427 1890 
Q 2291 1978 2150 2013 
Q 2047 2034 1813 2034 
L 1109 2034 
L 1109 0 
L 503 0 
z
M 1109 2559 
L 2413 2559 
Q 2828 2559 3062 2645 
Q 3297 2731 3419 2920 
Q 3541 3109 3541 3331 
Q 3541 3656 3305 3865 
Q 3069 4075 2559 4075 
L 1109 4075 
L 1109 2559 
z
" transform="scale(0.015625)"/>
       <path id="ArialMT-65" d="M 2694 1069 
L 3275 997 
Q 3138 488 2766 206 
Q 2394 -75 1816 -75 
Q 1088 -75 661 373 
Q 234 822 234 1631 
Q 234 2469 665 2931 
Q 1097 3394 1784 3394 
Q 2450 3394 2872 2941 
Q 3294 2488 3294 1666 
Q 3294 1616 3291 1516 
L 816 1516 
Q 847 969 1125 678 
Q 1403 388 1819 388 
Q 2128 388 2347 550 
Q 2566 713 2694 1069 
z
M 847 1978 
L 2700 1978 
Q 2663 2397 2488 2606 
Q 2219 2931 1791 2931 
Q 1403 2931 1139 2672 
Q 875 2413 847 1978 
z
" transform="scale(0.015625)"/>
       <path id="ArialMT-6d" d="M 422 0 
L 422 3319 
L 925 3319 
L 925 2853 
Q 1081 3097 1340 3245 
Q 1600 3394 1931 3394 
Q 2300 3394 2536 3241 
Q 2772 3088 2869 2813 
Q 3263 3394 3894 3394 
Q 4388 3394 4653 3120 
Q 4919 2847 4919 2278 
L 4919 0 
L 4359 0 
L 4359 2091 
Q 4359 2428 4304 2576 
Q 4250 2725 4106 2815 
Q 3963 2906 3769 2906 
Q 3419 2906 3187 2673 
Q 2956 2441 2956 1928 
L 2956 0 
L 2394 0 
L 2394 2156 
Q 2394 2531 2256 2718 
Q 2119 2906 1806 2906 
Q 1569 2906 1367 2781 
Q 1166 2656 1075 2415 
Q 984 2175 984 1722 
L 984 0 
L 422 0 
z
" transform="scale(0.015625)"/>
       <path id="ArialMT-6f" d="M 213 1659 
Q 213 2581 725 3025 
Q 1153 3394 1769 3394 
Q 2453 3394 2887 2945 
Q 3322 2497 3322 1706 
Q 3322 1066 3130 698 
Q 2938 331 2570 128 
Q 2203 -75 1769 -75 
Q 1072 -75 642 372 
Q 213 819 213 1659 
z
M 791 1659 
Q 791 1022 1069 705 
Q 1347 388 1769 388 
Q 2188 388 2466 706 
Q 2744 1025 2744 1678 
Q 2744 2294 2464 2611 
Q 2184 2928 1769 2928 
Q 1347 2928 1069 2612 
Q 791 2297 791 1659 
z
" transform="scale(0.015625)"/>
       <path id="ArialMT-76" d="M 1344 0 
L 81 3319 
L 675 3319 
L 1388 1331 
Q 1503 1009 1600 663 
Q 1675 925 1809 1294 
L 2547 3319 
L 3125 3319 
L 1869 0 
L 1344 0 
z
" transform="scale(0.015625)"/>
       <path id="ArialMT-64" d="M 2575 0 
L 2575 419 
Q 2259 -75 1647 -75 
Q 1250 -75 917 144 
Q 584 363 401 755 
Q 219 1147 219 1656 
Q 219 2153 384 2558 
Q 550 2963 881 3178 
Q 1213 3394 1622 3394 
Q 1922 3394 2156 3267 
Q 2391 3141 2538 2938 
L 2538 4581 
L 3097 4581 
L 3097 0 
L 2575 0 
z
M 797 1656 
Q 797 1019 1065 703 
Q 1334 388 1700 388 
Q 2069 388 2326 689 
Q 2584 991 2584 1609 
Q 2584 2291 2321 2609 
Q 2059 2928 1675 2928 
Q 1300 2928 1048 2622 
Q 797 2316 797 1656 
z
" transform="scale(0.015625)"/>
      </defs>
      <use xlink:href="#ArialMT-25"/>
      <use xlink:href="#ArialMT-20" transform="translate(88.916016 0)"/>
      <use xlink:href="#ArialMT-44" transform="translate(116.699219 0)"/>
      <use xlink:href="#ArialMT-61" transform="translate(188.916016 0)"/>
      <use xlink:href="#ArialMT-74" transform="translate(244.53125 0)"/>
      <use xlink:href="#ArialMT-61" transform="translate(272.314453 0)"/>
      <use xlink:href="#ArialMT-20" transform="translate(327.929688 0)"/>
      <use xlink:href="#ArialMT-52" transform="translate(355.712891 0)"/>
      <use xlink:href="#ArialMT-65" transform="translate(427.929688 0)"/>
      <use xlink:href="#ArialMT-6d" transform="translate(483.544922 0)"/>
      <use xlink:href="#ArialMT-6f" transform="translate(566.845703 0)"/>
      <use xlink:href="#ArialMT-76" transform="translate(622.460938 0)"/>
      <use xlink:href="#ArialMT-65" transform="translate(672.460938 0)"/>
      <use xlink:href="#ArialMT-64" transform="translate(728.076172 0)"/>
     </g>
    </g>
   </g>
   <g id="matplotlib.axis_2">
    <g id="ytick_1">
     <g id="line2d_7">
      <path d="M 52.885938 189.990302 
L 273.394271 189.990302 
" clip-path="url(#p51bbad8d33)" style="fill: none; stroke: #cccccc; stroke-width: 0.8; stroke-linecap: round"/>
     </g>
     <g id="text_8">
      <!-- −1.25 -->
      <g style="fill: #262626" transform="translate(20.584375 193.569208) scale(0.1 -0.1)">
       <defs>
        <path id="ArialMT-2212" d="M 3381 1997 
L 356 1997 
L 356 2522 
L 3381 2522 
L 3381 1997 
z
" transform="scale(0.015625)"/>
        <path id="ArialMT-2e" d="M 581 0 
L 581 641 
L 1222 641 
L 1222 0 
L 581 0 
z
" transform="scale(0.015625)"/>
       </defs>
       <use xlink:href="#ArialMT-2212"/>
       <use xlink:href="#ArialMT-31" transform="translate(58.398438 0)"/>
       <use xlink:href="#ArialMT-2e" transform="translate(114.013672 0)"/>
       <use xlink:href="#ArialMT-32" transform="translate(141.796875 0)"/>
       <use xlink:href="#ArialMT-35" transform="translate(197.412109 0)"/>
      </g>
     </g>
    </g>
    <g id="ytick_2">
     <g id="line2d_8">
      <path d="M 52.885938 165.086201 
L 273.394271 165.086201 
" clip-path="url(#p51bbad8d33)" style="fill: none; stroke: #cccccc; stroke-width: 0.8; stroke-linecap: round"/>
     </g>
     <g id="text_9">
      <!-- −1.00 -->
      <g style="fill: #262626" transform="translate(20.584375 168.665108) scale(0.1 -0.1)">
       <use xlink:href="#ArialMT-2212"/>
       <use xlink:href="#ArialMT-31" transform="translate(58.398438 0)"/>
       <use xlink:href="#ArialMT-2e" transform="translate(114.013672 0)"/>
       <use xlink:href="#ArialMT-30" transform="translate(141.796875 0)"/>
       <use xlink:href="#ArialMT-30" transform="translate(197.412109 0)"/>
      </g>
     </g>
    </g>
    <g id="ytick_3">
     <g id="line2d_9">
      <path d="M 52.885938 140.182101 
L 273.394271 140.182101 
" clip-path="url(#p51bbad8d33)" style="fill: none; stroke: #cccccc; stroke-width: 0.8; stroke-linecap: round"/>
     </g>
     <g id="text_10">
      <!-- −0.75 -->
      <g style="fill: #262626" transform="translate(20.584375 143.761007) scale(0.1 -0.1)">
       <defs>
        <path id="ArialMT-37" d="M 303 3981 
L 303 4522 
L 3269 4522 
L 3269 4084 
Q 2831 3619 2401 2847 
Q 1972 2075 1738 1259 
Q 1569 684 1522 0 
L 944 0 
Q 953 541 1156 1306 
Q 1359 2072 1739 2783 
Q 2119 3494 2547 3981 
L 303 3981 
z
" transform="scale(0.015625)"/>
       </defs>
       <use xlink:href="#ArialMT-2212"/>
       <use xlink:href="#ArialMT-30" transform="translate(58.398438 0)"/>
       <use xlink:href="#ArialMT-2e" transform="translate(114.013672 0)"/>
       <use xlink:href="#ArialMT-37" transform="translate(141.796875 0)"/>
       <use xlink:href="#ArialMT-35" transform="translate(197.412109 0)"/>
      </g>
     </g>
    </g>
    <g id="ytick_4">
     <g id="line2d_10">
      <path d="M 52.885938 115.278001 
L 273.394271 115.278001 
" clip-path="url(#p51bbad8d33)" style="fill: none; stroke: #cccccc; stroke-width: 0.8; stroke-linecap: round"/>
     </g>
     <g id="text_11">
      <!-- −0.50 -->
      <g style="fill: #262626" transform="translate(20.584375 118.856907) scale(0.1 -0.1)">
       <use xlink:href="#ArialMT-2212"/>
       <use xlink:href="#ArialMT-30" transform="translate(58.398438 0)"/>
       <use xlink:href="#ArialMT-2e" transform="translate(114.013672 0)"/>
       <use xlink:href="#ArialMT-35" transform="translate(141.796875 0)"/>
       <use xlink:href="#ArialMT-30" transform="translate(197.412109 0)"/>
      </g>
     </g>
    </g>
    <g id="ytick_5">
     <g id="line2d_11">
      <path d="M 52.885938 90.3739 
L 273.394271 90.3739 
" clip-path="url(#p51bbad8d33)" style="fill: none; stroke: #cccccc; stroke-width: 0.8; stroke-linecap: round"/>
     </g>
     <g id="text_12">
      <!-- −0.25 -->
      <g style="fill: #262626" transform="translate(20.584375 93.952807) scale(0.1 -0.1)">
       <use xlink:href="#ArialMT-2212"/>
       <use xlink:href="#ArialMT-30" transform="translate(58.398438 0)"/>
       <use xlink:href="#ArialMT-2e" transform="translate(114.013672 0)"/>
       <use xlink:href="#ArialMT-32" transform="translate(141.796875 0)"/>
       <use xlink:href="#ArialMT-35" transform="translate(197.412109 0)"/>
      </g>
     </g>
    </g>
    <g id="ytick_6">
     <g id="line2d_12">
      <path d="M 52.885938 65.4698 
L 273.394271 65.4698 
" clip-path="url(#p51bbad8d33)" style="fill: none; stroke: #cccccc; stroke-width: 0.8; stroke-linecap: round"/>
     </g>
     <g id="text_13">
      <!-- 0.00 -->
      <g style="fill: #262626" transform="translate(26.425 69.048706) scale(0.1 -0.1)">
       <use xlink:href="#ArialMT-30"/>
       <use xlink:href="#ArialMT-2e" transform="translate(55.615234 0)"/>
       <use xlink:href="#ArialMT-30" transform="translate(83.398438 0)"/>
       <use xlink:href="#ArialMT-30" transform="translate(139.013672 0)"/>
      </g>
     </g>
    </g>
    <g id="text_14">
     <!-- Δ Accuracy in % -->
     <g style="fill: #262626" transform="translate(14.479687 166.611719) rotate(-90) scale(0.1 -0.1)">
      <defs>
       <path id="ArialMT-394" d="M -6 0 
L 1753 4581 
L 2406 4581 
L 4281 0 
L -6 0 
z
M 834 541 
L 3381 541 
L 2391 3150 
Q 2169 3738 2066 4100 
Q 1981 3675 1819 3225 
L 834 541 
z
" transform="scale(0.015625)"/>
       <path id="ArialMT-41" d="M -9 0 
L 1750 4581 
L 2403 4581 
L 4278 0 
L 3588 0 
L 3053 1388 
L 1138 1388 
L 634 0 
L -9 0 
z
M 1313 1881 
L 2866 1881 
L 2388 3150 
Q 2169 3728 2063 4100 
Q 1975 3659 1816 3225 
L 1313 1881 
z
" transform="scale(0.015625)"/>
       <path id="ArialMT-63" d="M 2588 1216 
L 3141 1144 
Q 3050 572 2676 248 
Q 2303 -75 1759 -75 
Q 1078 -75 664 370 
Q 250 816 250 1647 
Q 250 2184 428 2587 
Q 606 2991 970 3192 
Q 1334 3394 1763 3394 
Q 2303 3394 2647 3120 
Q 2991 2847 3088 2344 
L 2541 2259 
Q 2463 2594 2264 2762 
Q 2066 2931 1784 2931 
Q 1359 2931 1093 2626 
Q 828 2322 828 1663 
Q 828 994 1084 691 
Q 1341 388 1753 388 
Q 2084 388 2306 591 
Q 2528 794 2588 1216 
z
" transform="scale(0.015625)"/>
       <path id="ArialMT-75" d="M 2597 0 
L 2597 488 
Q 2209 -75 1544 -75 
Q 1250 -75 995 37 
Q 741 150 617 320 
Q 494 491 444 738 
Q 409 903 409 1263 
L 409 3319 
L 972 3319 
L 972 1478 
Q 972 1038 1006 884 
Q 1059 663 1231 536 
Q 1403 409 1656 409 
Q 1909 409 2131 539 
Q 2353 669 2445 892 
Q 2538 1116 2538 1541 
L 2538 3319 
L 3100 3319 
L 3100 0 
L 2597 0 
z
" transform="scale(0.015625)"/>
       <path id="ArialMT-72" d="M 416 0 
L 416 3319 
L 922 3319 
L 922 2816 
Q 1116 3169 1280 3281 
Q 1444 3394 1641 3394 
Q 1925 3394 2219 3213 
L 2025 2691 
Q 1819 2813 1613 2813 
Q 1428 2813 1281 2702 
Q 1134 2591 1072 2394 
Q 978 2094 978 1738 
L 978 0 
L 416 0 
z
" transform="scale(0.015625)"/>
       <path id="ArialMT-79" d="M 397 -1278 
L 334 -750 
Q 519 -800 656 -800 
Q 844 -800 956 -737 
Q 1069 -675 1141 -563 
Q 1194 -478 1313 -144 
Q 1328 -97 1363 -6 
L 103 3319 
L 709 3319 
L 1400 1397 
Q 1534 1031 1641 628 
Q 1738 1016 1872 1384 
L 2581 3319 
L 3144 3319 
L 1881 -56 
Q 1678 -603 1566 -809 
Q 1416 -1088 1222 -1217 
Q 1028 -1347 759 -1347 
Q 597 -1347 397 -1278 
z
" transform="scale(0.015625)"/>
       <path id="ArialMT-69" d="M 425 3934 
L 425 4581 
L 988 4581 
L 988 3934 
L 425 3934 
z
M 425 0 
L 425 3319 
L 988 3319 
L 988 0 
L 425 0 
z
" transform="scale(0.015625)"/>
       <path id="ArialMT-6e" d="M 422 0 
L 422 3319 
L 928 3319 
L 928 2847 
Q 1294 3394 1984 3394 
Q 2284 3394 2536 3286 
Q 2788 3178 2913 3003 
Q 3038 2828 3088 2588 
Q 3119 2431 3119 2041 
L 3119 0 
L 2556 0 
L 2556 2019 
Q 2556 2363 2490 2533 
Q 2425 2703 2258 2804 
Q 2091 2906 1866 2906 
Q 1506 2906 1245 2678 
Q 984 2450 984 1813 
L 984 0 
L 422 0 
z
" transform="scale(0.015625)"/>
      </defs>
      <use xlink:href="#ArialMT-394"/>
      <use xlink:href="#ArialMT-20" transform="translate(61.296875 0)"/>
      <use xlink:href="#ArialMT-41" transform="translate(83.580078 0)"/>
      <use xlink:href="#ArialMT-63" transform="translate(150.279297 0)"/>
      <use xlink:href="#ArialMT-63" transform="translate(200.279297 0)"/>
      <use xlink:href="#ArialMT-75" transform="translate(250.279297 0)"/>
      <use xlink:href="#ArialMT-72" transform="translate(305.894531 0)"/>
      <use xlink:href="#ArialMT-61" transform="translate(339.195312 0)"/>
      <use xlink:href="#ArialMT-63" transform="translate(394.810547 0)"/>
      <use xlink:href="#ArialMT-79" transform="translate(444.810547 0)"/>
      <use xlink:href="#ArialMT-20" transform="translate(494.810547 0)"/>
      <use xlink:href="#ArialMT-69" transform="translate(522.59375 0)"/>
      <use xlink:href="#ArialMT-6e" transform="translate(544.810547 0)"/>
      <use xlink:href="#ArialMT-20" transform="translate(600.425781 0)"/>
      <use xlink:href="#ArialMT-25" transform="translate(628.208984 0)"/>
     </g>
    </g>
   </g>
   <g id="FillBetweenPolyCollection_1">
    <defs>
     <path id="m1c36366aed" d="M 52.885938 -191.974148 
L 52.885938 -174.467502 
L 63.911354 -101.546832 
L 74.936771 -174.957746 
L 85.962187 -150.776187 
L 96.987604 -145.251045 
L 108.013021 -135.456323 
L 119.038438 -125.279473 
L 130.063854 -129.041652 
L 141.089271 -114.192505 
L 152.114688 -95.865182 
L 163.140104 -92.135529 
L 174.165521 -81.346781 
L 185.190938 -87.34945 
L 196.216354 -54.576965 
L 207.241771 -103.472333 
L 218.267188 -116.4401 
L 229.292604 -103.976038 
L 240.318021 -86.416459 
L 251.343438 -95.264218 
L 262.368854 -43.894602 
L 273.394271 -71.181421 
L 273.394271 -77.95567 
L 273.394271 -77.95567 
L 262.368854 -49.807652 
L 251.343438 -101.546832 
L 240.318021 -92.655444 
L 229.292604 -112.791553 
L 218.267188 -122.501426 
L 207.241771 -112.186561 
L 196.216354 -62.40792 
L 185.190938 -97.265935 
L 174.165521 -86.638154 
L 163.140104 -100.240734 
L 152.114688 -100.945868 
L 141.089271 -119.205537 
L 130.063854 -135.399899 
L 119.038438 -130.292504 
L 108.013021 -140.072195 
L 96.987604 -148.016621 
L 85.962187 -152.469749 
L 74.936771 -178.179544 
L 63.911354 -103.025095 
L 52.885938 -191.974148 
z
" style="stroke: #ffffff; stroke-opacity: 0.2"/>
    </defs>
    <g clip-path="url(#p51bbad8d33)">
     <use xlink:href="#m1c36366aed" x="0" y="248.690625" style="fill: #1f77b4; fill-opacity: 0.2; stroke: #ffffff; stroke-opacity: 0.2"/>
    </g>
   </g>
   <g id="FillBetweenPolyCollection_2">
    <defs>
     <path id="m5dd01512e7" d="M 52.885938 -191.974148 
L 52.885938 -174.467502 
L 63.911354 -133.235327 
L 74.936771 -124.669458 
L 85.962187 -134.845524 
L 96.987604 -135.775116 
L 108.013021 -131.451745 
L 119.038438 -133.28484 
L 130.063854 -94.495553 
L 141.089271 -96.881182 
L 152.114688 -106.534375 
L 163.140104 -76.02135 
L 174.165521 -88.143483 
L 185.190938 -72.056704 
L 196.216354 -58.421759 
L 207.241771 -78.699154 
L 218.267188 -59.020039 
L 229.292604 -58.919083 
L 240.318021 -65.165639 
L 251.343438 -59.324405 
L 262.368854 -48.664152 
L 273.394271 -51.110564 
L 273.394271 -69.200412 
L 273.394271 -69.200412 
L 262.368854 -68.320733 
L 251.343438 -78.725718 
L 240.318021 -89.514935 
L 229.292604 -85.783221 
L 218.267188 -84.573568 
L 207.241771 -103.698838 
L 196.216354 -91.824028 
L 185.190938 -99.254321 
L 174.165521 -107.55887 
L 163.140104 -97.507068 
L 152.114688 -127.972364 
L 141.089271 -115.451622 
L 130.063854 -122.272038 
L 119.038438 -145.569769 
L 108.013021 -145.18547 
L 96.987604 -147.514278 
L 85.962187 -152.878658 
L 74.936771 -145.315576 
L 63.911354 -147.836675 
L 52.885938 -191.974148 
z
" style="stroke: #ffffff; stroke-opacity: 0.2"/>
    </defs>
    <g clip-path="url(#p51bbad8d33)">
     <use xlink:href="#m5dd01512e7" x="0" y="248.690625" style="fill: #ff7f0e; fill-opacity: 0.2; stroke: #ffffff; stroke-opacity: 0.2"/>
    </g>
   </g>
   <g id="FillBetweenPolyCollection_3">
    <defs>
     <path id="m27ad15ebf6" d="M 52.885938 -191.974148 
L 52.885938 -174.467502 
L 63.911354 -152.94606 
L 74.936771 -139.2924 
L 85.962187 -139.770799 
L 96.987604 -144.935841 
L 108.013021 -137.290652 
L 119.038438 -171.094075 
L 130.063854 -132.404199 
L 141.089271 -150.202167 
L 152.114688 -147.06379 
L 163.140104 -156.06961 
L 174.165521 -145.502068 
L 185.190938 -146.123866 
L 196.216354 -153.057966 
L 207.241771 -138.742577 
L 218.267188 -147.309917 
L 229.292604 -153.884743 
L 240.318021 -143.402421 
L 251.343438 -138.94163 
L 262.368854 -138.92853 
L 273.394271 -150.55288 
L 273.394271 -163.780024 
L 273.394271 -163.780024 
L 262.368854 -160.991316 
L 251.343438 -158.760822 
L 240.318021 -162.060908 
L 229.292604 -171.535127 
L 218.267188 -160.370806 
L 207.241771 -155.633786 
L 196.216354 -171.253208 
L 185.190938 -163.77425 
L 174.165521 -163.287352 
L 163.140104 -170.458958 
L 152.114688 -162.834327 
L 141.089271 -168.565523 
L 130.063854 -157.537376 
L 119.038438 -180.934517 
L 108.013021 -157.08571 
L 96.987604 -169.397062 
L 85.962187 -156.822957 
L 74.936771 -158.410053 
L 63.911354 -171.365114 
L 52.885938 -191.974148 
z
" style="stroke: #ffffff; stroke-opacity: 0.2"/>
    </defs>
    <g clip-path="url(#p51bbad8d33)">
     <use xlink:href="#m27ad15ebf6" x="0" y="248.690625" style="fill: #2ca02c; fill-opacity: 0.2; stroke: #ffffff; stroke-opacity: 0.2"/>
    </g>
   </g>
   <g id="line2d_13">
    <path d="M 52.885938 65.4698 
L 63.911354 146.404661 
L 74.936771 72.12198 
L 85.962187 97.067657 
L 96.987604 102.056792 
L 108.013021 110.926366 
L 119.038438 120.904637 
L 130.063854 116.46985 
L 141.089271 131.991604 
L 152.114688 150.2851 
L 163.140104 152.502494 
L 174.165521 164.698158 
L 185.190938 156.382932 
L 196.216354 190.198182 
L 207.241771 140.861178 
L 218.267188 129.219862 
L 229.292604 140.306829 
L 240.318021 159.154674 
L 251.343438 150.2851 
L 262.368854 201.839498 
L 273.394271 174.12208 
" clip-path="url(#p51bbad8d33)" style="fill: none; stroke: #1f77b4; stroke-width: 1.5; stroke-linecap: round"/>
   </g>
   <g id="line2d_14">
    <path d="M 52.885938 65.4698 
L 63.911354 108.154624 
L 74.936771 113.698108 
L 85.962187 104.828534 
L 96.987604 107.045928 
L 108.013021 110.372018 
L 119.038438 109.263321 
L 130.063854 140.306829 
L 141.089271 142.524223 
L 152.114688 131.437256 
L 163.140104 161.926416 
L 174.165521 150.839448 
L 185.190938 163.035112 
L 196.216354 173.567731 
L 207.241771 157.491629 
L 218.267188 176.893822 
L 229.292604 176.339473 
L 240.318021 171.350338 
L 251.343438 179.665563 
L 262.368854 190.198182 
L 273.394271 188.535137 
" clip-path="url(#p51bbad8d33)" style="fill: none; stroke: #ff7f0e; stroke-width: 1.5; stroke-linecap: round"/>
   </g>
   <g id="line2d_15">
    <path d="M 52.885938 65.4698 
L 63.911354 86.535038 
L 74.936771 99.839399 
L 85.962187 100.393747 
L 96.987604 91.524173 
L 108.013021 101.502444 
L 119.038438 72.676329 
L 130.063854 103.719837 
L 141.089271 89.30678 
L 152.114688 93.741567 
L 163.140104 85.426341 
L 174.165521 94.295915 
L 185.190938 93.741567 
L 196.216354 86.535038 
L 207.241771 101.502444 
L 218.267188 94.850263 
L 229.292604 85.98069 
L 240.318021 95.95896 
L 251.343438 99.839399 
L 262.368854 98.730702 
L 273.394271 91.524173 
" clip-path="url(#p51bbad8d33)" style="fill: none; stroke: #2ca02c; stroke-width: 1.5; stroke-linecap: round"/>
   </g>
   <g id="line2d_16">
    <path d="M 52.885938 65.4698 
L 273.394271 65.4698 
" clip-path="url(#p51bbad8d33)" style="fill: none; stroke: #808080; stroke-opacity: 0.5; stroke-width: 1.5; stroke-linecap: round"/>
   </g>
   <g id="patch_3">
    <path d="M 52.885938 212.2 
L 52.885938 49.3125 
" style="fill: none; stroke: #cccccc; stroke-width: 0.8; stroke-linejoin: miter; stroke-linecap: square"/>
   </g>
   <g id="patch_4">
    <path d="M 273.394271 212.2 
L 273.394271 49.3125 
" style="fill: none; stroke: #cccccc; stroke-width: 0.8; stroke-linejoin: miter; stroke-linecap: square"/>
   </g>
   <g id="patch_5">
    <path d="M 52.885938 212.2 
L 273.394271 212.2 
" style="fill: none; stroke: #cccccc; stroke-width: 0.8; stroke-linejoin: miter; stroke-linecap: square"/>
   </g>
   <g id="patch_6">
    <path d="M 52.885938 49.3125 
L 273.394271 49.3125 
" style="fill: none; stroke: #cccccc; stroke-width: 0.8; stroke-linejoin: miter; stroke-linecap: square"/>
   </g>
   <g id="text_15">
    <!-- Digits -->
    <g style="fill: #262626" transform="translate(148.137292 43.3125) scale(0.12 -0.12)">
     <defs>
      <path id="ArialMT-67" d="M 319 -275 
L 866 -356 
Q 900 -609 1056 -725 
Q 1266 -881 1628 -881 
Q 2019 -881 2231 -725 
Q 2444 -569 2519 -288 
Q 2563 -116 2559 434 
Q 2191 0 1641 0 
Q 956 0 581 494 
Q 206 988 206 1678 
Q 206 2153 378 2554 
Q 550 2956 876 3175 
Q 1203 3394 1644 3394 
Q 2231 3394 2613 2919 
L 2613 3319 
L 3131 3319 
L 3131 450 
Q 3131 -325 2973 -648 
Q 2816 -972 2473 -1159 
Q 2131 -1347 1631 -1347 
Q 1038 -1347 672 -1080 
Q 306 -813 319 -275 
z
M 784 1719 
Q 784 1066 1043 766 
Q 1303 466 1694 466 
Q 2081 466 2343 764 
Q 2606 1063 2606 1700 
Q 2606 2309 2336 2618 
Q 2066 2928 1684 2928 
Q 1309 2928 1046 2623 
Q 784 2319 784 1719 
z
" transform="scale(0.015625)"/>
      <path id="ArialMT-73" d="M 197 991 
L 753 1078 
Q 800 744 1014 566 
Q 1228 388 1613 388 
Q 2000 388 2187 545 
Q 2375 703 2375 916 
Q 2375 1106 2209 1216 
Q 2094 1291 1634 1406 
Q 1016 1563 777 1677 
Q 538 1791 414 1992 
Q 291 2194 291 2438 
Q 291 2659 392 2848 
Q 494 3038 669 3163 
Q 800 3259 1026 3326 
Q 1253 3394 1513 3394 
Q 1903 3394 2198 3281 
Q 2494 3169 2634 2976 
Q 2775 2784 2828 2463 
L 2278 2388 
Q 2241 2644 2061 2787 
Q 1881 2931 1553 2931 
Q 1166 2931 1000 2803 
Q 834 2675 834 2503 
Q 834 2394 903 2306 
Q 972 2216 1119 2156 
Q 1203 2125 1616 2013 
Q 2213 1853 2448 1751 
Q 2684 1650 2818 1456 
Q 2953 1263 2953 975 
Q 2953 694 2789 445 
Q 2625 197 2315 61 
Q 2006 -75 1616 -75 
Q 969 -75 630 194 
Q 291 463 197 991 
z
" transform="scale(0.015625)"/>
     </defs>
     <use xlink:href="#ArialMT-44"/>
     <use xlink:href="#ArialMT-69" transform="translate(72.216797 0)"/>
     <use xlink:href="#ArialMT-67" transform="translate(94.433594 0)"/>
     <use xlink:href="#ArialMT-69" transform="translate(150.048828 0)"/>
     <use xlink:href="#ArialMT-74" transform="translate(172.265625 0)"/>
     <use xlink:href="#ArialMT-73" transform="translate(200.048828 0)"/>
    </g>
   </g>
   <g id="legend_1">
    <g id="patch_7">
     <path d="M 58.485938 208.2 
L 141.004688 208.2 
Q 142.604688 208.2 142.604688 206.6 
L 142.604688 173.45125 
Q 142.604688 171.85125 141.004688 171.85125 
L 58.485938 171.85125 
Q 56.885938 171.85125 56.885938 173.45125 
L 56.885938 206.6 
Q 56.885938 208.2 58.485938 208.2 
z
" style="fill: #ffffff; opacity: 0.8; stroke: #cccccc; stroke-linejoin: miter"/>
    </g>
    <g id="line2d_17">
     <path d="M 60.085938 177.9775 
L 68.085938 177.9775 
L 76.085938 177.9775 
" style="fill: none; stroke: #1f77b4; stroke-width: 1.5; stroke-linecap: round"/>
    </g>
    <g id="text_16">
     <!-- AUM -->
     <g style="fill: #262626" transform="translate(82.485938 180.7775) scale(0.08 -0.08)">
      <defs>
       <path id="ArialMT-55" d="M 3500 4581 
L 4106 4581 
L 4106 1934 
Q 4106 1244 3950 837 
Q 3794 431 3386 176 
Q 2978 -78 2316 -78 
Q 1672 -78 1262 144 
Q 853 366 678 786 
Q 503 1206 503 1934 
L 503 4581 
L 1109 4581 
L 1109 1938 
Q 1109 1341 1220 1058 
Q 1331 775 1601 622 
Q 1872 469 2263 469 
Q 2931 469 3215 772 
Q 3500 1075 3500 1938 
L 3500 4581 
z
" transform="scale(0.015625)"/>
       <path id="ArialMT-4d" d="M 475 0 
L 475 4581 
L 1388 4581 
L 2472 1338 
Q 2622 884 2691 659 
Q 2769 909 2934 1394 
L 4031 4581 
L 4847 4581 
L 4847 0 
L 4263 0 
L 4263 3834 
L 2931 0 
L 2384 0 
L 1059 3900 
L 1059 0 
L 475 0 
z
" transform="scale(0.015625)"/>
      </defs>
      <use xlink:href="#ArialMT-41"/>
      <use xlink:href="#ArialMT-55" transform="translate(66.699219 0)"/>
      <use xlink:href="#ArialMT-4d" transform="translate(138.916016 0)"/>
     </g>
    </g>
    <g id="line2d_18">
     <path d="M 60.085938 189.29375 
L 68.085938 189.29375 
L 76.085938 189.29375 
" style="fill: none; stroke: #ff7f0e; stroke-width: 1.5; stroke-linecap: round"/>
    </g>
    <g id="text_17">
     <!-- Self-Confidence -->
     <g style="fill: #262626" transform="translate(82.485938 192.09375) scale(0.08 -0.08)">
      <defs>
       <path id="ArialMT-53" d="M 288 1472 
L 859 1522 
Q 900 1178 1048 958 
Q 1197 738 1509 602 
Q 1822 466 2213 466 
Q 2559 466 2825 569 
Q 3091 672 3220 851 
Q 3350 1031 3350 1244 
Q 3350 1459 3225 1620 
Q 3100 1781 2813 1891 
Q 2628 1963 1997 2114 
Q 1366 2266 1113 2400 
Q 784 2572 623 2826 
Q 463 3081 463 3397 
Q 463 3744 659 4045 
Q 856 4347 1234 4503 
Q 1613 4659 2075 4659 
Q 2584 4659 2973 4495 
Q 3363 4331 3572 4012 
Q 3781 3694 3797 3291 
L 3216 3247 
Q 3169 3681 2898 3903 
Q 2628 4125 2100 4125 
Q 1550 4125 1298 3923 
Q 1047 3722 1047 3438 
Q 1047 3191 1225 3031 
Q 1400 2872 2139 2705 
Q 2878 2538 3153 2413 
Q 3553 2228 3743 1945 
Q 3934 1663 3934 1294 
Q 3934 928 3725 604 
Q 3516 281 3123 101 
Q 2731 -78 2241 -78 
Q 1619 -78 1198 103 
Q 778 284 539 648 
Q 300 1013 288 1472 
z
" transform="scale(0.015625)"/>
       <path id="ArialMT-6c" d="M 409 0 
L 409 4581 
L 972 4581 
L 972 0 
L 409 0 
z
" transform="scale(0.015625)"/>
       <path id="ArialMT-66" d="M 556 0 
L 556 2881 
L 59 2881 
L 59 3319 
L 556 3319 
L 556 3672 
Q 556 4006 616 4169 
Q 697 4388 901 4523 
Q 1106 4659 1475 4659 
Q 1713 4659 2000 4603 
L 1916 4113 
Q 1741 4144 1584 4144 
Q 1328 4144 1222 4034 
Q 1116 3925 1116 3625 
L 1116 3319 
L 1763 3319 
L 1763 2881 
L 1116 2881 
L 1116 0 
L 556 0 
z
" transform="scale(0.015625)"/>
       <path id="ArialMT-2d" d="M 203 1375 
L 203 1941 
L 1931 1941 
L 1931 1375 
L 203 1375 
z
" transform="scale(0.015625)"/>
       <path id="ArialMT-43" d="M 3763 1606 
L 4369 1453 
Q 4178 706 3683 314 
Q 3188 -78 2472 -78 
Q 1731 -78 1267 223 
Q 803 525 561 1097 
Q 319 1669 319 2325 
Q 319 3041 592 3573 
Q 866 4106 1370 4382 
Q 1875 4659 2481 4659 
Q 3169 4659 3637 4309 
Q 4106 3959 4291 3325 
L 3694 3184 
Q 3534 3684 3231 3912 
Q 2928 4141 2469 4141 
Q 1941 4141 1586 3887 
Q 1231 3634 1087 3207 
Q 944 2781 944 2328 
Q 944 1744 1114 1308 
Q 1284 872 1643 656 
Q 2003 441 2422 441 
Q 2931 441 3284 734 
Q 3638 1028 3763 1606 
z
" transform="scale(0.015625)"/>
      </defs>
      <use xlink:href="#ArialMT-53"/>
      <use xlink:href="#ArialMT-65" transform="translate(66.699219 0)"/>
      <use xlink:href="#ArialMT-6c" transform="translate(122.314453 0)"/>
      <use xlink:href="#ArialMT-66" transform="translate(144.53125 0)"/>
      <use xlink:href="#ArialMT-2d" transform="translate(172.314453 0)"/>
      <use xlink:href="#ArialMT-43" transform="translate(205.615234 0)"/>
      <use xlink:href="#ArialMT-6f" transform="translate(277.832031 0)"/>
      <use xlink:href="#ArialMT-6e" transform="translate(333.447266 0)"/>
      <use xlink:href="#ArialMT-66" transform="translate(389.0625 0)"/>
      <use xlink:href="#ArialMT-69" transform="translate(416.845703 0)"/>
      <use xlink:href="#ArialMT-64" transform="translate(439.0625 0)"/>
      <use xlink:href="#ArialMT-65" transform="translate(494.677734 0)"/>
      <use xlink:href="#ArialMT-6e" transform="translate(550.292969 0)"/>
      <use xlink:href="#ArialMT-63" transform="translate(605.908203 0)"/>
      <use xlink:href="#ArialMT-65" transform="translate(655.908203 0)"/>
     </g>
    </g>
    <g id="line2d_19">
     <path d="M 60.085938 200.61 
L 68.085938 200.61 
L 76.085938 200.61 
" style="fill: none; stroke: #2ca02c; stroke-width: 1.5; stroke-linecap: round"/>
    </g>
    <g id="text_18">
     <!-- Random -->
     <g style="fill: #262626" transform="translate(82.485938 203.41) scale(0.08 -0.08)">
      <use xlink:href="#ArialMT-52"/>
      <use xlink:href="#ArialMT-61" transform="translate(72.216797 0)"/>
      <use xlink:href="#ArialMT-6e" transform="translate(127.832031 0)"/>
      <use xlink:href="#ArialMT-64" transform="translate(183.447266 0)"/>
      <use xlink:href="#ArialMT-6f" transform="translate(239.0625 0)"/>
      <use xlink:href="#ArialMT-6d" transform="translate(294.677734 0)"/>
     </g>
    </g>
   </g>
  </g>
  <g id="axes_2">
   <g id="patch_8">
    <path d="M 342.019271 212.2 
L 562.527604 212.2 
L 562.527604 49.3125 
L 342.019271 49.3125 
z
" style="fill: #ffffff"/>
   </g>
   <g id="matplotlib.axis_3">
    <g id="xtick_7">
     <g id="line2d_20">
      <path d="M 342.019271 212.2 
L 342.019271 49.3125 
" clip-path="url(#pcbb1e3fe63)" style="fill: none; stroke: #cccccc; stroke-width: 0.8; stroke-linecap: round"/>
     </g>
     <g id="text_19">
      <!-- 0 -->
      <g style="fill: #262626" transform="translate(339.238802 226.357813) scale(0.1 -0.1)">
       <use xlink:href="#ArialMT-30"/>
      </g>
     </g>
    </g>
    <g id="xtick_8">
     <g id="line2d_21">
      <path d="M 386.120938 212.2 
L 386.120938 49.3125 
" clip-path="url(#pcbb1e3fe63)" style="fill: none; stroke: #cccccc; stroke-width: 0.8; stroke-linecap: round"/>
     </g>
     <g id="text_20">
      <!-- 1 -->
      <g style="fill: #262626" transform="translate(383.340469 226.357813) scale(0.1 -0.1)">
       <use xlink:href="#ArialMT-31"/>
      </g>
     </g>
    </g>
    <g id="xtick_9">
     <g id="line2d_22">
      <path d="M 430.222604 212.2 
L 430.222604 49.3125 
" clip-path="url(#pcbb1e3fe63)" style="fill: none; stroke: #cccccc; stroke-width: 0.8; stroke-linecap: round"/>
     </g>
     <g id="text_21">
      <!-- 2 -->
      <g style="fill: #262626" transform="translate(427.442135 226.357813) scale(0.1 -0.1)">
       <use xlink:href="#ArialMT-32"/>
      </g>
     </g>
    </g>
    <g id="xtick_10">
     <g id="line2d_23">
      <path d="M 474.324271 212.2 
L 474.324271 49.3125 
" clip-path="url(#pcbb1e3fe63)" style="fill: none; stroke: #cccccc; stroke-width: 0.8; stroke-linecap: round"/>
     </g>
     <g id="text_22">
      <!-- 3 -->
      <g style="fill: #262626" transform="translate(471.543802 226.357813) scale(0.1 -0.1)">
       <use xlink:href="#ArialMT-33"/>
      </g>
     </g>
    </g>
    <g id="xtick_11">
     <g id="line2d_24">
      <path d="M 518.425937 212.2 
L 518.425937 49.3125 
" clip-path="url(#pcbb1e3fe63)" style="fill: none; stroke: #cccccc; stroke-width: 0.8; stroke-linecap: round"/>
     </g>
     <g id="text_23">
      <!-- 4 -->
      <g style="fill: #262626" transform="translate(515.645469 226.357813) scale(0.1 -0.1)">
       <use xlink:href="#ArialMT-34"/>
      </g>
     </g>
    </g>
    <g id="xtick_12">
     <g id="line2d_25">
      <path d="M 562.527604 212.2 
L 562.527604 49.3125 
" clip-path="url(#pcbb1e3fe63)" style="fill: none; stroke: #cccccc; stroke-width: 0.8; stroke-linecap: round"/>
     </g>
     <g id="text_24">
      <!-- 5 -->
      <g style="fill: #262626" transform="translate(559.747135 226.357813) scale(0.1 -0.1)">
       <use xlink:href="#ArialMT-35"/>
      </g>
     </g>
    </g>
    <g id="text_25">
     <!-- % Data Removed -->
     <g style="fill: #262626" transform="translate(413.090625 239.503125) scale(0.1 -0.1)">
      <use xlink:href="#ArialMT-25"/>
      <use xlink:href="#ArialMT-20" transform="translate(88.916016 0)"/>
      <use xlink:href="#ArialMT-44" transform="translate(116.699219 0)"/>
      <use xlink:href="#ArialMT-61" transform="translate(188.916016 0)"/>
      <use xlink:href="#ArialMT-74" transform="translate(244.53125 0)"/>
      <use xlink:href="#ArialMT-61" transform="translate(272.314453 0)"/>
      <use xlink:href="#ArialMT-20" transform="translate(327.929688 0)"/>
      <use xlink:href="#ArialMT-52" transform="translate(355.712891 0)"/>
      <use xlink:href="#ArialMT-65" transform="translate(427.929688 0)"/>
      <use xlink:href="#ArialMT-6d" transform="translate(483.544922 0)"/>
      <use xlink:href="#ArialMT-6f" transform="translate(566.845703 0)"/>
      <use xlink:href="#ArialMT-76" transform="translate(622.460938 0)"/>
      <use xlink:href="#ArialMT-65" transform="translate(672.460938 0)"/>
      <use xlink:href="#ArialMT-64" transform="translate(728.076172 0)"/>
     </g>
    </g>
   </g>
   <g id="matplotlib.axis_4">
    <g id="ytick_7">
     <g id="line2d_26">
      <path d="M 342.019271 198.460446 
L 562.527604 198.460446 
" clip-path="url(#pcbb1e3fe63)" style="fill: none; stroke: #cccccc; stroke-width: 0.8; stroke-linecap: round"/>
     </g>
     <g id="text_26">
      <!-- −2.5 -->
      <g style="fill: #262626" transform="translate(315.278646 202.039352) scale(0.1 -0.1)">
       <use xlink:href="#ArialMT-2212"/>
       <use xlink:href="#ArialMT-32" transform="translate(58.398438 0)"/>
       <use xlink:href="#ArialMT-2e" transform="translate(114.013672 0)"/>
       <use xlink:href="#ArialMT-35" transform="translate(141.796875 0)"/>
      </g>
     </g>
    </g>
    <g id="ytick_8">
     <g id="line2d_27">
      <path d="M 342.019271 172.166804 
L 562.527604 172.166804 
" clip-path="url(#pcbb1e3fe63)" style="fill: none; stroke: #cccccc; stroke-width: 0.8; stroke-linecap: round"/>
     </g>
     <g id="text_27">
      <!-- −2.0 -->
      <g style="fill: #262626" transform="translate(315.278646 175.74571) scale(0.1 -0.1)">
       <use xlink:href="#ArialMT-2212"/>
       <use xlink:href="#ArialMT-32" transform="translate(58.398438 0)"/>
       <use xlink:href="#ArialMT-2e" transform="translate(114.013672 0)"/>
       <use xlink:href="#ArialMT-30" transform="translate(141.796875 0)"/>
      </g>
     </g>
    </g>
    <g id="ytick_9">
     <g id="line2d_28">
      <path d="M 342.019271 145.873161 
L 562.527604 145.873161 
" clip-path="url(#pcbb1e3fe63)" style="fill: none; stroke: #cccccc; stroke-width: 0.8; stroke-linecap: round"/>
     </g>
     <g id="text_28">
      <!-- −1.5 -->
      <g style="fill: #262626" transform="translate(315.278646 149.452067) scale(0.1 -0.1)">
       <use xlink:href="#ArialMT-2212"/>
       <use xlink:href="#ArialMT-31" transform="translate(58.398438 0)"/>
       <use xlink:href="#ArialMT-2e" transform="translate(114.013672 0)"/>
       <use xlink:href="#ArialMT-35" transform="translate(141.796875 0)"/>
      </g>
     </g>
    </g>
    <g id="ytick_10">
     <g id="line2d_29">
      <path d="M 342.019271 119.579518 
L 562.527604 119.579518 
" clip-path="url(#pcbb1e3fe63)" style="fill: none; stroke: #cccccc; stroke-width: 0.8; stroke-linecap: round"/>
     </g>
     <g id="text_29">
      <!-- −1.0 -->
      <g style="fill: #262626" transform="translate(315.278646 123.158424) scale(0.1 -0.1)">
       <use xlink:href="#ArialMT-2212"/>
       <use xlink:href="#ArialMT-31" transform="translate(58.398438 0)"/>
       <use xlink:href="#ArialMT-2e" transform="translate(114.013672 0)"/>
       <use xlink:href="#ArialMT-30" transform="translate(141.796875 0)"/>
      </g>
     </g>
    </g>
    <g id="ytick_11">
     <g id="line2d_30">
      <path d="M 342.019271 93.285876 
L 562.527604 93.285876 
" clip-path="url(#pcbb1e3fe63)" style="fill: none; stroke: #cccccc; stroke-width: 0.8; stroke-linecap: round"/>
     </g>
     <g id="text_30">
      <!-- −0.5 -->
      <g style="fill: #262626" transform="translate(315.278646 96.864782) scale(0.1 -0.1)">
       <use xlink:href="#ArialMT-2212"/>
       <use xlink:href="#ArialMT-30" transform="translate(58.398438 0)"/>
       <use xlink:href="#ArialMT-2e" transform="translate(114.013672 0)"/>
       <use xlink:href="#ArialMT-35" transform="translate(141.796875 0)"/>
      </g>
     </g>
    </g>
    <g id="ytick_12">
     <g id="line2d_31">
      <path d="M 342.019271 66.992233 
L 562.527604 66.992233 
" clip-path="url(#pcbb1e3fe63)" style="fill: none; stroke: #cccccc; stroke-width: 0.8; stroke-linecap: round"/>
     </g>
     <g id="text_31">
      <!-- 0.0 -->
      <g style="fill: #262626" transform="translate(321.119271 70.571139) scale(0.1 -0.1)">
       <use xlink:href="#ArialMT-30"/>
       <use xlink:href="#ArialMT-2e" transform="translate(55.615234 0)"/>
       <use xlink:href="#ArialMT-30" transform="translate(83.398438 0)"/>
      </g>
     </g>
    </g>
    <g id="text_32">
     <!-- Δ Accuracy in % -->
     <g style="fill: #262626" transform="translate(309.173958 166.611719) rotate(-90) scale(0.1 -0.1)">
      <use xlink:href="#ArialMT-394"/>
      <use xlink:href="#ArialMT-20" transform="translate(61.296875 0)"/>
      <use xlink:href="#ArialMT-41" transform="translate(83.580078 0)"/>
      <use xlink:href="#ArialMT-63" transform="translate(150.279297 0)"/>
      <use xlink:href="#ArialMT-63" transform="translate(200.279297 0)"/>
      <use xlink:href="#ArialMT-75" transform="translate(250.279297 0)"/>
      <use xlink:href="#ArialMT-72" transform="translate(305.894531 0)"/>
      <use xlink:href="#ArialMT-61" transform="translate(339.195312 0)"/>
      <use xlink:href="#ArialMT-63" transform="translate(394.810547 0)"/>
      <use xlink:href="#ArialMT-79" transform="translate(444.810547 0)"/>
      <use xlink:href="#ArialMT-20" transform="translate(494.810547 0)"/>
      <use xlink:href="#ArialMT-69" transform="translate(522.59375 0)"/>
      <use xlink:href="#ArialMT-6e" transform="translate(544.810547 0)"/>
      <use xlink:href="#ArialMT-20" transform="translate(600.425781 0)"/>
      <use xlink:href="#ArialMT-25" transform="translate(628.208984 0)"/>
     </g>
    </g>
   </g>
   <g id="FillBetweenPolyCollection_4">
    <defs>
     <path id="m1b8aa179cd" d="M 342.019271 -185.103431 
L 342.019271 -178.293353 
L 353.044688 -176.0276 
L 364.070104 -174.114769 
L 375.095521 -174.708244 
L 386.120938 -158.68938 
L 397.146354 -151.458739 
L 408.171771 -153.268921 
L 419.197188 -140.233825 
L 430.222604 -127.515696 
L 441.248021 -120.766028 
L 452.273438 -120.660701 
L 463.298854 -105.520804 
L 474.324271 -100.660385 
L 485.349687 -88.553886 
L 496.375104 -86.459516 
L 507.400521 -80.593935 
L 518.425937 -69.517054 
L 529.451354 -54.20781 
L 540.476771 -58.420501 
L 551.502187 -50.797549 
L 562.527604 -43.894602 
L 562.527604 -65.680885 
L 562.527604 -65.680885 
L 551.502187 -74.203541 
L 540.476771 -85.512012 
L 529.451354 -79.207247 
L 518.425937 -89.1399 
L 507.400521 -96.994441 
L 496.375104 -107.956791 
L 485.349687 -105.161258 
L 474.324271 -121.101311 
L 463.298854 -123.953694 
L 452.273438 -137.561512 
L 441.248021 -136.755022 
L 430.222604 -141.925138 
L 419.197188 -155.851234 
L 408.171771 -161.747561 
L 397.146354 -161.454252 
L 386.120938 -171.752705 
L 375.095521 -181.676902 
L 364.070104 -182.971541 
L 353.044688 -183.863365 
L 342.019271 -185.103431 
z
" style="stroke: #ffffff; stroke-opacity: 0.2"/>
    </defs>
    <g clip-path="url(#pcbb1e3fe63)">
     <use xlink:href="#m1b8aa179cd" x="0" y="248.690625" style="fill: #1f77b4; fill-opacity: 0.2; stroke: #ffffff; stroke-opacity: 0.2"/>
    </g>
   </g>
   <g id="FillBetweenPolyCollection_5">
    <defs>
     <path id="md29680bb13" d="M 342.019271 -185.103431 
L 342.019271 -178.293353 
L 353.044688 -175.504778 
L 364.070104 -171.260746 
L 375.095521 -175.46016 
L 386.120938 -179.362849 
L 397.146354 -166.828544 
L 408.171771 -165.257818 
L 419.197188 -156.228993 
L 430.222604 -166.371723 
L 441.248021 -161.830259 
L 452.273438 -160.554975 
L 463.298854 -160.992871 
L 474.324271 -156.905615 
L 485.349687 -150.618945 
L 496.375104 -148.545953 
L 507.400521 -156.215092 
L 518.425937 -140.46749 
L 529.451354 -147.752275 
L 540.476771 -137.591759 
L 551.502187 -134.699996 
L 562.527604 -145.249573 
L 562.527604 -155.743632 
L 562.527604 -155.743632 
L 551.502187 -148.764114 
L 540.476771 -152.88399 
L 529.451354 -156.746749 
L 518.425937 -153.514078 
L 507.400521 -165.111864 
L 496.375104 -158.757727 
L 485.349687 -158.087062 
L 474.324271 -165.122505 
L 463.298854 -168.748051 
L 452.273438 -167.082455 
L 441.248021 -169.31299 
L 430.222604 -172.484328 
L 419.197188 -167.201454 
L 408.171771 -177.104052 
L 397.146354 -178.337981 
L 386.120938 -187.539754 
L 375.095521 -181.62615 
L 364.070104 -181.618581 
L 353.044688 -181.581531 
L 342.019271 -185.103431 
z
" style="stroke: #ffffff; stroke-opacity: 0.2"/>
    </defs>
    <g clip-path="url(#pcbb1e3fe63)">
     <use xlink:href="#md29680bb13" x="0" y="248.690625" style="fill: #ff7f0e; fill-opacity: 0.2; stroke: #ffffff; stroke-opacity: 0.2"/>
    </g>
   </g>
   <g id="FillBetweenPolyCollection_6">
    <defs>
     <path id="mb079538e74" d="M 342.019271 -185.103431 
L 342.019271 -178.293353 
L 353.044688 -184.086573 
L 364.070104 -186.84824 
L 375.095521 -183.332355 
L 386.120938 -178.371371 
L 397.146354 -181.517694 
L 408.171771 -181.242998 
L 419.197188 -177.737179 
L 430.222604 -180.805458 
L 441.248021 -182.828848 
L 452.273438 -177.563651 
L 463.298854 -179.498716 
L 474.324271 -176.565828 
L 485.349687 -178.163444 
L 496.375104 -184.160265 
L 507.400521 -177.026305 
L 518.425937 -171.998959 
L 529.451354 -184.133056 
L 540.476771 -175.214575 
L 551.502187 -180.14498 
L 562.527604 -175.233554 
L 562.527604 -182.553919 
L 562.527604 -182.553919 
L 551.502187 -188.15995 
L 540.476771 -183.975226 
L 529.451354 -189.781185 
L 518.425937 -182.282695 
L 507.400521 -182.86466 
L 496.375104 -191.156304 
L 485.349687 -188.037995 
L 474.324271 -186.830956 
L 463.298854 -187.403887 
L 452.273438 -183.729642 
L 441.248021 -190.384229 
L 430.222604 -188.9018 
L 419.197188 -185.659606 
L 408.171771 -189.165425 
L 397.146354 -190.99422 
L 386.120938 -187.128904 
L 375.095521 -189.880723 
L 364.070104 -191.974148 
L 353.044688 -189.126505 
L 342.019271 -185.103431 
z
" style="stroke: #ffffff; stroke-opacity: 0.2"/>
    </defs>
    <g clip-path="url(#pcbb1e3fe63)">
     <use xlink:href="#mb079538e74" x="0" y="248.690625" style="fill: #2ca02c; fill-opacity: 0.2; stroke: #ffffff; stroke-opacity: 0.2"/>
    </g>
   </g>
   <g id="line2d_32">
    <path d="M 342.019271 66.992233 
L 353.044688 68.745142 
L 364.070104 70.14747 
L 375.095521 70.498052 
L 386.120938 83.469582 
L 397.146354 92.23413 
L 408.171771 91.182384 
L 419.197188 100.648096 
L 430.222604 113.970208 
L 441.248021 119.9301 
L 452.273438 119.579518 
L 463.298854 133.953376 
L 474.324271 137.809777 
L 485.349687 151.833053 
L 496.375104 151.482471 
L 507.400521 159.896437 
L 518.425937 169.362148 
L 529.451354 181.983097 
L 540.476771 176.724368 
L 551.502187 186.19008 
L 562.527604 193.902881 
" clip-path="url(#pcbb1e3fe63)" style="fill: none; stroke: #1f77b4; stroke-width: 1.5; stroke-linecap: round"/>
   </g>
   <g id="line2d_33">
    <path d="M 342.019271 66.992233 
L 353.044688 70.14747 
L 364.070104 72.250961 
L 375.095521 70.14747 
L 386.120938 65.239323 
L 397.146354 76.107362 
L 408.171771 77.50969 
L 419.197188 86.975401 
L 430.222604 79.262599 
L 441.248021 83.119 
L 452.273438 84.87191 
L 463.298854 83.820164 
L 474.324271 87.676565 
L 485.349687 94.337621 
L 496.375104 95.038785 
L 507.400521 88.027147 
L 518.425937 101.699841 
L 529.451354 96.441113 
L 540.476771 103.452751 
L 551.502187 106.95857 
L 562.527604 98.194022 
" clip-path="url(#pcbb1e3fe63)" style="fill: none; stroke: #ff7f0e; stroke-width: 1.5; stroke-linecap: round"/>
   </g>
   <g id="line2d_34">
    <path d="M 342.019271 66.992233 
L 353.044688 62.084086 
L 364.070104 59.279431 
L 375.095521 62.084086 
L 386.120938 65.940487 
L 397.146354 62.434668 
L 408.171771 63.486414 
L 419.197188 66.992233 
L 430.222604 63.836996 
L 441.248021 62.084086 
L 452.273438 68.043979 
L 463.298854 65.239323 
L 474.324271 66.992233 
L 485.349687 65.589905 
L 496.375104 61.032341 
L 507.400521 68.745142 
L 518.425937 71.549798 
L 529.451354 61.733504 
L 540.476771 69.095724 
L 551.502187 64.53816 
L 562.527604 69.796888 
" clip-path="url(#pcbb1e3fe63)" style="fill: none; stroke: #2ca02c; stroke-width: 1.5; stroke-linecap: round"/>
   </g>
   <g id="line2d_35">
    <path d="M 342.019271 66.992233 
L 562.527604 66.992233 
" clip-path="url(#pcbb1e3fe63)" style="fill: none; stroke: #808080; stroke-opacity: 0.5; stroke-width: 1.5; stroke-linecap: round"/>
   </g>
   <g id="patch_9">
    <path d="M 342.019271 212.2 
L 342.019271 49.3125 
" style="fill: none; stroke: #cccccc; stroke-width: 0.8; stroke-linejoin: miter; stroke-linecap: square"/>
   </g>
   <g id="patch_10">
    <path d="M 562.527604 212.2 
L 562.527604 49.3125 
" style="fill: none; stroke: #cccccc; stroke-width: 0.8; stroke-linejoin: miter; stroke-linecap: square"/>
   </g>
   <g id="patch_11">
    <path d="M 342.019271 212.2 
L 562.527604 212.2 
" style="fill: none; stroke: #cccccc; stroke-width: 0.8; stroke-linejoin: miter; stroke-linecap: square"/>
   </g>
   <g id="patch_12">
    <path d="M 342.019271 49.3125 
L 562.527604 49.3125 
" style="fill: none; stroke: #cccccc; stroke-width: 0.8; stroke-linejoin: miter; stroke-linecap: square"/>
   </g>
   <g id="text_33">
    <!-- Spirals -->
    <g style="fill: #262626" transform="translate(433.934062 43.3125) scale(0.12 -0.12)">
     <defs>
      <path id="ArialMT-70" d="M 422 -1272 
L 422 3319 
L 934 3319 
L 934 2888 
Q 1116 3141 1344 3267 
Q 1572 3394 1897 3394 
Q 2322 3394 2647 3175 
Q 2972 2956 3137 2557 
Q 3303 2159 3303 1684 
Q 3303 1175 3120 767 
Q 2938 359 2589 142 
Q 2241 -75 1856 -75 
Q 1575 -75 1351 44 
Q 1128 163 984 344 
L 984 -1272 
L 422 -1272 
z
M 931 1641 
Q 931 1000 1190 694 
Q 1450 388 1819 388 
Q 2194 388 2461 705 
Q 2728 1022 2728 1688 
Q 2728 2322 2467 2637 
Q 2206 2953 1844 2953 
Q 1484 2953 1207 2617 
Q 931 2281 931 1641 
z
" transform="scale(0.015625)"/>
     </defs>
     <use xlink:href="#ArialMT-53"/>
     <use xlink:href="#ArialMT-70" transform="translate(66.699219 0)"/>
     <use xlink:href="#ArialMT-69" transform="translate(122.314453 0)"/>
     <use xlink:href="#ArialMT-72" transform="translate(144.53125 0)"/>
     <use xlink:href="#ArialMT-61" transform="translate(177.832031 0)"/>
     <use xlink:href="#ArialMT-6c" transform="translate(233.447266 0)"/>
     <use xlink:href="#ArialMT-73" transform="translate(255.664062 0)"/>
    </g>
   </g>
  </g>
  <g id="axes_3">
   <g id="patch_13">
    <path d="M 631.152604 212.2 
L 851.660938 212.2 
L 851.660938 49.3125 
L 631.152604 49.3125 
z
" style="fill: #ffffff"/>
   </g>
   <g id="matplotlib.axis_5">
    <g id="xtick_13">
     <g id="line2d_36">
      <path d="M 631.152604 212.2 
L 631.152604 49.3125 
" clip-path="url(#p67aa18d4ef)" style="fill: none; stroke: #cccccc; stroke-width: 0.8; stroke-linecap: round"/>
     </g>
     <g id="text_34">
      <!-- 0 -->
      <g style="fill: #262626" transform="translate(628.372135 226.357813) scale(0.1 -0.1)">
       <use xlink:href="#ArialMT-30"/>
      </g>
     </g>
    </g>
    <g id="xtick_14">
     <g id="line2d_37">
      <path d="M 675.254271 212.2 
L 675.254271 49.3125 
" clip-path="url(#p67aa18d4ef)" style="fill: none; stroke: #cccccc; stroke-width: 0.8; stroke-linecap: round"/>
     </g>
     <g id="text_35">
      <!-- 1 -->
      <g style="fill: #262626" transform="translate(672.473802 226.357813) scale(0.1 -0.1)">
       <use xlink:href="#ArialMT-31"/>
      </g>
     </g>
    </g>
    <g id="xtick_15">
     <g id="line2d_38">
      <path d="M 719.355938 212.2 
L 719.355938 49.3125 
" clip-path="url(#p67aa18d4ef)" style="fill: none; stroke: #cccccc; stroke-width: 0.8; stroke-linecap: round"/>
     </g>
     <g id="text_36">
      <!-- 2 -->
      <g style="fill: #262626" transform="translate(716.575469 226.357813) scale(0.1 -0.1)">
       <use xlink:href="#ArialMT-32"/>
      </g>
     </g>
    </g>
    <g id="xtick_16">
     <g id="line2d_39">
      <path d="M 763.457604 212.2 
L 763.457604 49.3125 
" clip-path="url(#p67aa18d4ef)" style="fill: none; stroke: #cccccc; stroke-width: 0.8; stroke-linecap: round"/>
     </g>
     <g id="text_37">
      <!-- 3 -->
      <g style="fill: #262626" transform="translate(760.677135 226.357813) scale(0.1 -0.1)">
       <use xlink:href="#ArialMT-33"/>
      </g>
     </g>
    </g>
    <g id="xtick_17">
     <g id="line2d_40">
      <path d="M 807.559271 212.2 
L 807.559271 49.3125 
" clip-path="url(#p67aa18d4ef)" style="fill: none; stroke: #cccccc; stroke-width: 0.8; stroke-linecap: round"/>
     </g>
     <g id="text_38">
      <!-- 4 -->
      <g style="fill: #262626" transform="translate(804.778802 226.357813) scale(0.1 -0.1)">
       <use xlink:href="#ArialMT-34"/>
      </g>
     </g>
    </g>
    <g id="xtick_18">
     <g id="line2d_41">
      <path d="M 851.660938 212.2 
L 851.660938 49.3125 
" clip-path="url(#p67aa18d4ef)" style="fill: none; stroke: #cccccc; stroke-width: 0.8; stroke-linecap: round"/>
     </g>
     <g id="text_39">
      <!-- 5 -->
      <g style="fill: #262626" transform="translate(848.880469 226.357813) scale(0.1 -0.1)">
       <use xlink:href="#ArialMT-35"/>
      </g>
     </g>
    </g>
    <g id="text_40">
     <!-- % Data Removed -->
     <g style="fill: #262626" transform="translate(702.223958 239.503125) scale(0.1 -0.1)">
      <use xlink:href="#ArialMT-25"/>
      <use xlink:href="#ArialMT-20" transform="translate(88.916016 0)"/>
      <use xlink:href="#ArialMT-44" transform="translate(116.699219 0)"/>
      <use xlink:href="#ArialMT-61" transform="translate(188.916016 0)"/>
      <use xlink:href="#ArialMT-74" transform="translate(244.53125 0)"/>
      <use xlink:href="#ArialMT-61" transform="translate(272.314453 0)"/>
      <use xlink:href="#ArialMT-20" transform="translate(327.929688 0)"/>
      <use xlink:href="#ArialMT-52" transform="translate(355.712891 0)"/>
      <use xlink:href="#ArialMT-65" transform="translate(427.929688 0)"/>
      <use xlink:href="#ArialMT-6d" transform="translate(483.544922 0)"/>
      <use xlink:href="#ArialMT-6f" transform="translate(566.845703 0)"/>
      <use xlink:href="#ArialMT-76" transform="translate(622.460938 0)"/>
      <use xlink:href="#ArialMT-65" transform="translate(672.460938 0)"/>
      <use xlink:href="#ArialMT-64" transform="translate(728.076172 0)"/>
     </g>
    </g>
   </g>
   <g id="matplotlib.axis_6">
    <g id="ytick_13">
     <g id="line2d_42">
      <path d="M 631.152604 197.397054 
L 851.660938 197.397054 
" clip-path="url(#p67aa18d4ef)" style="fill: none; stroke: #cccccc; stroke-width: 0.8; stroke-linecap: round"/>
     </g>
     <g id="text_41">
      <!-- −0.3 -->
      <g style="fill: #262626" transform="translate(604.411979 200.97596) scale(0.1 -0.1)">
       <use xlink:href="#ArialMT-2212"/>
       <use xlink:href="#ArialMT-30" transform="translate(58.398438 0)"/>
       <use xlink:href="#ArialMT-2e" transform="translate(114.013672 0)"/>
       <use xlink:href="#ArialMT-33" transform="translate(141.796875 0)"/>
      </g>
     </g>
    </g>
    <g id="ytick_14">
     <g id="line2d_43">
      <path d="M 631.152604 175.665696 
L 851.660938 175.665696 
" clip-path="url(#p67aa18d4ef)" style="fill: none; stroke: #cccccc; stroke-width: 0.8; stroke-linecap: round"/>
     </g>
     <g id="text_42">
      <!-- −0.2 -->
      <g style="fill: #262626" transform="translate(604.411979 179.244603) scale(0.1 -0.1)">
       <use xlink:href="#ArialMT-2212"/>
       <use xlink:href="#ArialMT-30" transform="translate(58.398438 0)"/>
       <use xlink:href="#ArialMT-2e" transform="translate(114.013672 0)"/>
       <use xlink:href="#ArialMT-32" transform="translate(141.796875 0)"/>
      </g>
     </g>
    </g>
    <g id="ytick_15">
     <g id="line2d_44">
      <path d="M 631.152604 153.934339 
L 851.660938 153.934339 
" clip-path="url(#p67aa18d4ef)" style="fill: none; stroke: #cccccc; stroke-width: 0.8; stroke-linecap: round"/>
     </g>
     <g id="text_43">
      <!-- −0.1 -->
      <g style="fill: #262626" transform="translate(604.411979 157.513245) scale(0.1 -0.1)">
       <use xlink:href="#ArialMT-2212"/>
       <use xlink:href="#ArialMT-30" transform="translate(58.398438 0)"/>
       <use xlink:href="#ArialMT-2e" transform="translate(114.013672 0)"/>
       <use xlink:href="#ArialMT-31" transform="translate(141.796875 0)"/>
      </g>
     </g>
    </g>
    <g id="ytick_16">
     <g id="line2d_45">
      <path d="M 631.152604 132.202982 
L 851.660938 132.202982 
" clip-path="url(#p67aa18d4ef)" style="fill: none; stroke: #cccccc; stroke-width: 0.8; stroke-linecap: round"/>
     </g>
     <g id="text_44">
      <!-- 0.0 -->
      <g style="fill: #262626" transform="translate(610.252604 135.781888) scale(0.1 -0.1)">
       <use xlink:href="#ArialMT-30"/>
       <use xlink:href="#ArialMT-2e" transform="translate(55.615234 0)"/>
       <use xlink:href="#ArialMT-30" transform="translate(83.398438 0)"/>
      </g>
     </g>
    </g>
    <g id="ytick_17">
     <g id="line2d_46">
      <path d="M 631.152604 110.471624 
L 851.660938 110.471624 
" clip-path="url(#p67aa18d4ef)" style="fill: none; stroke: #cccccc; stroke-width: 0.8; stroke-linecap: round"/>
     </g>
     <g id="text_45">
      <!-- 0.1 -->
      <g style="fill: #262626" transform="translate(610.252604 114.05053) scale(0.1 -0.1)">
       <use xlink:href="#ArialMT-30"/>
       <use xlink:href="#ArialMT-2e" transform="translate(55.615234 0)"/>
       <use xlink:href="#ArialMT-31" transform="translate(83.398438 0)"/>
      </g>
     </g>
    </g>
    <g id="ytick_18">
     <g id="line2d_47">
      <path d="M 631.152604 88.740267 
L 851.660938 88.740267 
" clip-path="url(#p67aa18d4ef)" style="fill: none; stroke: #cccccc; stroke-width: 0.8; stroke-linecap: round"/>
     </g>
     <g id="text_46">
      <!-- 0.2 -->
      <g style="fill: #262626" transform="translate(610.252604 92.319173) scale(0.1 -0.1)">
       <use xlink:href="#ArialMT-30"/>
       <use xlink:href="#ArialMT-2e" transform="translate(55.615234 0)"/>
       <use xlink:href="#ArialMT-32" transform="translate(83.398438 0)"/>
      </g>
     </g>
    </g>
    <g id="ytick_19">
     <g id="line2d_48">
      <path d="M 631.152604 67.008909 
L 851.660938 67.008909 
" clip-path="url(#p67aa18d4ef)" style="fill: none; stroke: #cccccc; stroke-width: 0.8; stroke-linecap: round"/>
     </g>
     <g id="text_47">
      <!-- 0.3 -->
      <g style="fill: #262626" transform="translate(610.252604 70.587815) scale(0.1 -0.1)">
       <use xlink:href="#ArialMT-30"/>
       <use xlink:href="#ArialMT-2e" transform="translate(55.615234 0)"/>
       <use xlink:href="#ArialMT-33" transform="translate(83.398438 0)"/>
      </g>
     </g>
    </g>
    <g id="text_48">
     <!-- Δ Accuracy in % -->
     <g style="fill: #262626" transform="translate(598.307292 166.611719) rotate(-90) scale(0.1 -0.1)">
      <use xlink:href="#ArialMT-394"/>
      <use xlink:href="#ArialMT-20" transform="translate(61.296875 0)"/>
      <use xlink:href="#ArialMT-41" transform="translate(83.580078 0)"/>
      <use xlink:href="#ArialMT-63" transform="translate(150.279297 0)"/>
      <use xlink:href="#ArialMT-63" transform="translate(200.279297 0)"/>
      <use xlink:href="#ArialMT-75" transform="translate(250.279297 0)"/>
      <use xlink:href="#ArialMT-72" transform="translate(305.894531 0)"/>
      <use xlink:href="#ArialMT-61" transform="translate(339.195312 0)"/>
      <use xlink:href="#ArialMT-63" transform="translate(394.810547 0)"/>
      <use xlink:href="#ArialMT-79" transform="translate(444.810547 0)"/>
      <use xlink:href="#ArialMT-20" transform="translate(494.810547 0)"/>
      <use xlink:href="#ArialMT-69" transform="translate(522.59375 0)"/>
      <use xlink:href="#ArialMT-6e" transform="translate(544.810547 0)"/>
      <use xlink:href="#ArialMT-20" transform="translate(600.425781 0)"/>
      <use xlink:href="#ArialMT-25" transform="translate(628.208984 0)"/>
     </g>
    </g>
   </g>
   <g id="FillBetweenPolyCollection_7">
    <defs>
     <path id="m2bcf6e2edb" d="M 631.152604 -127.906001 
L 631.152604 -105.069286 
L 642.178021 -143.166388 
L 653.203438 -95.8876 
L 664.228854 -119.752131 
L 675.254271 -151.946735 
L 686.279688 -190.94244 
L 697.305104 -173.291401 
L 708.330521 -144.292074 
L 719.355938 -139.206514 
L 730.381354 -184.81675 
L 741.406771 -131.998851 
L 752.432188 -171.73523 
L 763.457604 -133.884704 
L 774.483021 -130.883658 
L 785.508438 -87.09231 
L 796.533854 -128.254331 
L 807.559271 -83.635882 
L 818.584688 -43.894602 
L 829.610104 -62.171263 
L 840.635521 -111.805776 
L 851.660938 -71.12252 
L 851.660938 -76.075536 
L 851.660938 -76.075536 
L 840.635521 -116.441632 
L 829.610104 -66.790689 
L 818.584688 -51.296787 
L 807.559271 -91.254036 
L 796.533854 -133.088229 
L 785.508438 -90.499253 
L 774.483021 -135.862192 
L 763.457604 -136.913614 
L 752.432188 -176.059972 
L 741.406771 -134.746999 
L 730.381354 -187.293258 
L 719.355938 -142.398384 
L 708.330521 -147.443993 
L 697.305104 -174.503801 
L 686.279688 -191.974148 
L 675.254271 -153.297557 
L 664.228854 -120.65268 
L 653.203438 -95.8876 
L 642.178021 -143.166388 
L 631.152604 -127.906001 
z
" style="stroke: #ffffff; stroke-opacity: 0.2"/>
    </defs>
    <g clip-path="url(#p67aa18d4ef)">
     <use xlink:href="#m2bcf6e2edb" x="0" y="248.690625" style="fill: #1f77b4; fill-opacity: 0.2; stroke: #ffffff; stroke-opacity: 0.2"/>
    </g>
   </g>
   <g id="FillBetweenPolyCollection_8">
    <defs>
     <path id="mac3596c892" d="M 631.152604 -127.906001 
L 631.152604 -105.069286 
L 642.178021 -109.042152 
L 653.203438 -90.843927 
L 664.228854 -98.073581 
L 675.254271 -110.452805 
L 686.279688 -117.953081 
L 697.305104 -107.288562 
L 708.330521 -93.766844 
L 719.355938 -107.480263 
L 730.381354 -106.602642 
L 741.406771 -73.251291 
L 752.432188 -107.342112 
L 763.457604 -93.783381 
L 774.483021 -94.724752 
L 785.508438 -100.751934 
L 796.533854 -85.378002 
L 807.559271 -89.948131 
L 818.584688 -84.578668 
L 829.610104 -85.959629 
L 840.635521 -88.647802 
L 851.660938 -83.534348 
L 851.660938 -100.811328 
L 851.660938 -100.811328 
L 840.635521 -117.311034 
L 829.610104 -104.464748 
L 818.584688 -94.363718 
L 807.559271 -106.554948 
L 796.533854 -120.580834 
L 785.508438 -121.416772 
L 774.483021 -122.040664 
L 763.457604 -126.359092 
L 752.432188 -127.659409 
L 741.406771 -102.314039 
L 730.381354 -121.644766 
L 719.355938 -127.521258 
L 708.330521 -116.919871 
L 697.305104 -131.765426 
L 686.279688 -142.714067 
L 675.254271 -132.653651 
L 664.228854 -121.39348 
L 653.203438 -111.062441 
L 642.178021 -127.310192 
L 631.152604 -127.906001 
z
" style="stroke: #ffffff; stroke-opacity: 0.2"/>
    </defs>
    <g clip-path="url(#p67aa18d4ef)">
     <use xlink:href="#mac3596c892" x="0" y="248.690625" style="fill: #ff7f0e; fill-opacity: 0.2; stroke: #ffffff; stroke-opacity: 0.2"/>
    </g>
   </g>
   <g id="FillBetweenPolyCollection_9">
    <defs>
     <path id="m2ae12cfa86" d="M 631.152604 -127.906001 
L 631.152604 -105.069286 
L 642.178021 -111.656277 
L 653.203438 -90.633347 
L 664.228854 -123.131096 
L 675.254271 -97.781852 
L 686.279688 -111.71705 
L 697.305104 -93.08447 
L 708.330521 -120.053311 
L 719.355938 -77.066867 
L 730.381354 -114.094115 
L 741.406771 -111.332749 
L 752.432188 -62.709119 
L 763.457604 -93.506671 
L 774.483021 -73.795577 
L 785.508438 -72.53339 
L 796.533854 -61.561474 
L 807.559271 -68.090275 
L 818.584688 -87.899022 
L 829.610104 -70.562358 
L 840.635521 -91.558599 
L 851.660938 -73.076846 
L 851.660938 -96.409782 
L 851.660938 -96.409782 
L 840.635521 -110.34777 
L 829.610104 -94.196391 
L 818.584688 -111.305701 
L 807.559271 -91.265184 
L 796.533854 -87.662816 
L 785.508438 -93.576182 
L 774.483021 -100.41893 
L 763.457604 -115.15381 
L 752.432188 -86.515171 
L 741.406771 -135.826174 
L 730.381354 -139.818921 
L 719.355938 -116.059155 
L 708.330521 -142.640071 
L 697.305104 -121.654713 
L 686.279688 -133.41564 
L 675.254271 -110.203218 
L 664.228854 -149.693456 
L 653.203438 -117.351723 
L 642.178021 -139.555114 
L 631.152604 -127.906001 
z
" style="stroke: #ffffff; stroke-opacity: 0.2"/>
    </defs>
    <g clip-path="url(#p67aa18d4ef)">
     <use xlink:href="#m2ae12cfa86" x="0" y="248.690625" style="fill: #2ca02c; fill-opacity: 0.2; stroke: #ffffff; stroke-opacity: 0.2"/>
    </g>
   </g>
   <g id="line2d_49">
    <path d="M 631.152604 132.202982 
L 642.178021 105.524237 
L 653.203438 152.803025 
L 664.228854 128.48822 
L 675.254271 96.068479 
L 686.279688 57.232331 
L 697.305104 74.793024 
L 708.330521 102.822592 
L 719.355938 107.888176 
L 730.381354 62.635621 
L 741.406771 115.3177 
L 752.432188 74.793024 
L 763.457604 113.291466 
L 774.483021 115.3177 
L 785.508438 159.894843 
L 796.533854 118.019345 
L 807.559271 161.245666 
L 818.584688 201.094931 
L 829.610104 184.209649 
L 840.635521 134.566921 
L 851.660938 175.091597 
" clip-path="url(#p67aa18d4ef)" style="fill: none; stroke: #1f77b4; stroke-width: 1.5; stroke-linecap: round"/>
   </g>
   <g id="line2d_50">
    <path d="M 631.152604 132.202982 
L 642.178021 130.514453 
L 653.203438 147.737441 
L 664.228854 138.957094 
L 675.254271 127.137397 
L 686.279688 118.357051 
L 697.305104 129.163631 
L 708.330521 143.347267 
L 719.355938 131.189865 
L 730.381354 134.566921 
L 741.406771 160.90796 
L 752.432188 131.189865 
L 763.457604 138.619389 
L 774.483021 140.307917 
L 785.508438 137.606272 
L 796.533854 145.711207 
L 807.559271 150.439086 
L 818.584688 159.219432 
L 829.610104 153.478436 
L 840.635521 145.711207 
L 851.660938 156.517787 
" clip-path="url(#p67aa18d4ef)" style="fill: none; stroke: #ff7f0e; stroke-width: 1.5; stroke-linecap: round"/>
   </g>
   <g id="line2d_51">
    <path d="M 631.152604 132.202982 
L 642.178021 123.084929 
L 653.203438 144.69809 
L 664.228854 112.278349 
L 675.254271 144.69809 
L 686.279688 126.12428 
L 697.305104 141.321034 
L 708.330521 117.343934 
L 719.355938 152.127614 
L 730.381354 121.734107 
L 741.406771 125.111163 
L 752.432188 174.07848 
L 763.457604 144.360384 
L 774.483021 161.583372 
L 785.508438 165.635839 
L 796.533854 174.07848 
L 807.559271 169.012896 
L 818.584688 149.088263 
L 829.610104 166.31125 
L 840.635521 147.737441 
L 851.660938 163.947311 
" clip-path="url(#p67aa18d4ef)" style="fill: none; stroke: #2ca02c; stroke-width: 1.5; stroke-linecap: round"/>
   </g>
   <g id="line2d_52">
    <path d="M 631.152604 132.202982 
L 851.660938 132.202982 
" clip-path="url(#p67aa18d4ef)" style="fill: none; stroke: #808080; stroke-opacity: 0.5; stroke-width: 1.5; stroke-linecap: round"/>
   </g>
   <g id="patch_14">
    <path d="M 631.152604 212.2 
L 631.152604 49.3125 
" style="fill: none; stroke: #cccccc; stroke-width: 0.8; stroke-linejoin: miter; stroke-linecap: square"/>
   </g>
   <g id="patch_15">
    <path d="M 851.660938 212.2 
L 851.660938 49.3125 
" style="fill: none; stroke: #cccccc; stroke-width: 0.8; stroke-linejoin: miter; stroke-linecap: square"/>
   </g>
   <g id="patch_16">
    <path d="M 631.152604 212.2 
L 851.660938 212.2 
" style="fill: none; stroke: #cccccc; stroke-width: 0.8; stroke-linejoin: miter; stroke-linecap: square"/>
   </g>
   <g id="patch_17">
    <path d="M 631.152604 49.3125 
L 851.660938 49.3125 
" style="fill: none; stroke: #cccccc; stroke-width: 0.8; stroke-linejoin: miter; stroke-linecap: square"/>
   </g>
   <g id="text_49">
    <!-- Satelite -->
    <g style="fill: #262626" transform="translate(721.394896 43.3125) scale(0.12 -0.12)">
     <use xlink:href="#ArialMT-53"/>
     <use xlink:href="#ArialMT-61" transform="translate(66.699219 0)"/>
     <use xlink:href="#ArialMT-74" transform="translate(122.314453 0)"/>
     <use xlink:href="#ArialMT-65" transform="translate(150.097656 0)"/>
     <use xlink:href="#ArialMT-6c" transform="translate(205.712891 0)"/>
     <use xlink:href="#ArialMT-69" transform="translate(227.929688 0)"/>
     <use xlink:href="#ArialMT-74" transform="translate(250.146484 0)"/>
     <use xlink:href="#ArialMT-65" transform="translate(277.929688 0)"/>
    </g>
   </g>
  </g>
  <g id="text_50">
   <!-- Error Removal for Asymmetric 0% Noise -->
   <g style="fill: #262626" transform="translate(325.850937 15.935625) scale(0.12 -0.12)">
    <defs>
     <path id="ArialMT-45" d="M 506 0 
L 506 4581 
L 3819 4581 
L 3819 4041 
L 1113 4041 
L 1113 2638 
L 3647 2638 
L 3647 2100 
L 1113 2100 
L 1113 541 
L 3925 541 
L 3925 0 
L 506 0 
z
" transform="scale(0.015625)"/>
     <path id="ArialMT-4e" d="M 488 0 
L 488 4581 
L 1109 4581 
L 3516 984 
L 3516 4581 
L 4097 4581 
L 4097 0 
L 3475 0 
L 1069 3600 
L 1069 0 
L 488 0 
z
" transform="scale(0.015625)"/>
    </defs>
    <use xlink:href="#ArialMT-45"/>
    <use xlink:href="#ArialMT-72" transform="translate(66.699219 0)"/>
    <use xlink:href="#ArialMT-72" transform="translate(100 0)"/>
    <use xlink:href="#ArialMT-6f" transform="translate(133.300781 0)"/>
    <use xlink:href="#ArialMT-72" transform="translate(188.916016 0)"/>
    <use xlink:href="#ArialMT-20" transform="translate(222.216797 0)"/>
    <use xlink:href="#ArialMT-52" transform="translate(250 0)"/>
    <use xlink:href="#ArialMT-65" transform="translate(322.216797 0)"/>
    <use xlink:href="#ArialMT-6d" transform="translate(377.832031 0)"/>
    <use xlink:href="#ArialMT-6f" transform="translate(461.132812 0)"/>
    <use xlink:href="#ArialMT-76" transform="translate(516.748047 0)"/>
    <use xlink:href="#ArialMT-61" transform="translate(566.748047 0)"/>
    <use xlink:href="#ArialMT-6c" transform="translate(622.363281 0)"/>
    <use xlink:href="#ArialMT-20" transform="translate(644.580078 0)"/>
    <use xlink:href="#ArialMT-66" transform="translate(672.363281 0)"/>
    <use xlink:href="#ArialMT-6f" transform="translate(700.146484 0)"/>
    <use xlink:href="#ArialMT-72" transform="translate(755.761719 0)"/>
    <use xlink:href="#ArialMT-20" transform="translate(789.0625 0)"/>
    <use xlink:href="#ArialMT-41" transform="translate(811.345703 0)"/>
    <use xlink:href="#ArialMT-73" transform="translate(878.044922 0)"/>
    <use xlink:href="#ArialMT-79" transform="translate(928.044922 0)"/>
    <use xlink:href="#ArialMT-6d" transform="translate(978.044922 0)"/>
    <use xlink:href="#ArialMT-6d" transform="translate(1061.345703 0)"/>
    <use xlink:href="#ArialMT-65" transform="translate(1144.646484 0)"/>
    <use xlink:href="#ArialMT-74" transform="translate(1200.261719 0)"/>
    <use xlink:href="#ArialMT-72" transform="translate(1228.044922 0)"/>
    <use xlink:href="#ArialMT-69" transform="translate(1261.345703 0)"/>
    <use xlink:href="#ArialMT-63" transform="translate(1283.5625 0)"/>
    <use xlink:href="#ArialMT-20" transform="translate(1333.5625 0)"/>
    <use xlink:href="#ArialMT-30" transform="translate(1361.345703 0)"/>
    <use xlink:href="#ArialMT-25" transform="translate(1416.960938 0)"/>
    <use xlink:href="#ArialMT-20" transform="translate(1505.876953 0)"/>
    <use xlink:href="#ArialMT-4e" transform="translate(1533.660156 0)"/>
    <use xlink:href="#ArialMT-6f" transform="translate(1605.876953 0)"/>
    <use xlink:href="#ArialMT-69" transform="translate(1661.492188 0)"/>
    <use xlink:href="#ArialMT-73" transform="translate(1683.708984 0)"/>
    <use xlink:href="#ArialMT-65" transform="translate(1733.708984 0)"/>
   </g>
  </g>
 </g>
 <defs>
  <clipPath id="p51bbad8d33">
   <rect x="52.885938" y="49.3125" width="220.508333" height="162.8875"/>
  </clipPath>
  <clipPath id="pcbb1e3fe63">
   <rect x="342.019271" y="49.3125" width="220.508333" height="162.8875"/>
  </clipPath>
  <clipPath id="p67aa18d4ef">
   <rect x="631.152604" y="49.3125" width="220.508333" height="162.8875"/>
  </clipPath>
 </defs>
</svg>
