<?xml version="1.0" encoding="utf-8" standalone="no"?>
<!DOCTYPE svg PUBLIC "-//W3C//DTD SVG 1.1//EN"
  "http://www.w3.org/Graphics/SVG/1.1/DTD/svg11.dtd">
<svg xmlns:xlink="http://www.w3.org/1999/xlink" width="856.025938pt" height="248.690625pt" viewBox="0 0 856.025938 248.690625" xmlns="http://www.w3.org/2000/svg" version="1.1">
 <metadata>
  <rdf:RDF xmlns:dc="http://purl.org/dc/elements/1.1/" xmlns:cc="http://creativecommons.org/ns#" xmlns:rdf="http://www.w3.org/1999/02/22-rdf-syntax-ns#">
   <cc:Work>
    <dc:type rdf:resource="http://purl.org/dc/dcmitype/StillImage"/>
    <dc:date>2025-01-14T16:06:56.200690</dc:date>
    <dc:format>image/svg+xml</dc:format>
    <dc:creator>
     <cc:Agent>
      <dc:title>Matplotlib v3.10.0, https://matplotlib.org/</dc:title>
     </cc:Agent>
    </dc:creator>
   </cc:Work>
  </rdf:RDF>
 </metadata>
 <defs>
  <style type="text/css">*{stroke-linejoin: round; stroke-linecap: butt}</style>
 </defs>
 <g id="figure_1">
  <g id="patch_1">
   <path d="M 0 248.690625 
L 856.025938 248.690625 
L 856.025938 0 
L 0 0 
z
" style="fill: #ffffff"/>
  </g>
  <g id="axes_1">
   <g id="patch_2">
    <path d="M 47.325 212.2 
L 261.338333 212.2 
L 261.338333 49.3125 
L 47.325 49.3125 
z
" style="fill: #ffffff"/>
   </g>
   <g id="matplotlib.axis_1">
    <g id="xtick_1">
     <g id="line2d_1">
      <path d="M 47.325 212.2 
L 47.325 49.3125 
" clip-path="url(#pf5c495c418)" style="fill: none; stroke: #cccccc; stroke-width: 0.8; stroke-linecap: round"/>
     </g>
     <g id="text_1">
      <!-- 0 -->
      <g style="fill: #262626" transform="translate(44.544531 226.357813) scale(0.1 -0.1)">
       <defs>
        <path id="ArialMT-30" d="M 266 2259 
Q 266 3072 433 3567 
Q 600 4063 929 4331 
Q 1259 4600 1759 4600 
Q 2128 4600 2406 4451 
Q 2684 4303 2865 4023 
Q 3047 3744 3150 3342 
Q 3253 2941 3253 2259 
Q 3253 1453 3087 958 
Q 2922 463 2592 192 
Q 2263 -78 1759 -78 
Q 1097 -78 719 397 
Q 266 969 266 2259 
z
M 844 2259 
Q 844 1131 1108 757 
Q 1372 384 1759 384 
Q 2147 384 2411 759 
Q 2675 1134 2675 2259 
Q 2675 3391 2411 3762 
Q 2147 4134 1753 4134 
Q 1366 4134 1134 3806 
Q 844 3388 844 2259 
z
" transform="scale(0.015625)"/>
       </defs>
       <use xlink:href="#ArialMT-30"/>
      </g>
     </g>
    </g>
    <g id="xtick_2">
     <g id="line2d_2">
      <path d="M 90.127667 212.2 
L 90.127667 49.3125 
" clip-path="url(#pf5c495c418)" style="fill: none; stroke: #cccccc; stroke-width: 0.8; stroke-linecap: round"/>
     </g>
     <g id="text_2">
      <!-- 2 -->
      <g style="fill: #262626" transform="translate(87.347198 226.357813) scale(0.1 -0.1)">
       <defs>
        <path id="ArialMT-32" d="M 3222 541 
L 3222 0 
L 194 0 
Q 188 203 259 391 
Q 375 700 629 1000 
Q 884 1300 1366 1694 
Q 2113 2306 2375 2664 
Q 2638 3022 2638 3341 
Q 2638 3675 2398 3904 
Q 2159 4134 1775 4134 
Q 1369 4134 1125 3890 
Q 881 3647 878 3216 
L 300 3275 
Q 359 3922 746 4261 
Q 1134 4600 1788 4600 
Q 2447 4600 2831 4234 
Q 3216 3869 3216 3328 
Q 3216 3053 3103 2787 
Q 2991 2522 2730 2228 
Q 2469 1934 1863 1422 
Q 1356 997 1212 845 
Q 1069 694 975 541 
L 3222 541 
z
" transform="scale(0.015625)"/>
       </defs>
       <use xlink:href="#ArialMT-32"/>
      </g>
     </g>
    </g>
    <g id="xtick_3">
     <g id="line2d_3">
      <path d="M 132.930333 212.2 
L 132.930333 49.3125 
" clip-path="url(#pf5c495c418)" style="fill: none; stroke: #cccccc; stroke-width: 0.8; stroke-linecap: round"/>
     </g>
     <g id="text_3">
      <!-- 4 -->
      <g style="fill: #262626" transform="translate(130.149865 226.357813) scale(0.1 -0.1)">
       <defs>
        <path id="ArialMT-34" d="M 2069 0 
L 2069 1097 
L 81 1097 
L 81 1613 
L 2172 4581 
L 2631 4581 
L 2631 1613 
L 3250 1613 
L 3250 1097 
L 2631 1097 
L 2631 0 
L 2069 0 
z
M 2069 1613 
L 2069 3678 
L 634 1613 
L 2069 1613 
z
" transform="scale(0.015625)"/>
       </defs>
       <use xlink:href="#ArialMT-34"/>
      </g>
     </g>
    </g>
    <g id="xtick_4">
     <g id="line2d_4">
      <path d="M 175.733 212.2 
L 175.733 49.3125 
" clip-path="url(#pf5c495c418)" style="fill: none; stroke: #cccccc; stroke-width: 0.8; stroke-linecap: round"/>
     </g>
     <g id="text_4">
      <!-- 6 -->
      <g style="fill: #262626" transform="translate(172.952531 226.357813) scale(0.1 -0.1)">
       <defs>
        <path id="ArialMT-36" d="M 3184 3459 
L 2625 3416 
Q 2550 3747 2413 3897 
Q 2184 4138 1850 4138 
Q 1581 4138 1378 3988 
Q 1113 3794 959 3422 
Q 806 3050 800 2363 
Q 1003 2672 1297 2822 
Q 1591 2972 1913 2972 
Q 2475 2972 2870 2558 
Q 3266 2144 3266 1488 
Q 3266 1056 3080 686 
Q 2894 316 2569 119 
Q 2244 -78 1831 -78 
Q 1128 -78 684 439 
Q 241 956 241 2144 
Q 241 3472 731 4075 
Q 1159 4600 1884 4600 
Q 2425 4600 2770 4297 
Q 3116 3994 3184 3459 
z
M 888 1484 
Q 888 1194 1011 928 
Q 1134 663 1356 523 
Q 1578 384 1822 384 
Q 2178 384 2434 671 
Q 2691 959 2691 1453 
Q 2691 1928 2437 2201 
Q 2184 2475 1800 2475 
Q 1419 2475 1153 2201 
Q 888 1928 888 1484 
z
" transform="scale(0.015625)"/>
       </defs>
       <use xlink:href="#ArialMT-36"/>
      </g>
     </g>
    </g>
    <g id="xtick_5">
     <g id="line2d_5">
      <path d="M 218.535667 212.2 
L 218.535667 49.3125 
" clip-path="url(#pf5c495c418)" style="fill: none; stroke: #cccccc; stroke-width: 0.8; stroke-linecap: round"/>
     </g>
     <g id="text_5">
      <!-- 8 -->
      <g style="fill: #262626" transform="translate(215.755198 226.357813) scale(0.1 -0.1)">
       <defs>
        <path id="ArialMT-38" d="M 1131 2484 
Q 781 2613 612 2850 
Q 444 3088 444 3419 
Q 444 3919 803 4259 
Q 1163 4600 1759 4600 
Q 2359 4600 2725 4251 
Q 3091 3903 3091 3403 
Q 3091 3084 2923 2848 
Q 2756 2613 2416 2484 
Q 2838 2347 3058 2040 
Q 3278 1734 3278 1309 
Q 3278 722 2862 322 
Q 2447 -78 1769 -78 
Q 1091 -78 675 323 
Q 259 725 259 1325 
Q 259 1772 486 2073 
Q 713 2375 1131 2484 
z
M 1019 3438 
Q 1019 3113 1228 2906 
Q 1438 2700 1772 2700 
Q 2097 2700 2305 2904 
Q 2513 3109 2513 3406 
Q 2513 3716 2298 3927 
Q 2084 4138 1766 4138 
Q 1444 4138 1231 3931 
Q 1019 3725 1019 3438 
z
M 838 1322 
Q 838 1081 952 856 
Q 1066 631 1291 507 
Q 1516 384 1775 384 
Q 2178 384 2440 643 
Q 2703 903 2703 1303 
Q 2703 1709 2433 1975 
Q 2163 2241 1756 2241 
Q 1359 2241 1098 1978 
Q 838 1716 838 1322 
z
" transform="scale(0.015625)"/>
       </defs>
       <use xlink:href="#ArialMT-38"/>
      </g>
     </g>
    </g>
    <g id="xtick_6">
     <g id="line2d_6">
      <path d="M 261.338333 212.2 
L 261.338333 49.3125 
" clip-path="url(#pf5c495c418)" style="fill: none; stroke: #cccccc; stroke-width: 0.8; stroke-linecap: round"/>
     </g>
     <g id="text_6">
      <!-- 10 -->
      <g style="fill: #262626" transform="translate(255.777396 226.357813) scale(0.1 -0.1)">
       <defs>
        <path id="ArialMT-31" d="M 2384 0 
L 1822 0 
L 1822 3584 
Q 1619 3391 1289 3197 
Q 959 3003 697 2906 
L 697 3450 
Q 1169 3672 1522 3987 
Q 1875 4303 2022 4600 
L 2384 4600 
L 2384 0 
z
" transform="scale(0.015625)"/>
       </defs>
       <use xlink:href="#ArialMT-31"/>
       <use xlink:href="#ArialMT-30" transform="translate(55.615234 0)"/>
      </g>
     </g>
    </g>
    <g id="text_7">
     <!-- % Data Removed -->
     <g style="fill: #262626" transform="translate(115.148854 239.503125) scale(0.1 -0.1)">
      <defs>
       <path id="ArialMT-25" d="M 372 3481 
Q 372 3972 619 4315 
Q 866 4659 1334 4659 
Q 1766 4659 2048 4351 
Q 2331 4044 2331 3447 
Q 2331 2866 2045 2552 
Q 1759 2238 1341 2238 
Q 925 2238 648 2547 
Q 372 2856 372 3481 
z
M 1350 4272 
Q 1141 4272 1002 4090 
Q 863 3909 863 3425 
Q 863 2984 1003 2804 
Q 1144 2625 1350 2625 
Q 1563 2625 1702 2806 
Q 1841 2988 1841 3469 
Q 1841 3913 1700 4092 
Q 1559 4272 1350 4272 
z
M 1353 -169 
L 3859 4659 
L 4316 4659 
L 1819 -169 
L 1353 -169 
z
M 3334 1075 
Q 3334 1569 3581 1911 
Q 3828 2253 4300 2253 
Q 4731 2253 5014 1945 
Q 5297 1638 5297 1041 
Q 5297 459 5011 145 
Q 4725 -169 4303 -169 
Q 3888 -169 3611 142 
Q 3334 453 3334 1075 
z
M 4316 1866 
Q 4103 1866 3964 1684 
Q 3825 1503 3825 1019 
Q 3825 581 3965 400 
Q 4106 219 4313 219 
Q 4528 219 4667 400 
Q 4806 581 4806 1063 
Q 4806 1506 4665 1686 
Q 4525 1866 4316 1866 
z
" transform="scale(0.015625)"/>
       <path id="ArialMT-20" transform="scale(0.015625)"/>
       <path id="ArialMT-44" d="M 494 0 
L 494 4581 
L 2072 4581 
Q 2606 4581 2888 4516 
Q 3281 4425 3559 4188 
Q 3922 3881 4101 3404 
Q 4281 2928 4281 2316 
Q 4281 1794 4159 1391 
Q 4038 988 3847 723 
Q 3656 459 3429 307 
Q 3203 156 2883 78 
Q 2563 0 2147 0 
L 494 0 
z
M 1100 541 
L 2078 541 
Q 2531 541 2789 625 
Q 3047 709 3200 863 
Q 3416 1078 3536 1442 
Q 3656 1806 3656 2325 
Q 3656 3044 3420 3430 
Q 3184 3816 2847 3947 
Q 2603 4041 2063 4041 
L 1100 4041 
L 1100 541 
z
" transform="scale(0.015625)"/>
       <path id="ArialMT-61" d="M 2588 409 
Q 2275 144 1986 34 
Q 1697 -75 1366 -75 
Q 819 -75 525 192 
Q 231 459 231 875 
Q 231 1119 342 1320 
Q 453 1522 633 1644 
Q 813 1766 1038 1828 
Q 1203 1872 1538 1913 
Q 2219 1994 2541 2106 
Q 2544 2222 2544 2253 
Q 2544 2597 2384 2738 
Q 2169 2928 1744 2928 
Q 1347 2928 1158 2789 
Q 969 2650 878 2297 
L 328 2372 
Q 403 2725 575 2942 
Q 747 3159 1072 3276 
Q 1397 3394 1825 3394 
Q 2250 3394 2515 3294 
Q 2781 3194 2906 3042 
Q 3031 2891 3081 2659 
Q 3109 2516 3109 2141 
L 3109 1391 
Q 3109 606 3145 398 
Q 3181 191 3288 0 
L 2700 0 
Q 2613 175 2588 409 
z
M 2541 1666 
Q 2234 1541 1622 1453 
Q 1275 1403 1131 1340 
Q 988 1278 909 1158 
Q 831 1038 831 891 
Q 831 666 1001 516 
Q 1172 366 1500 366 
Q 1825 366 2078 508 
Q 2331 650 2450 897 
Q 2541 1088 2541 1459 
L 2541 1666 
z
" transform="scale(0.015625)"/>
       <path id="ArialMT-74" d="M 1650 503 
L 1731 6 
Q 1494 -44 1306 -44 
Q 1000 -44 831 53 
Q 663 150 594 308 
Q 525 466 525 972 
L 525 2881 
L 113 2881 
L 113 3319 
L 525 3319 
L 525 4141 
L 1084 4478 
L 1084 3319 
L 1650 3319 
L 1650 2881 
L 1084 2881 
L 1084 941 
Q 1084 700 1114 631 
Q 1144 563 1211 522 
Q 1278 481 1403 481 
Q 1497 481 1650 503 
z
" transform="scale(0.015625)"/>
       <path id="ArialMT-52" d="M 503 0 
L 503 4581 
L 2534 4581 
Q 3147 4581 3465 4457 
Q 3784 4334 3975 4021 
Q 4166 3709 4166 3331 
Q 4166 2844 3850 2509 
Q 3534 2175 2875 2084 
Q 3116 1969 3241 1856 
Q 3506 1613 3744 1247 
L 4541 0 
L 3778 0 
L 3172 953 
Q 2906 1366 2734 1584 
Q 2563 1803 2427 1890 
Q 2291 1978 2150 2013 
Q 2047 2034 1813 2034 
L 1109 2034 
L 1109 0 
L 503 0 
z
M 1109 2559 
L 2413 2559 
Q 2828 2559 3062 2645 
Q 3297 2731 3419 2920 
Q 3541 3109 3541 3331 
Q 3541 3656 3305 3865 
Q 3069 4075 2559 4075 
L 1109 4075 
L 1109 2559 
z
" transform="scale(0.015625)"/>
       <path id="ArialMT-65" d="M 2694 1069 
L 3275 997 
Q 3138 488 2766 206 
Q 2394 -75 1816 -75 
Q 1088 -75 661 373 
Q 234 822 234 1631 
Q 234 2469 665 2931 
Q 1097 3394 1784 3394 
Q 2450 3394 2872 2941 
Q 3294 2488 3294 1666 
Q 3294 1616 3291 1516 
L 816 1516 
Q 847 969 1125 678 
Q 1403 388 1819 388 
Q 2128 388 2347 550 
Q 2566 713 2694 1069 
z
M 847 1978 
L 2700 1978 
Q 2663 2397 2488 2606 
Q 2219 2931 1791 2931 
Q 1403 2931 1139 2672 
Q 875 2413 847 1978 
z
" transform="scale(0.015625)"/>
       <path id="ArialMT-6d" d="M 422 0 
L 422 3319 
L 925 3319 
L 925 2853 
Q 1081 3097 1340 3245 
Q 1600 3394 1931 3394 
Q 2300 3394 2536 3241 
Q 2772 3088 2869 2813 
Q 3263 3394 3894 3394 
Q 4388 3394 4653 3120 
Q 4919 2847 4919 2278 
L 4919 0 
L 4359 0 
L 4359 2091 
Q 4359 2428 4304 2576 
Q 4250 2725 4106 2815 
Q 3963 2906 3769 2906 
Q 3419 2906 3187 2673 
Q 2956 2441 2956 1928 
L 2956 0 
L 2394 0 
L 2394 2156 
Q 2394 2531 2256 2718 
Q 2119 2906 1806 2906 
Q 1569 2906 1367 2781 
Q 1166 2656 1075 2415 
Q 984 2175 984 1722 
L 984 0 
L 422 0 
z
" transform="scale(0.015625)"/>
       <path id="ArialMT-6f" d="M 213 1659 
Q 213 2581 725 3025 
Q 1153 3394 1769 3394 
Q 2453 3394 2887 2945 
Q 3322 2497 3322 1706 
Q 3322 1066 3130 698 
Q 2938 331 2570 128 
Q 2203 -75 1769 -75 
Q 1072 -75 642 372 
Q 213 819 213 1659 
z
M 791 1659 
Q 791 1022 1069 705 
Q 1347 388 1769 388 
Q 2188 388 2466 706 
Q 2744 1025 2744 1678 
Q 2744 2294 2464 2611 
Q 2184 2928 1769 2928 
Q 1347 2928 1069 2612 
Q 791 2297 791 1659 
z
" transform="scale(0.015625)"/>
       <path id="ArialMT-76" d="M 1344 0 
L 81 3319 
L 675 3319 
L 1388 1331 
Q 1503 1009 1600 663 
Q 1675 925 1809 1294 
L 2547 3319 
L 3125 3319 
L 1869 0 
L 1344 0 
z
" transform="scale(0.015625)"/>
       <path id="ArialMT-64" d="M 2575 0 
L 2575 419 
Q 2259 -75 1647 -75 
Q 1250 -75 917 144 
Q 584 363 401 755 
Q 219 1147 219 1656 
Q 219 2153 384 2558 
Q 550 2963 881 3178 
Q 1213 3394 1622 3394 
Q 1922 3394 2156 3267 
Q 2391 3141 2538 2938 
L 2538 4581 
L 3097 4581 
L 3097 0 
L 2575 0 
z
M 797 1656 
Q 797 1019 1065 703 
Q 1334 388 1700 388 
Q 2069 388 2326 689 
Q 2584 991 2584 1609 
Q 2584 2291 2321 2609 
Q 2059 2928 1675 2928 
Q 1300 2928 1048 2622 
Q 797 2316 797 1656 
z
" transform="scale(0.015625)"/>
      </defs>
      <use xlink:href="#ArialMT-25"/>
      <use xlink:href="#ArialMT-20" transform="translate(88.916016 0)"/>
      <use xlink:href="#ArialMT-44" transform="translate(116.699219 0)"/>
      <use xlink:href="#ArialMT-61" transform="translate(188.916016 0)"/>
      <use xlink:href="#ArialMT-74" transform="translate(244.53125 0)"/>
      <use xlink:href="#ArialMT-61" transform="translate(272.314453 0)"/>
      <use xlink:href="#ArialMT-20" transform="translate(327.929688 0)"/>
      <use xlink:href="#ArialMT-52" transform="translate(355.712891 0)"/>
      <use xlink:href="#ArialMT-65" transform="translate(427.929688 0)"/>
      <use xlink:href="#ArialMT-6d" transform="translate(483.544922 0)"/>
      <use xlink:href="#ArialMT-6f" transform="translate(566.845703 0)"/>
      <use xlink:href="#ArialMT-76" transform="translate(622.460938 0)"/>
      <use xlink:href="#ArialMT-65" transform="translate(672.460938 0)"/>
      <use xlink:href="#ArialMT-64" transform="translate(728.076172 0)"/>
     </g>
    </g>
   </g>
   <g id="matplotlib.axis_2">
    <g id="ytick_1">
     <g id="line2d_7">
      <path d="M 47.325 211.140901 
L 261.338333 211.140901 
" clip-path="url(#pf5c495c418)" style="fill: none; stroke: #cccccc; stroke-width: 0.8; stroke-linecap: round"/>
     </g>
     <g id="text_8">
      <!-- −0.8 -->
      <g style="fill: #262626" transform="translate(20.584375 214.719807) scale(0.1 -0.1)">
       <defs>
        <path id="ArialMT-2212" d="M 3381 1997 
L 356 1997 
L 356 2522 
L 3381 2522 
L 3381 1997 
z
" transform="scale(0.015625)"/>
        <path id="ArialMT-2e" d="M 581 0 
L 581 641 
L 1222 641 
L 1222 0 
L 581 0 
z
" transform="scale(0.015625)"/>
       </defs>
       <use xlink:href="#ArialMT-2212"/>
       <use xlink:href="#ArialMT-30" transform="translate(58.398438 0)"/>
       <use xlink:href="#ArialMT-2e" transform="translate(114.013672 0)"/>
       <use xlink:href="#ArialMT-38" transform="translate(141.796875 0)"/>
      </g>
     </g>
    </g>
    <g id="ytick_2">
     <g id="line2d_8">
      <path d="M 47.325 188.968269 
L 261.338333 188.968269 
" clip-path="url(#pf5c495c418)" style="fill: none; stroke: #cccccc; stroke-width: 0.8; stroke-linecap: round"/>
     </g>
     <g id="text_9">
      <!-- −0.6 -->
      <g style="fill: #262626" transform="translate(20.584375 192.547175) scale(0.1 -0.1)">
       <use xlink:href="#ArialMT-2212"/>
       <use xlink:href="#ArialMT-30" transform="translate(58.398438 0)"/>
       <use xlink:href="#ArialMT-2e" transform="translate(114.013672 0)"/>
       <use xlink:href="#ArialMT-36" transform="translate(141.796875 0)"/>
      </g>
     </g>
    </g>
    <g id="ytick_3">
     <g id="line2d_9">
      <path d="M 47.325 166.795637 
L 261.338333 166.795637 
" clip-path="url(#pf5c495c418)" style="fill: none; stroke: #cccccc; stroke-width: 0.8; stroke-linecap: round"/>
     </g>
     <g id="text_10">
      <!-- −0.4 -->
      <g style="fill: #262626" transform="translate(20.584375 170.374544) scale(0.1 -0.1)">
       <use xlink:href="#ArialMT-2212"/>
       <use xlink:href="#ArialMT-30" transform="translate(58.398438 0)"/>
       <use xlink:href="#ArialMT-2e" transform="translate(114.013672 0)"/>
       <use xlink:href="#ArialMT-34" transform="translate(141.796875 0)"/>
      </g>
     </g>
    </g>
    <g id="ytick_4">
     <g id="line2d_10">
      <path d="M 47.325 144.623006 
L 261.338333 144.623006 
" clip-path="url(#pf5c495c418)" style="fill: none; stroke: #cccccc; stroke-width: 0.8; stroke-linecap: round"/>
     </g>
     <g id="text_11">
      <!-- −0.2 -->
      <g style="fill: #262626" transform="translate(20.584375 148.201912) scale(0.1 -0.1)">
       <use xlink:href="#ArialMT-2212"/>
       <use xlink:href="#ArialMT-30" transform="translate(58.398438 0)"/>
       <use xlink:href="#ArialMT-2e" transform="translate(114.013672 0)"/>
       <use xlink:href="#ArialMT-32" transform="translate(141.796875 0)"/>
      </g>
     </g>
    </g>
    <g id="ytick_5">
     <g id="line2d_11">
      <path d="M 47.325 122.450374 
L 261.338333 122.450374 
" clip-path="url(#pf5c495c418)" style="fill: none; stroke: #cccccc; stroke-width: 0.8; stroke-linecap: round"/>
     </g>
     <g id="text_12">
      <!-- 0.0 -->
      <g style="fill: #262626" transform="translate(26.425 126.029281) scale(0.1 -0.1)">
       <use xlink:href="#ArialMT-30"/>
       <use xlink:href="#ArialMT-2e" transform="translate(55.615234 0)"/>
       <use xlink:href="#ArialMT-30" transform="translate(83.398438 0)"/>
      </g>
     </g>
    </g>
    <g id="ytick_6">
     <g id="line2d_12">
      <path d="M 47.325 100.277743 
L 261.338333 100.277743 
" clip-path="url(#pf5c495c418)" style="fill: none; stroke: #cccccc; stroke-width: 0.8; stroke-linecap: round"/>
     </g>
     <g id="text_13">
      <!-- 0.2 -->
      <g style="fill: #262626" transform="translate(26.425 103.856649) scale(0.1 -0.1)">
       <use xlink:href="#ArialMT-30"/>
       <use xlink:href="#ArialMT-2e" transform="translate(55.615234 0)"/>
       <use xlink:href="#ArialMT-32" transform="translate(83.398438 0)"/>
      </g>
     </g>
    </g>
    <g id="ytick_7">
     <g id="line2d_13">
      <path d="M 47.325 78.105111 
L 261.338333 78.105111 
" clip-path="url(#pf5c495c418)" style="fill: none; stroke: #cccccc; stroke-width: 0.8; stroke-linecap: round"/>
     </g>
     <g id="text_14">
      <!-- 0.4 -->
      <g style="fill: #262626" transform="translate(26.425 81.684018) scale(0.1 -0.1)">
       <use xlink:href="#ArialMT-30"/>
       <use xlink:href="#ArialMT-2e" transform="translate(55.615234 0)"/>
       <use xlink:href="#ArialMT-34" transform="translate(83.398438 0)"/>
      </g>
     </g>
    </g>
    <g id="ytick_8">
     <g id="line2d_14">
      <path d="M 47.325 55.93248 
L 261.338333 55.93248 
" clip-path="url(#pf5c495c418)" style="fill: none; stroke: #cccccc; stroke-width: 0.8; stroke-linecap: round"/>
     </g>
     <g id="text_15">
      <!-- 0.6 -->
      <g style="fill: #262626" transform="translate(26.425 59.511386) scale(0.1 -0.1)">
       <use xlink:href="#ArialMT-30"/>
       <use xlink:href="#ArialMT-2e" transform="translate(55.615234 0)"/>
       <use xlink:href="#ArialMT-36" transform="translate(83.398438 0)"/>
      </g>
     </g>
    </g>
    <g id="text_16">
     <!-- Δ Accuracy in % -->
     <g style="fill: #262626" transform="translate(14.479687 166.611719) rotate(-90) scale(0.1 -0.1)">
      <defs>
       <path id="ArialMT-394" d="M -6 0 
L 1753 4581 
L 2406 4581 
L 4281 0 
L -6 0 
z
M 834 541 
L 3381 541 
L 2391 3150 
Q 2169 3738 2066 4100 
Q 1981 3675 1819 3225 
L 834 541 
z
" transform="scale(0.015625)"/>
       <path id="ArialMT-41" d="M -9 0 
L 1750 4581 
L 2403 4581 
L 4278 0 
L 3588 0 
L 3053 1388 
L 1138 1388 
L 634 0 
L -9 0 
z
M 1313 1881 
L 2866 1881 
L 2388 3150 
Q 2169 3728 2063 4100 
Q 1975 3659 1816 3225 
L 1313 1881 
z
" transform="scale(0.015625)"/>
       <path id="ArialMT-63" d="M 2588 1216 
L 3141 1144 
Q 3050 572 2676 248 
Q 2303 -75 1759 -75 
Q 1078 -75 664 370 
Q 250 816 250 1647 
Q 250 2184 428 2587 
Q 606 2991 970 3192 
Q 1334 3394 1763 3394 
Q 2303 3394 2647 3120 
Q 2991 2847 3088 2344 
L 2541 2259 
Q 2463 2594 2264 2762 
Q 2066 2931 1784 2931 
Q 1359 2931 1093 2626 
Q 828 2322 828 1663 
Q 828 994 1084 691 
Q 1341 388 1753 388 
Q 2084 388 2306 591 
Q 2528 794 2588 1216 
z
" transform="scale(0.015625)"/>
       <path id="ArialMT-75" d="M 2597 0 
L 2597 488 
Q 2209 -75 1544 -75 
Q 1250 -75 995 37 
Q 741 150 617 320 
Q 494 491 444 738 
Q 409 903 409 1263 
L 409 3319 
L 972 3319 
L 972 1478 
Q 972 1038 1006 884 
Q 1059 663 1231 536 
Q 1403 409 1656 409 
Q 1909 409 2131 539 
Q 2353 669 2445 892 
Q 2538 1116 2538 1541 
L 2538 3319 
L 3100 3319 
L 3100 0 
L 2597 0 
z
" transform="scale(0.015625)"/>
       <path id="ArialMT-72" d="M 416 0 
L 416 3319 
L 922 3319 
L 922 2816 
Q 1116 3169 1280 3281 
Q 1444 3394 1641 3394 
Q 1925 3394 2219 3213 
L 2025 2691 
Q 1819 2813 1613 2813 
Q 1428 2813 1281 2702 
Q 1134 2591 1072 2394 
Q 978 2094 978 1738 
L 978 0 
L 416 0 
z
" transform="scale(0.015625)"/>
       <path id="ArialMT-79" d="M 397 -1278 
L 334 -750 
Q 519 -800 656 -800 
Q 844 -800 956 -737 
Q 1069 -675 1141 -563 
Q 1194 -478 1313 -144 
Q 1328 -97 1363 -6 
L 103 3319 
L 709 3319 
L 1400 1397 
Q 1534 1031 1641 628 
Q 1738 1016 1872 1384 
L 2581 3319 
L 3144 3319 
L 1881 -56 
Q 1678 -603 1566 -809 
Q 1416 -1088 1222 -1217 
Q 1028 -1347 759 -1347 
Q 597 -1347 397 -1278 
z
" transform="scale(0.015625)"/>
       <path id="ArialMT-69" d="M 425 3934 
L 425 4581 
L 988 4581 
L 988 3934 
L 425 3934 
z
M 425 0 
L 425 3319 
L 988 3319 
L 988 0 
L 425 0 
z
" transform="scale(0.015625)"/>
       <path id="ArialMT-6e" d="M 422 0 
L 422 3319 
L 928 3319 
L 928 2847 
Q 1294 3394 1984 3394 
Q 2284 3394 2536 3286 
Q 2788 3178 2913 3003 
Q 3038 2828 3088 2588 
Q 3119 2431 3119 2041 
L 3119 0 
L 2556 0 
L 2556 2019 
Q 2556 2363 2490 2533 
Q 2425 2703 2258 2804 
Q 2091 2906 1866 2906 
Q 1506 2906 1245 2678 
Q 984 2450 984 1813 
L 984 0 
L 422 0 
z
" transform="scale(0.015625)"/>
      </defs>
      <use xlink:href="#ArialMT-394"/>
      <use xlink:href="#ArialMT-20" transform="translate(61.296875 0)"/>
      <use xlink:href="#ArialMT-41" transform="translate(83.580078 0)"/>
      <use xlink:href="#ArialMT-63" transform="translate(150.279297 0)"/>
      <use xlink:href="#ArialMT-63" transform="translate(200.279297 0)"/>
      <use xlink:href="#ArialMT-75" transform="translate(250.279297 0)"/>
      <use xlink:href="#ArialMT-72" transform="translate(305.894531 0)"/>
      <use xlink:href="#ArialMT-61" transform="translate(339.195312 0)"/>
      <use xlink:href="#ArialMT-63" transform="translate(394.810547 0)"/>
      <use xlink:href="#ArialMT-79" transform="translate(444.810547 0)"/>
      <use xlink:href="#ArialMT-20" transform="translate(494.810547 0)"/>
      <use xlink:href="#ArialMT-69" transform="translate(522.59375 0)"/>
      <use xlink:href="#ArialMT-6e" transform="translate(544.810547 0)"/>
      <use xlink:href="#ArialMT-20" transform="translate(600.425781 0)"/>
      <use xlink:href="#ArialMT-25" transform="translate(628.208984 0)"/>
     </g>
    </g>
   </g>
   <g id="FillBetweenPolyCollection_1">
    <defs>
     <path id="m8779fc9002" d="M 47.325 -141.83269 
L 47.325 -110.647811 
L 58.025667 -117.897691 
L 68.726333 -134.253548 
L 79.427 -164.645835 
L 90.127667 -166.060692 
L 100.828333 -158.485451 
L 111.529 -162.731249 
L 122.229667 -157.64089 
L 132.930333 -156.510449 
L 143.631 -161.383899 
L 154.331667 -171.797485 
L 165.032333 -160.337284 
L 175.733 -155.860462 
L 186.433667 -126.882158 
L 197.134333 -113.865208 
L 207.835 -84.362348 
L 218.535667 -96.568176 
L 229.236333 -88.088335 
L 239.937 -78.058936 
L 250.637667 -59.043476 
L 261.338333 -60.498332 
L 261.338333 -83.40167 
L 261.338333 -83.40167 
L 250.637667 -76.219441 
L 239.937 -94.22006 
L 229.236333 -121.20674 
L 218.535667 -128.767201 
L 207.835 -110.126296 
L 197.134333 -133.679816 
L 186.433667 -140.404775 
L 175.733 -173.119937 
L 165.032333 -184.683415 
L 154.331667 -191.731254 
L 143.631 -184.87067 
L 132.930333 -177.405427 
L 122.229667 -173.807247 
L 111.529 -181.055581 
L 100.828333 -179.132033 
L 90.127667 -181.427746 
L 79.427 -181.608734 
L 68.726333 -158.94464 
L 58.025667 -144.453764 
L 47.325 -141.83269 
z
" style="stroke: #ffffff; stroke-opacity: 0.2"/>
    </defs>
    <g clip-path="url(#pf5c495c418)">
     <use xlink:href="#m8779fc9002" x="0" y="248.690625" style="fill: #1f77b4; fill-opacity: 0.2; stroke: #ffffff; stroke-opacity: 0.2"/>
    </g>
   </g>
   <g id="FillBetweenPolyCollection_2">
    <defs>
     <path id="md013a85dc2" d="M 47.325 -141.83269 
L 47.325 -110.647811 
L 58.025667 -128.173681 
L 68.726333 -133.76718 
L 79.427 -138.875474 
L 90.127667 -159.159805 
L 100.828333 -172.788461 
L 111.529 -163.965234 
L 122.229667 -154.621882 
L 132.930333 -138.845204 
L 143.631 -174.063304 
L 154.331667 -133.801351 
L 165.032333 -134.12399 
L 175.733 -119.970014 
L 186.433667 -137.79148 
L 197.134333 -136.226761 
L 207.835 -100.29842 
L 218.535667 -102.817321 
L 229.236333 -90.848785 
L 239.937 -88.043542 
L 250.637667 -53.406026 
L 261.338333 -43.894602 
L 261.338333 -75.328013 
L 261.338333 -75.328013 
L 250.637667 -78.155283 
L 239.937 -112.614448 
L 229.236333 -113.510814 
L 218.535667 -121.284186 
L 207.835 -134.907911 
L 197.134333 -156.971428 
L 186.433667 -172.680879 
L 175.733 -147.316918 
L 165.032333 -161.541937 
L 154.331667 -169.267792 
L 143.631 -186.997697 
L 132.930333 -166.691678 
L 122.229667 -170.656909 
L 111.529 -178.587727 
L 100.828333 -191.974148 
L 90.127667 -177.223809 
L 79.427 -159.258192 
L 68.726333 -154.495531 
L 58.025667 -146.516467 
L 47.325 -141.83269 
z
" style="stroke: #ffffff; stroke-opacity: 0.2"/>
    </defs>
    <g clip-path="url(#pf5c495c418)">
     <use xlink:href="#md013a85dc2" x="0" y="248.690625" style="fill: #ff7f0e; fill-opacity: 0.2; stroke: #ffffff; stroke-opacity: 0.2"/>
    </g>
   </g>
   <g id="FillBetweenPolyCollection_3">
    <defs>
     <path id="m56eb164409" d="M 47.325 -141.83269 
L 47.325 -110.647811 
L 58.025667 -126.238823 
L 68.726333 -121.471686 
L 79.427 -99.514846 
L 90.127667 -115.923227 
L 100.828333 -112.176963 
L 111.529 -96.906712 
L 122.229667 -98.889481 
L 132.930333 -89.353462 
L 143.631 -83.297904 
L 154.331667 -91.378846 
L 165.032333 -98.777862 
L 175.733 -105.633227 
L 186.433667 -95.738402 
L 197.134333 -92.720134 
L 207.835 -91.445875 
L 218.535667 -89.558191 
L 229.236333 -88.286911 
L 239.937 -86.803467 
L 250.637667 -51.769833 
L 261.338333 -73.309595 
L 261.338333 -105.138747 
L 261.338333 -105.138747 
L 250.637667 -84.726953 
L 239.937 -120.023869 
L 229.236333 -112.371079 
L 218.535667 -119.736884 
L 207.835 -116.615331 
L 197.134333 -115.341072 
L 186.433667 -130.830844 
L 175.733 -134.508581 
L 165.032333 -121.622037 
L 154.331667 -116.68236 
L 143.631 -114.892348 
L 132.930333 -124.877091 
L 122.229667 -121.510418 
L 111.529 -119.791579 
L 100.828333 -141.537407 
L 90.127667 -141.492752 
L 79.427 -124.586661 
L 68.726333 -143.347508 
L 58.025667 -155.854542 
L 47.325 -141.83269 
z
" style="stroke: #ffffff; stroke-opacity: 0.2"/>
    </defs>
    <g clip-path="url(#pf5c495c418)">
     <use xlink:href="#m56eb164409" x="0" y="248.690625" style="fill: #2ca02c; fill-opacity: 0.2; stroke: #ffffff; stroke-opacity: 0.2"/>
    </g>
   </g>
   <g id="line2d_15">
    <path d="M 47.325 122.450374 
L 58.025667 117.514897 
L 68.726333 102.091531 
L 79.427 75.563341 
L 90.127667 74.946406 
L 100.828333 79.881883 
L 111.529 76.79721 
L 122.229667 82.966556 
L 132.930333 81.732687 
L 143.631 75.563341 
L 154.331667 66.926255 
L 165.032333 76.180275 
L 175.733 84.200426 
L 186.433667 115.047159 
L 197.134333 124.918113 
L 207.835 151.446303 
L 218.535667 136.022937 
L 229.236333 144.043087 
L 239.937 162.551127 
L 250.637667 181.059167 
L 261.338333 176.740624 
" clip-path="url(#pf5c495c418)" style="fill: none; stroke: #1f77b4; stroke-width: 1.5; stroke-linecap: round"/>
   </g>
   <g id="line2d_16">
    <path d="M 47.325 122.450374 
L 58.025667 111.345551 
L 68.726333 104.559269 
L 79.427 99.623792 
L 90.127667 80.498818 
L 100.828333 66.309321 
L 111.529 77.414145 
L 122.229667 86.05123 
L 132.930333 95.922184 
L 143.631 68.160125 
L 154.331667 97.156054 
L 165.032333 100.857661 
L 175.733 115.047159 
L 186.433667 93.454446 
L 197.134333 102.091531 
L 207.835 131.08746 
L 218.535667 136.639871 
L 229.236333 146.510826 
L 239.937 148.36163 
L 250.637667 182.909971 
L 261.338333 189.079317 
" clip-path="url(#pf5c495c418)" style="fill: none; stroke: #ff7f0e; stroke-width: 1.5; stroke-linecap: round"/>
   </g>
   <g id="line2d_17">
    <path d="M 47.325 122.450374 
L 58.025667 107.643943 
L 68.726333 116.281028 
L 79.427 136.639871 
L 90.127667 119.982636 
L 100.828333 121.83344 
L 111.529 140.341479 
L 122.229667 138.490675 
L 132.930333 141.575349 
L 143.631 149.595499 
L 154.331667 144.660022 
L 165.032333 138.490675 
L 175.733 128.619721 
L 186.433667 135.406002 
L 197.134333 144.660022 
L 207.835 144.660022 
L 218.535667 144.043087 
L 229.236333 148.36163 
L 239.937 145.276957 
L 250.637667 180.442232 
L 261.338333 159.466454 
" clip-path="url(#pf5c495c418)" style="fill: none; stroke: #2ca02c; stroke-width: 1.5; stroke-linecap: round"/>
   </g>
   <g id="line2d_18">
    <path d="M 47.325 122.450374 
L 261.338333 122.450374 
" clip-path="url(#pf5c495c418)" style="fill: none; stroke: #808080; stroke-opacity: 0.5; stroke-width: 1.5; stroke-linecap: round"/>
   </g>
   <g id="line2d_19">
    <path d="M 154.331667 212.2 
L 154.331667 49.3125 
" clip-path="url(#pf5c495c418)" style="fill: none; stroke-dasharray: 5.55,2.4; stroke-dashoffset: 0; stroke: #000000; stroke-opacity: 0.5; stroke-width: 1.5"/>
   </g>
   <g id="patch_3">
    <path d="M 47.325 212.2 
L 47.325 49.3125 
" style="fill: none; stroke: #cccccc; stroke-width: 0.8; stroke-linejoin: miter; stroke-linecap: square"/>
   </g>
   <g id="patch_4">
    <path d="M 261.338333 212.2 
L 261.338333 49.3125 
" style="fill: none; stroke: #cccccc; stroke-width: 0.8; stroke-linejoin: miter; stroke-linecap: square"/>
   </g>
   <g id="patch_5">
    <path d="M 47.325 212.2 
L 261.338333 212.2 
" style="fill: none; stroke: #cccccc; stroke-width: 0.8; stroke-linejoin: miter; stroke-linecap: square"/>
   </g>
   <g id="patch_6">
    <path d="M 47.325 49.3125 
L 261.338333 49.3125 
" style="fill: none; stroke: #cccccc; stroke-width: 0.8; stroke-linejoin: miter; stroke-linecap: square"/>
   </g>
   <g id="text_17">
    <!-- Digits -->
    <g style="fill: #262626" transform="translate(139.328854 43.3125) scale(0.12 -0.12)">
     <defs>
      <path id="ArialMT-67" d="M 319 -275 
L 866 -356 
Q 900 -609 1056 -725 
Q 1266 -881 1628 -881 
Q 2019 -881 2231 -725 
Q 2444 -569 2519 -288 
Q 2563 -116 2559 434 
Q 2191 0 1641 0 
Q 956 0 581 494 
Q 206 988 206 1678 
Q 206 2153 378 2554 
Q 550 2956 876 3175 
Q 1203 3394 1644 3394 
Q 2231 3394 2613 2919 
L 2613 3319 
L 3131 3319 
L 3131 450 
Q 3131 -325 2973 -648 
Q 2816 -972 2473 -1159 
Q 2131 -1347 1631 -1347 
Q 1038 -1347 672 -1080 
Q 306 -813 319 -275 
z
M 784 1719 
Q 784 1066 1043 766 
Q 1303 466 1694 466 
Q 2081 466 2343 764 
Q 2606 1063 2606 1700 
Q 2606 2309 2336 2618 
Q 2066 2928 1684 2928 
Q 1309 2928 1046 2623 
Q 784 2319 784 1719 
z
" transform="scale(0.015625)"/>
      <path id="ArialMT-73" d="M 197 991 
L 753 1078 
Q 800 744 1014 566 
Q 1228 388 1613 388 
Q 2000 388 2187 545 
Q 2375 703 2375 916 
Q 2375 1106 2209 1216 
Q 2094 1291 1634 1406 
Q 1016 1563 777 1677 
Q 538 1791 414 1992 
Q 291 2194 291 2438 
Q 291 2659 392 2848 
Q 494 3038 669 3163 
Q 800 3259 1026 3326 
Q 1253 3394 1513 3394 
Q 1903 3394 2198 3281 
Q 2494 3169 2634 2976 
Q 2775 2784 2828 2463 
L 2278 2388 
Q 2241 2644 2061 2787 
Q 1881 2931 1553 2931 
Q 1166 2931 1000 2803 
Q 834 2675 834 2503 
Q 834 2394 903 2306 
Q 972 2216 1119 2156 
Q 1203 2125 1616 2013 
Q 2213 1853 2448 1751 
Q 2684 1650 2818 1456 
Q 2953 1263 2953 975 
Q 2953 694 2789 445 
Q 2625 197 2315 61 
Q 2006 -75 1616 -75 
Q 969 -75 630 194 
Q 291 463 197 991 
z
" transform="scale(0.015625)"/>
     </defs>
     <use xlink:href="#ArialMT-44"/>
     <use xlink:href="#ArialMT-69" transform="translate(72.216797 0)"/>
     <use xlink:href="#ArialMT-67" transform="translate(94.433594 0)"/>
     <use xlink:href="#ArialMT-69" transform="translate(150.048828 0)"/>
     <use xlink:href="#ArialMT-74" transform="translate(172.265625 0)"/>
     <use xlink:href="#ArialMT-73" transform="translate(200.048828 0)"/>
    </g>
   </g>
   <g id="legend_1">
    <g id="patch_7">
     <path d="M 52.925 208.2 
L 135.44375 208.2 
Q 137.04375 208.2 137.04375 206.6 
L 137.04375 173.45125 
Q 137.04375 171.85125 135.44375 171.85125 
L 52.925 171.85125 
Q 51.325 171.85125 51.325 173.45125 
L 51.325 206.6 
Q 51.325 208.2 52.925 208.2 
z
" style="fill: #ffffff; opacity: 0.8; stroke: #cccccc; stroke-linejoin: miter"/>
    </g>
    <g id="line2d_20">
     <path d="M 54.525 177.9775 
L 62.525 177.9775 
L 70.525 177.9775 
" style="fill: none; stroke: #1f77b4; stroke-width: 1.5; stroke-linecap: round"/>
    </g>
    <g id="text_18">
     <!-- AUM -->
     <g style="fill: #262626" transform="translate(76.925 180.7775) scale(0.08 -0.08)">
      <defs>
       <path id="ArialMT-55" d="M 3500 4581 
L 4106 4581 
L 4106 1934 
Q 4106 1244 3950 837 
Q 3794 431 3386 176 
Q 2978 -78 2316 -78 
Q 1672 -78 1262 144 
Q 853 366 678 786 
Q 503 1206 503 1934 
L 503 4581 
L 1109 4581 
L 1109 1938 
Q 1109 1341 1220 1058 
Q 1331 775 1601 622 
Q 1872 469 2263 469 
Q 2931 469 3215 772 
Q 3500 1075 3500 1938 
L 3500 4581 
z
" transform="scale(0.015625)"/>
       <path id="ArialMT-4d" d="M 475 0 
L 475 4581 
L 1388 4581 
L 2472 1338 
Q 2622 884 2691 659 
Q 2769 909 2934 1394 
L 4031 4581 
L 4847 4581 
L 4847 0 
L 4263 0 
L 4263 3834 
L 2931 0 
L 2384 0 
L 1059 3900 
L 1059 0 
L 475 0 
z
" transform="scale(0.015625)"/>
      </defs>
      <use xlink:href="#ArialMT-41"/>
      <use xlink:href="#ArialMT-55" transform="translate(66.699219 0)"/>
      <use xlink:href="#ArialMT-4d" transform="translate(138.916016 0)"/>
     </g>
    </g>
    <g id="line2d_21">
     <path d="M 54.525 189.29375 
L 62.525 189.29375 
L 70.525 189.29375 
" style="fill: none; stroke: #ff7f0e; stroke-width: 1.5; stroke-linecap: round"/>
    </g>
    <g id="text_19">
     <!-- Self-Confidence -->
     <g style="fill: #262626" transform="translate(76.925 192.09375) scale(0.08 -0.08)">
      <defs>
       <path id="ArialMT-53" d="M 288 1472 
L 859 1522 
Q 900 1178 1048 958 
Q 1197 738 1509 602 
Q 1822 466 2213 466 
Q 2559 466 2825 569 
Q 3091 672 3220 851 
Q 3350 1031 3350 1244 
Q 3350 1459 3225 1620 
Q 3100 1781 2813 1891 
Q 2628 1963 1997 2114 
Q 1366 2266 1113 2400 
Q 784 2572 623 2826 
Q 463 3081 463 3397 
Q 463 3744 659 4045 
Q 856 4347 1234 4503 
Q 1613 4659 2075 4659 
Q 2584 4659 2973 4495 
Q 3363 4331 3572 4012 
Q 3781 3694 3797 3291 
L 3216 3247 
Q 3169 3681 2898 3903 
Q 2628 4125 2100 4125 
Q 1550 4125 1298 3923 
Q 1047 3722 1047 3438 
Q 1047 3191 1225 3031 
Q 1400 2872 2139 2705 
Q 2878 2538 3153 2413 
Q 3553 2228 3743 1945 
Q 3934 1663 3934 1294 
Q 3934 928 3725 604 
Q 3516 281 3123 101 
Q 2731 -78 2241 -78 
Q 1619 -78 1198 103 
Q 778 284 539 648 
Q 300 1013 288 1472 
z
" transform="scale(0.015625)"/>
       <path id="ArialMT-6c" d="M 409 0 
L 409 4581 
L 972 4581 
L 972 0 
L 409 0 
z
" transform="scale(0.015625)"/>
       <path id="ArialMT-66" d="M 556 0 
L 556 2881 
L 59 2881 
L 59 3319 
L 556 3319 
L 556 3672 
Q 556 4006 616 4169 
Q 697 4388 901 4523 
Q 1106 4659 1475 4659 
Q 1713 4659 2000 4603 
L 1916 4113 
Q 1741 4144 1584 4144 
Q 1328 4144 1222 4034 
Q 1116 3925 1116 3625 
L 1116 3319 
L 1763 3319 
L 1763 2881 
L 1116 2881 
L 1116 0 
L 556 0 
z
" transform="scale(0.015625)"/>
       <path id="ArialMT-2d" d="M 203 1375 
L 203 1941 
L 1931 1941 
L 1931 1375 
L 203 1375 
z
" transform="scale(0.015625)"/>
       <path id="ArialMT-43" d="M 3763 1606 
L 4369 1453 
Q 4178 706 3683 314 
Q 3188 -78 2472 -78 
Q 1731 -78 1267 223 
Q 803 525 561 1097 
Q 319 1669 319 2325 
Q 319 3041 592 3573 
Q 866 4106 1370 4382 
Q 1875 4659 2481 4659 
Q 3169 4659 3637 4309 
Q 4106 3959 4291 3325 
L 3694 3184 
Q 3534 3684 3231 3912 
Q 2928 4141 2469 4141 
Q 1941 4141 1586 3887 
Q 1231 3634 1087 3207 
Q 944 2781 944 2328 
Q 944 1744 1114 1308 
Q 1284 872 1643 656 
Q 2003 441 2422 441 
Q 2931 441 3284 734 
Q 3638 1028 3763 1606 
z
" transform="scale(0.015625)"/>
      </defs>
      <use xlink:href="#ArialMT-53"/>
      <use xlink:href="#ArialMT-65" transform="translate(66.699219 0)"/>
      <use xlink:href="#ArialMT-6c" transform="translate(122.314453 0)"/>
      <use xlink:href="#ArialMT-66" transform="translate(144.53125 0)"/>
      <use xlink:href="#ArialMT-2d" transform="translate(172.314453 0)"/>
      <use xlink:href="#ArialMT-43" transform="translate(205.615234 0)"/>
      <use xlink:href="#ArialMT-6f" transform="translate(277.832031 0)"/>
      <use xlink:href="#ArialMT-6e" transform="translate(333.447266 0)"/>
      <use xlink:href="#ArialMT-66" transform="translate(389.0625 0)"/>
      <use xlink:href="#ArialMT-69" transform="translate(416.845703 0)"/>
      <use xlink:href="#ArialMT-64" transform="translate(439.0625 0)"/>
      <use xlink:href="#ArialMT-65" transform="translate(494.677734 0)"/>
      <use xlink:href="#ArialMT-6e" transform="translate(550.292969 0)"/>
      <use xlink:href="#ArialMT-63" transform="translate(605.908203 0)"/>
      <use xlink:href="#ArialMT-65" transform="translate(655.908203 0)"/>
     </g>
    </g>
    <g id="line2d_22">
     <path d="M 54.525 200.61 
L 62.525 200.61 
L 70.525 200.61 
" style="fill: none; stroke: #2ca02c; stroke-width: 1.5; stroke-linecap: round"/>
    </g>
    <g id="text_20">
     <!-- Random -->
     <g style="fill: #262626" transform="translate(76.925 203.41) scale(0.08 -0.08)">
      <use xlink:href="#ArialMT-52"/>
      <use xlink:href="#ArialMT-61" transform="translate(72.216797 0)"/>
      <use xlink:href="#ArialMT-6e" transform="translate(127.832031 0)"/>
      <use xlink:href="#ArialMT-64" transform="translate(183.447266 0)"/>
      <use xlink:href="#ArialMT-6f" transform="translate(239.0625 0)"/>
      <use xlink:href="#ArialMT-6d" transform="translate(294.677734 0)"/>
     </g>
    </g>
   </g>
  </g>
  <g id="axes_2">
   <g id="patch_8">
    <path d="M 338.288333 212.2 
L 552.301667 212.2 
L 552.301667 49.3125 
L 338.288333 49.3125 
z
" style="fill: #ffffff"/>
   </g>
   <g id="matplotlib.axis_3">
    <g id="xtick_7">
     <g id="line2d_23">
      <path d="M 338.288333 212.2 
L 338.288333 49.3125 
" clip-path="url(#p842666786f)" style="fill: none; stroke: #cccccc; stroke-width: 0.8; stroke-linecap: round"/>
     </g>
     <g id="text_21">
      <!-- 0 -->
      <g style="fill: #262626" transform="translate(335.507865 226.357813) scale(0.1 -0.1)">
       <use xlink:href="#ArialMT-30"/>
      </g>
     </g>
    </g>
    <g id="xtick_8">
     <g id="line2d_24">
      <path d="M 381.091 212.2 
L 381.091 49.3125 
" clip-path="url(#p842666786f)" style="fill: none; stroke: #cccccc; stroke-width: 0.8; stroke-linecap: round"/>
     </g>
     <g id="text_22">
      <!-- 2 -->
      <g style="fill: #262626" transform="translate(378.310531 226.357813) scale(0.1 -0.1)">
       <use xlink:href="#ArialMT-32"/>
      </g>
     </g>
    </g>
    <g id="xtick_9">
     <g id="line2d_25">
      <path d="M 423.893667 212.2 
L 423.893667 49.3125 
" clip-path="url(#p842666786f)" style="fill: none; stroke: #cccccc; stroke-width: 0.8; stroke-linecap: round"/>
     </g>
     <g id="text_23">
      <!-- 4 -->
      <g style="fill: #262626" transform="translate(421.113198 226.357813) scale(0.1 -0.1)">
       <use xlink:href="#ArialMT-34"/>
      </g>
     </g>
    </g>
    <g id="xtick_10">
     <g id="line2d_26">
      <path d="M 466.696333 212.2 
L 466.696333 49.3125 
" clip-path="url(#p842666786f)" style="fill: none; stroke: #cccccc; stroke-width: 0.8; stroke-linecap: round"/>
     </g>
     <g id="text_24">
      <!-- 6 -->
      <g style="fill: #262626" transform="translate(463.915865 226.357813) scale(0.1 -0.1)">
       <use xlink:href="#ArialMT-36"/>
      </g>
     </g>
    </g>
    <g id="xtick_11">
     <g id="line2d_27">
      <path d="M 509.499 212.2 
L 509.499 49.3125 
" clip-path="url(#p842666786f)" style="fill: none; stroke: #cccccc; stroke-width: 0.8; stroke-linecap: round"/>
     </g>
     <g id="text_25">
      <!-- 8 -->
      <g style="fill: #262626" transform="translate(506.718531 226.357813) scale(0.1 -0.1)">
       <use xlink:href="#ArialMT-38"/>
      </g>
     </g>
    </g>
    <g id="xtick_12">
     <g id="line2d_28">
      <path d="M 552.301667 212.2 
L 552.301667 49.3125 
" clip-path="url(#p842666786f)" style="fill: none; stroke: #cccccc; stroke-width: 0.8; stroke-linecap: round"/>
     </g>
     <g id="text_26">
      <!-- 10 -->
      <g style="fill: #262626" transform="translate(546.740729 226.357813) scale(0.1 -0.1)">
       <use xlink:href="#ArialMT-31"/>
       <use xlink:href="#ArialMT-30" transform="translate(55.615234 0)"/>
      </g>
     </g>
    </g>
    <g id="text_27">
     <!-- % Data Removed -->
     <g style="fill: #262626" transform="translate(406.112188 239.503125) scale(0.1 -0.1)">
      <use xlink:href="#ArialMT-25"/>
      <use xlink:href="#ArialMT-20" transform="translate(88.916016 0)"/>
      <use xlink:href="#ArialMT-44" transform="translate(116.699219 0)"/>
      <use xlink:href="#ArialMT-61" transform="translate(188.916016 0)"/>
      <use xlink:href="#ArialMT-74" transform="translate(244.53125 0)"/>
      <use xlink:href="#ArialMT-61" transform="translate(272.314453 0)"/>
      <use xlink:href="#ArialMT-20" transform="translate(327.929688 0)"/>
      <use xlink:href="#ArialMT-52" transform="translate(355.712891 0)"/>
      <use xlink:href="#ArialMT-65" transform="translate(427.929688 0)"/>
      <use xlink:href="#ArialMT-6d" transform="translate(483.544922 0)"/>
      <use xlink:href="#ArialMT-6f" transform="translate(566.845703 0)"/>
      <use xlink:href="#ArialMT-76" transform="translate(622.460938 0)"/>
      <use xlink:href="#ArialMT-65" transform="translate(672.460938 0)"/>
      <use xlink:href="#ArialMT-64" transform="translate(728.076172 0)"/>
     </g>
    </g>
   </g>
   <g id="matplotlib.axis_4">
    <g id="ytick_9">
     <g id="line2d_29">
      <path d="M 338.288333 187.637142 
L 552.301667 187.637142 
" clip-path="url(#p842666786f)" style="fill: none; stroke: #cccccc; stroke-width: 0.8; stroke-linecap: round"/>
     </g>
     <g id="text_28">
      <!-- −0.5 -->
      <g style="fill: #262626" transform="translate(311.547708 191.216048) scale(0.1 -0.1)">
       <defs>
        <path id="ArialMT-35" d="M 266 1200 
L 856 1250 
Q 922 819 1161 601 
Q 1400 384 1738 384 
Q 2144 384 2425 690 
Q 2706 997 2706 1503 
Q 2706 1984 2436 2262 
Q 2166 2541 1728 2541 
Q 1456 2541 1237 2417 
Q 1019 2294 894 2097 
L 366 2166 
L 809 4519 
L 3088 4519 
L 3088 3981 
L 1259 3981 
L 1013 2750 
Q 1425 3038 1878 3038 
Q 2478 3038 2890 2622 
Q 3303 2206 3303 1553 
Q 3303 931 2941 478 
Q 2500 -78 1738 -78 
Q 1113 -78 717 272 
Q 322 622 266 1200 
z
" transform="scale(0.015625)"/>
       </defs>
       <use xlink:href="#ArialMT-2212"/>
       <use xlink:href="#ArialMT-30" transform="translate(58.398438 0)"/>
       <use xlink:href="#ArialMT-2e" transform="translate(114.013672 0)"/>
       <use xlink:href="#ArialMT-35" transform="translate(141.796875 0)"/>
      </g>
     </g>
    </g>
    <g id="ytick_10">
     <g id="line2d_30">
      <path d="M 338.288333 150.856433 
L 552.301667 150.856433 
" clip-path="url(#p842666786f)" style="fill: none; stroke: #cccccc; stroke-width: 0.8; stroke-linecap: round"/>
     </g>
     <g id="text_29">
      <!-- 0.0 -->
      <g style="fill: #262626" transform="translate(317.388333 154.435339) scale(0.1 -0.1)">
       <use xlink:href="#ArialMT-30"/>
       <use xlink:href="#ArialMT-2e" transform="translate(55.615234 0)"/>
       <use xlink:href="#ArialMT-30" transform="translate(83.398438 0)"/>
      </g>
     </g>
    </g>
    <g id="ytick_11">
     <g id="line2d_31">
      <path d="M 338.288333 114.075724 
L 552.301667 114.075724 
" clip-path="url(#p842666786f)" style="fill: none; stroke: #cccccc; stroke-width: 0.8; stroke-linecap: round"/>
     </g>
     <g id="text_30">
      <!-- 0.5 -->
      <g style="fill: #262626" transform="translate(317.388333 117.65463) scale(0.1 -0.1)">
       <use xlink:href="#ArialMT-30"/>
       <use xlink:href="#ArialMT-2e" transform="translate(55.615234 0)"/>
       <use xlink:href="#ArialMT-35" transform="translate(83.398438 0)"/>
      </g>
     </g>
    </g>
    <g id="ytick_12">
     <g id="line2d_32">
      <path d="M 338.288333 77.295014 
L 552.301667 77.295014 
" clip-path="url(#p842666786f)" style="fill: none; stroke: #cccccc; stroke-width: 0.8; stroke-linecap: round"/>
     </g>
     <g id="text_31">
      <!-- 1.0 -->
      <g style="fill: #262626" transform="translate(317.388333 80.873921) scale(0.1 -0.1)">
       <use xlink:href="#ArialMT-31"/>
       <use xlink:href="#ArialMT-2e" transform="translate(55.615234 0)"/>
       <use xlink:href="#ArialMT-30" transform="translate(83.398438 0)"/>
      </g>
     </g>
    </g>
    <g id="text_32">
     <!-- Δ Accuracy in % -->
     <g style="fill: #262626" transform="translate(305.443021 166.611719) rotate(-90) scale(0.1 -0.1)">
      <use xlink:href="#ArialMT-394"/>
      <use xlink:href="#ArialMT-20" transform="translate(61.296875 0)"/>
      <use xlink:href="#ArialMT-41" transform="translate(83.580078 0)"/>
      <use xlink:href="#ArialMT-63" transform="translate(150.279297 0)"/>
      <use xlink:href="#ArialMT-63" transform="translate(200.279297 0)"/>
      <use xlink:href="#ArialMT-75" transform="translate(250.279297 0)"/>
      <use xlink:href="#ArialMT-72" transform="translate(305.894531 0)"/>
      <use xlink:href="#ArialMT-61" transform="translate(339.195312 0)"/>
      <use xlink:href="#ArialMT-63" transform="translate(394.810547 0)"/>
      <use xlink:href="#ArialMT-79" transform="translate(444.810547 0)"/>
      <use xlink:href="#ArialMT-20" transform="translate(494.810547 0)"/>
      <use xlink:href="#ArialMT-69" transform="translate(522.59375 0)"/>
      <use xlink:href="#ArialMT-6e" transform="translate(544.810547 0)"/>
      <use xlink:href="#ArialMT-20" transform="translate(600.425781 0)"/>
      <use xlink:href="#ArialMT-25" transform="translate(628.208984 0)"/>
     </g>
    </g>
   </g>
   <g id="FillBetweenPolyCollection_4">
    <defs>
     <path id="m808d588fe5" d="M 338.288333 -105.81748 
L 338.288333 -89.850905 
L 348.989 -83.791857 
L 359.689667 -92.94869 
L 370.390333 -109.181031 
L 381.091 -105.788764 
L 391.791667 -127.2274 
L 402.492333 -115.593764 
L 413.193 -130.746224 
L 423.893667 -160.143501 
L 434.594333 -173.375908 
L 445.295 -178.18689 
L 455.995667 -174.616257 
L 466.696333 -171.758779 
L 477.397 -158.974542 
L 488.097667 -142.915082 
L 498.798333 -118.06222 
L 509.499 -109.486627 
L 520.199667 -80.86986 
L 530.900333 -84.712686 
L 541.601 -72.348628 
L 552.301667 -58.7549 
L 552.301667 -90.814995 
L 552.301667 -90.814995 
L 541.601 -97.818464 
L 530.900333 -106.051603 
L 520.199667 -102.047878 
L 509.499 -130.318609 
L 498.798333 -136.455299 
L 488.097667 -159.662563 
L 477.397 -169.104396 
L 466.696333 -188.687182 
L 455.995667 -182.887248 
L 445.295 -190.105623 
L 434.594333 -191.974148 
L 423.893667 -171.858712 
L 413.193 -158.099957 
L 402.492333 -132.058023 
L 391.791667 -140.040765 
L 381.091 -121.265825 
L 370.390333 -121.796834 
L 359.689667 -114.489522 
L 348.989 -102.068338 
L 338.288333 -105.81748 
z
" style="stroke: #ffffff; stroke-opacity: 0.2"/>
    </defs>
    <g clip-path="url(#p842666786f)">
     <use xlink:href="#m808d588fe5" x="0" y="248.690625" style="fill: #1f77b4; fill-opacity: 0.2; stroke: #ffffff; stroke-opacity: 0.2"/>
    </g>
   </g>
   <g id="FillBetweenPolyCollection_5">
    <defs>
     <path id="mcd9a6473c7" d="M 338.288333 -105.81748 
L 338.288333 -89.850905 
L 348.989 -89.271721 
L 359.689667 -78.265609 
L 370.390333 -86.978031 
L 381.091 -108.663 
L 391.791667 -119.495503 
L 402.492333 -133.634082 
L 413.193 -141.934018 
L 423.893667 -145.768657 
L 434.594333 -174.079256 
L 445.295 -181.412581 
L 455.995667 -172.378526 
L 466.696333 -168.701321 
L 477.397 -181.223316 
L 488.097667 -164.271796 
L 498.798333 -155.299673 
L 509.499 -169.226193 
L 520.199667 -152.161513 
L 530.900333 -156.252692 
L 541.601 -151.12331 
L 552.301667 -153.152282 
L 552.301667 -164.137648 
L 552.301667 -164.137648 
L 541.601 -164.204982 
L 530.900333 -166.922151 
L 520.199667 -166.109235 
L 509.499 -176.507485 
L 498.798333 -174.740902 
L 488.097667 -182.4427 
L 477.397 -188.050016 
L 466.696333 -179.974814 
L 455.995667 -185.124979 
L 445.295 -190.803207 
L 434.594333 -185.385886 
L 423.893667 -162.693902 
L 413.193 -152.797076 
L 402.492333 -149.327185 
L 391.791667 -140.906929 
L 381.091 -132.123055 
L 370.390333 -105.747897 
L 359.689667 -97.786397 
L 348.989 -111.300758 
L 338.288333 -105.81748 
z
" style="stroke: #ffffff; stroke-opacity: 0.2"/>
    </defs>
    <g clip-path="url(#p842666786f)">
     <use xlink:href="#mcd9a6473c7" x="0" y="248.690625" style="fill: #ff7f0e; fill-opacity: 0.2; stroke: #ffffff; stroke-opacity: 0.2"/>
    </g>
   </g>
   <g id="FillBetweenPolyCollection_6">
    <defs>
     <path id="m739f00c6b9" d="M 338.288333 -105.81748 
L 338.288333 -89.850905 
L 348.989 -82.82579 
L 359.689667 -68.90842 
L 370.390333 -75.308846 
L 381.091 -82.352743 
L 391.791667 -86.325088 
L 402.492333 -84.433896 
L 413.193 -68.701125 
L 423.893667 -63.859283 
L 434.594333 -78.066928 
L 445.295 -85.954555 
L 455.995667 -84.52078 
L 466.696333 -73.077097 
L 477.397 -82.631499 
L 488.097667 -87.326172 
L 498.798333 -53.30876 
L 509.499 -71.5249 
L 520.199667 -43.894602 
L 530.900333 -74.22116 
L 541.601 -52.248839 
L 552.301667 -52.204341 
L 552.301667 -71.864263 
L 552.301667 -71.864263 
L 541.601 -75.743041 
L 530.900333 -103.792484 
L 520.199667 -68.404175 
L 509.499 -82.94909 
L 498.798333 -81.548852 
L 488.097667 -105.399755 
L 477.397 -100.286239 
L 466.696333 -86.300987 
L 455.995667 -102.320234 
L 445.295 -103.828916 
L 434.594333 -95.042621 
L 423.893667 -82.768156 
L 413.193 -93.619417 
L 402.492333 -103.387937 
L 391.791667 -100.515926 
L 381.091 -104.488271 
L 370.390333 -96.819884 
L 359.689667 -94.39294 
L 348.989 -107.9385 
L 338.288333 -105.81748 
z
" style="stroke: #ffffff; stroke-opacity: 0.2"/>
    </defs>
    <g clip-path="url(#p842666786f)">
     <use xlink:href="#m739f00c6b9" x="0" y="248.690625" style="fill: #2ca02c; fill-opacity: 0.2; stroke: #ffffff; stroke-opacity: 0.2"/>
    </g>
   </g>
   <g id="line2d_33">
    <path d="M 338.288333 150.856433 
L 348.989 155.760527 
L 359.689667 144.971519 
L 370.390333 133.201692 
L 381.091 135.16333 
L 391.791667 115.056543 
L 402.492333 124.864732 
L 413.193 104.267535 
L 423.893667 82.689518 
L 434.594333 66.015597 
L 445.295 64.544369 
L 455.995667 69.938873 
L 466.696333 68.467644 
L 477.397 84.651156 
L 488.097667 97.401802 
L 498.798333 121.431865 
L 509.499 128.788007 
L 520.199667 157.231756 
L 530.900333 153.30848 
L 541.601 163.607079 
L 552.301667 173.905677 
" clip-path="url(#p842666786f)" style="fill: none; stroke: #1f77b4; stroke-width: 1.5; stroke-linecap: round"/>
   </g>
   <g id="line2d_34">
    <path d="M 338.288333 150.856433 
L 348.989 148.404386 
L 359.689667 160.664622 
L 370.390333 152.327661 
L 381.091 128.297598 
L 391.791667 118.489409 
L 402.492333 107.209991 
L 413.193 101.325078 
L 423.893667 94.459345 
L 434.594333 68.958054 
L 445.295 62.582731 
L 455.995667 69.938873 
L 466.696333 74.352558 
L 477.397 64.053959 
L 488.097667 75.333377 
L 498.798333 83.670337 
L 509.499 75.823786 
L 520.199667 89.555251 
L 530.900333 87.103204 
L 541.601 91.026479 
L 552.301667 90.04566 
" clip-path="url(#p842666786f)" style="fill: none; stroke: #ff7f0e; stroke-width: 1.5; stroke-linecap: round"/>
   </g>
   <g id="line2d_35">
    <path d="M 338.288333 150.856433 
L 348.989 153.30848 
L 359.689667 167.039945 
L 370.390333 162.62626 
L 381.091 155.270118 
L 391.791667 155.270118 
L 402.492333 154.779708 
L 413.193 167.530354 
L 423.893667 175.376906 
L 434.594333 162.13585 
L 445.295 153.79889 
L 455.995667 155.270118 
L 466.696333 169.001583 
L 477.397 157.231756 
L 488.097667 152.327661 
L 498.798333 181.261819 
L 509.499 171.45363 
L 520.199667 192.541237 
L 530.900333 159.683803 
L 541.601 184.694685 
L 552.301667 186.656323 
" clip-path="url(#p842666786f)" style="fill: none; stroke: #2ca02c; stroke-width: 1.5; stroke-linecap: round"/>
   </g>
   <g id="line2d_36">
    <path d="M 338.288333 150.856433 
L 552.301667 150.856433 
" clip-path="url(#p842666786f)" style="fill: none; stroke: #808080; stroke-opacity: 0.5; stroke-width: 1.5; stroke-linecap: round"/>
   </g>
   <g id="line2d_37">
    <path d="M 445.295 212.2 
L 445.295 49.3125 
" clip-path="url(#p842666786f)" style="fill: none; stroke-dasharray: 5.55,2.4; stroke-dashoffset: 0; stroke: #000000; stroke-opacity: 0.5; stroke-width: 1.5"/>
   </g>
   <g id="patch_9">
    <path d="M 338.288333 212.2 
L 338.288333 49.3125 
" style="fill: none; stroke: #cccccc; stroke-width: 0.8; stroke-linejoin: miter; stroke-linecap: square"/>
   </g>
   <g id="patch_10">
    <path d="M 552.301667 212.2 
L 552.301667 49.3125 
" style="fill: none; stroke: #cccccc; stroke-width: 0.8; stroke-linejoin: miter; stroke-linecap: square"/>
   </g>
   <g id="patch_11">
    <path d="M 338.288333 212.2 
L 552.301667 212.2 
" style="fill: none; stroke: #cccccc; stroke-width: 0.8; stroke-linejoin: miter; stroke-linecap: square"/>
   </g>
   <g id="patch_12">
    <path d="M 338.288333 49.3125 
L 552.301667 49.3125 
" style="fill: none; stroke: #cccccc; stroke-width: 0.8; stroke-linejoin: miter; stroke-linecap: square"/>
   </g>
   <g id="text_33">
    <!-- Spirals -->
    <g style="fill: #262626" transform="translate(426.955625 43.3125) scale(0.12 -0.12)">
     <defs>
      <path id="ArialMT-70" d="M 422 -1272 
L 422 3319 
L 934 3319 
L 934 2888 
Q 1116 3141 1344 3267 
Q 1572 3394 1897 3394 
Q 2322 3394 2647 3175 
Q 2972 2956 3137 2557 
Q 3303 2159 3303 1684 
Q 3303 1175 3120 767 
Q 2938 359 2589 142 
Q 2241 -75 1856 -75 
Q 1575 -75 1351 44 
Q 1128 163 984 344 
L 984 -1272 
L 422 -1272 
z
M 931 1641 
Q 931 1000 1190 694 
Q 1450 388 1819 388 
Q 2194 388 2461 705 
Q 2728 1022 2728 1688 
Q 2728 2322 2467 2637 
Q 2206 2953 1844 2953 
Q 1484 2953 1207 2617 
Q 931 2281 931 1641 
z
" transform="scale(0.015625)"/>
     </defs>
     <use xlink:href="#ArialMT-53"/>
     <use xlink:href="#ArialMT-70" transform="translate(66.699219 0)"/>
     <use xlink:href="#ArialMT-69" transform="translate(122.314453 0)"/>
     <use xlink:href="#ArialMT-72" transform="translate(144.53125 0)"/>
     <use xlink:href="#ArialMT-61" transform="translate(177.832031 0)"/>
     <use xlink:href="#ArialMT-6c" transform="translate(233.447266 0)"/>
     <use xlink:href="#ArialMT-73" transform="translate(255.664062 0)"/>
    </g>
   </g>
  </g>
  <g id="axes_3">
   <g id="patch_13">
    <path d="M 629.251667 212.2 
L 843.265 212.2 
L 843.265 49.3125 
L 629.251667 49.3125 
z
" style="fill: #ffffff"/>
   </g>
   <g id="matplotlib.axis_5">
    <g id="xtick_13">
     <g id="line2d_38">
      <path d="M 629.251667 212.2 
L 629.251667 49.3125 
" clip-path="url(#pc4241d1a52)" style="fill: none; stroke: #cccccc; stroke-width: 0.8; stroke-linecap: round"/>
     </g>
     <g id="text_34">
      <!-- 0 -->
      <g style="fill: #262626" transform="translate(626.471198 226.357813) scale(0.1 -0.1)">
       <use xlink:href="#ArialMT-30"/>
      </g>
     </g>
    </g>
    <g id="xtick_14">
     <g id="line2d_39">
      <path d="M 672.054333 212.2 
L 672.054333 49.3125 
" clip-path="url(#pc4241d1a52)" style="fill: none; stroke: #cccccc; stroke-width: 0.8; stroke-linecap: round"/>
     </g>
     <g id="text_35">
      <!-- 2 -->
      <g style="fill: #262626" transform="translate(669.273865 226.357813) scale(0.1 -0.1)">
       <use xlink:href="#ArialMT-32"/>
      </g>
     </g>
    </g>
    <g id="xtick_15">
     <g id="line2d_40">
      <path d="M 714.857 212.2 
L 714.857 49.3125 
" clip-path="url(#pc4241d1a52)" style="fill: none; stroke: #cccccc; stroke-width: 0.8; stroke-linecap: round"/>
     </g>
     <g id="text_36">
      <!-- 4 -->
      <g style="fill: #262626" transform="translate(712.076531 226.357813) scale(0.1 -0.1)">
       <use xlink:href="#ArialMT-34"/>
      </g>
     </g>
    </g>
    <g id="xtick_16">
     <g id="line2d_41">
      <path d="M 757.659667 212.2 
L 757.659667 49.3125 
" clip-path="url(#pc4241d1a52)" style="fill: none; stroke: #cccccc; stroke-width: 0.8; stroke-linecap: round"/>
     </g>
     <g id="text_37">
      <!-- 6 -->
      <g style="fill: #262626" transform="translate(754.879198 226.357813) scale(0.1 -0.1)">
       <use xlink:href="#ArialMT-36"/>
      </g>
     </g>
    </g>
    <g id="xtick_17">
     <g id="line2d_42">
      <path d="M 800.462333 212.2 
L 800.462333 49.3125 
" clip-path="url(#pc4241d1a52)" style="fill: none; stroke: #cccccc; stroke-width: 0.8; stroke-linecap: round"/>
     </g>
     <g id="text_38">
      <!-- 8 -->
      <g style="fill: #262626" transform="translate(797.681865 226.357813) scale(0.1 -0.1)">
       <use xlink:href="#ArialMT-38"/>
      </g>
     </g>
    </g>
    <g id="xtick_18">
     <g id="line2d_43">
      <path d="M 843.265 212.2 
L 843.265 49.3125 
" clip-path="url(#pc4241d1a52)" style="fill: none; stroke: #cccccc; stroke-width: 0.8; stroke-linecap: round"/>
     </g>
     <g id="text_39">
      <!-- 10 -->
      <g style="fill: #262626" transform="translate(837.704063 226.357813) scale(0.1 -0.1)">
       <use xlink:href="#ArialMT-31"/>
       <use xlink:href="#ArialMT-30" transform="translate(55.615234 0)"/>
      </g>
     </g>
    </g>
    <g id="text_40">
     <!-- % Data Removed -->
     <g style="fill: #262626" transform="translate(697.075521 239.503125) scale(0.1 -0.1)">
      <use xlink:href="#ArialMT-25"/>
      <use xlink:href="#ArialMT-20" transform="translate(88.916016 0)"/>
      <use xlink:href="#ArialMT-44" transform="translate(116.699219 0)"/>
      <use xlink:href="#ArialMT-61" transform="translate(188.916016 0)"/>
      <use xlink:href="#ArialMT-74" transform="translate(244.53125 0)"/>
      <use xlink:href="#ArialMT-61" transform="translate(272.314453 0)"/>
      <use xlink:href="#ArialMT-20" transform="translate(327.929688 0)"/>
      <use xlink:href="#ArialMT-52" transform="translate(355.712891 0)"/>
      <use xlink:href="#ArialMT-65" transform="translate(427.929688 0)"/>
      <use xlink:href="#ArialMT-6d" transform="translate(483.544922 0)"/>
      <use xlink:href="#ArialMT-6f" transform="translate(566.845703 0)"/>
      <use xlink:href="#ArialMT-76" transform="translate(622.460938 0)"/>
      <use xlink:href="#ArialMT-65" transform="translate(672.460938 0)"/>
      <use xlink:href="#ArialMT-64" transform="translate(728.076172 0)"/>
     </g>
    </g>
   </g>
   <g id="matplotlib.axis_6">
    <g id="ytick_13">
     <g id="line2d_44">
      <path d="M 629.251667 205.548371 
L 843.265 205.548371 
" clip-path="url(#pc4241d1a52)" style="fill: none; stroke: #cccccc; stroke-width: 0.8; stroke-linecap: round"/>
     </g>
     <g id="text_41">
      <!-- −0.2 -->
      <g style="fill: #262626" transform="translate(602.511042 209.127277) scale(0.1 -0.1)">
       <use xlink:href="#ArialMT-2212"/>
       <use xlink:href="#ArialMT-30" transform="translate(58.398438 0)"/>
       <use xlink:href="#ArialMT-2e" transform="translate(114.013672 0)"/>
       <use xlink:href="#ArialMT-32" transform="translate(141.796875 0)"/>
      </g>
     </g>
    </g>
    <g id="ytick_14">
     <g id="line2d_45">
      <path d="M 629.251667 176.94814 
L 843.265 176.94814 
" clip-path="url(#pc4241d1a52)" style="fill: none; stroke: #cccccc; stroke-width: 0.8; stroke-linecap: round"/>
     </g>
     <g id="text_42">
      <!-- 0.0 -->
      <g style="fill: #262626" transform="translate(608.351667 180.527046) scale(0.1 -0.1)">
       <use xlink:href="#ArialMT-30"/>
       <use xlink:href="#ArialMT-2e" transform="translate(55.615234 0)"/>
       <use xlink:href="#ArialMT-30" transform="translate(83.398438 0)"/>
      </g>
     </g>
    </g>
    <g id="ytick_15">
     <g id="line2d_46">
      <path d="M 629.251667 148.347909 
L 843.265 148.347909 
" clip-path="url(#pc4241d1a52)" style="fill: none; stroke: #cccccc; stroke-width: 0.8; stroke-linecap: round"/>
     </g>
     <g id="text_43">
      <!-- 0.2 -->
      <g style="fill: #262626" transform="translate(608.351667 151.926815) scale(0.1 -0.1)">
       <use xlink:href="#ArialMT-30"/>
       <use xlink:href="#ArialMT-2e" transform="translate(55.615234 0)"/>
       <use xlink:href="#ArialMT-32" transform="translate(83.398438 0)"/>
      </g>
     </g>
    </g>
    <g id="ytick_16">
     <g id="line2d_47">
      <path d="M 629.251667 119.747678 
L 843.265 119.747678 
" clip-path="url(#pc4241d1a52)" style="fill: none; stroke: #cccccc; stroke-width: 0.8; stroke-linecap: round"/>
     </g>
     <g id="text_44">
      <!-- 0.4 -->
      <g style="fill: #262626" transform="translate(608.351667 123.326584) scale(0.1 -0.1)">
       <use xlink:href="#ArialMT-30"/>
       <use xlink:href="#ArialMT-2e" transform="translate(55.615234 0)"/>
       <use xlink:href="#ArialMT-34" transform="translate(83.398438 0)"/>
      </g>
     </g>
    </g>
    <g id="ytick_17">
     <g id="line2d_48">
      <path d="M 629.251667 91.147447 
L 843.265 91.147447 
" clip-path="url(#pc4241d1a52)" style="fill: none; stroke: #cccccc; stroke-width: 0.8; stroke-linecap: round"/>
     </g>
     <g id="text_45">
      <!-- 0.6 -->
      <g style="fill: #262626" transform="translate(608.351667 94.726353) scale(0.1 -0.1)">
       <use xlink:href="#ArialMT-30"/>
       <use xlink:href="#ArialMT-2e" transform="translate(55.615234 0)"/>
       <use xlink:href="#ArialMT-36" transform="translate(83.398438 0)"/>
      </g>
     </g>
    </g>
    <g id="ytick_18">
     <g id="line2d_49">
      <path d="M 629.251667 62.547216 
L 843.265 62.547216 
" clip-path="url(#pc4241d1a52)" style="fill: none; stroke: #cccccc; stroke-width: 0.8; stroke-linecap: round"/>
     </g>
     <g id="text_46">
      <!-- 0.8 -->
      <g style="fill: #262626" transform="translate(608.351667 66.126122) scale(0.1 -0.1)">
       <use xlink:href="#ArialMT-30"/>
       <use xlink:href="#ArialMT-2e" transform="translate(55.615234 0)"/>
       <use xlink:href="#ArialMT-38" transform="translate(83.398438 0)"/>
      </g>
     </g>
    </g>
    <g id="text_47">
     <!-- Δ Accuracy in % -->
     <g style="fill: #262626" transform="translate(596.406354 166.611719) rotate(-90) scale(0.1 -0.1)">
      <use xlink:href="#ArialMT-394"/>
      <use xlink:href="#ArialMT-20" transform="translate(61.296875 0)"/>
      <use xlink:href="#ArialMT-41" transform="translate(83.580078 0)"/>
      <use xlink:href="#ArialMT-63" transform="translate(150.279297 0)"/>
      <use xlink:href="#ArialMT-63" transform="translate(200.279297 0)"/>
      <use xlink:href="#ArialMT-75" transform="translate(250.279297 0)"/>
      <use xlink:href="#ArialMT-72" transform="translate(305.894531 0)"/>
      <use xlink:href="#ArialMT-61" transform="translate(339.195312 0)"/>
      <use xlink:href="#ArialMT-63" transform="translate(394.810547 0)"/>
      <use xlink:href="#ArialMT-79" transform="translate(444.810547 0)"/>
      <use xlink:href="#ArialMT-20" transform="translate(494.810547 0)"/>
      <use xlink:href="#ArialMT-69" transform="translate(522.59375 0)"/>
      <use xlink:href="#ArialMT-6e" transform="translate(544.810547 0)"/>
      <use xlink:href="#ArialMT-20" transform="translate(600.425781 0)"/>
      <use xlink:href="#ArialMT-25" transform="translate(628.208984 0)"/>
     </g>
    </g>
   </g>
   <g id="FillBetweenPolyCollection_7">
    <defs>
     <path id="mba288ec0bf" d="M 629.251667 -80.736993 
L 629.251667 -62.747977 
L 639.952333 -98.542202 
L 650.653 -95.700824 
L 661.353667 -105.143198 
L 672.054333 -108.722937 
L 682.755 -137.061849 
L 693.455667 -115.932248 
L 704.156333 -130.724974 
L 714.857 -128.632821 
L 725.557667 -158.277936 
L 736.258333 -163.828941 
L 746.959 -162.507808 
L 757.659667 -165.516728 
L 768.360333 -169.290359 
L 779.061 -141.704426 
L 789.761667 -150.109591 
L 800.462333 -122.951981 
L 811.163 -123.086175 
L 821.863667 -103.595809 
L 832.564333 -111.615037 
L 843.265 -93.364496 
L 843.265 -107.45427 
L 843.265 -107.45427 
L 832.564333 -130.981845 
L 821.863667 -121.6676 
L 811.163 -141.28866 
L 800.462333 -138.311718 
L 789.761667 -161.376736 
L 779.061 -154.670668 
L 768.360333 -191.974148 
L 757.659667 -175.747617 
L 746.959 -176.978746 
L 736.258333 -176.546508 
L 725.557667 -178.541929 
L 714.857 -150.853247 
L 704.156333 -157.205607 
L 693.455667 -143.553659 
L 682.755 -144.646459 
L 672.054333 -124.984984 
L 661.353667 -120.12021 
L 650.653 -119.340279 
L 639.952333 -120.054486 
L 629.251667 -80.736993 
z
" style="stroke: #ffffff; stroke-opacity: 0.2"/>
    </defs>
    <g clip-path="url(#pc4241d1a52)">
     <use xlink:href="#mba288ec0bf" x="0" y="248.690625" style="fill: #1f77b4; fill-opacity: 0.2; stroke: #ffffff; stroke-opacity: 0.2"/>
    </g>
   </g>
   <g id="FillBetweenPolyCollection_8">
    <defs>
     <path id="m5e3fbb5c2d" d="M 629.251667 -80.736993 
L 629.251667 -62.747977 
L 639.952333 -93.579875 
L 650.653 -100.659331 
L 661.353667 -94.07365 
L 672.054333 -105.440985 
L 682.755 -120.431203 
L 693.455667 -136.356592 
L 704.156333 -126.185518 
L 714.857 -146.927532 
L 725.557667 -153.178373 
L 736.258333 -140.774108 
L 746.959 -142.147444 
L 757.659667 -144.260899 
L 768.360333 -161.993268 
L 779.061 -146.07696 
L 789.761667 -162.306449 
L 800.462333 -157.119631 
L 811.163 -139.081237 
L 821.863667 -116.139175 
L 832.564333 -122.159533 
L 843.265 -119.62419 
L 843.265 -141.195061 
L 843.265 -141.195061 
L 832.564333 -144.881991 
L 821.863667 -135.346667 
L 811.163 -155.960513 
L 800.462333 -167.255689 
L 789.761667 -169.624487 
L 779.061 -158.742646 
L 768.360333 -176.159941 
L 757.659667 -168.114324 
L 746.959 -165.338851 
L 736.258333 -159.15657 
L 725.557667 -170.308051 
L 714.857 -169.003276 
L 704.156333 -152.856103 
L 693.455667 -152.018437 
L 682.755 -129.276848 
L 672.054333 -126.489144 
L 661.353667 -119.189661 
L 650.653 -111.715084 
L 639.952333 -113.461164 
L 629.251667 -80.736993 
z
" style="stroke: #ffffff; stroke-opacity: 0.2"/>
    </defs>
    <g clip-path="url(#pc4241d1a52)">
     <use xlink:href="#m5e3fbb5c2d" x="0" y="248.690625" style="fill: #ff7f0e; fill-opacity: 0.2; stroke: #ffffff; stroke-opacity: 0.2"/>
    </g>
   </g>
   <g id="FillBetweenPolyCollection_9">
    <defs>
     <path id="m997aa4c252" d="M 629.251667 -80.736993 
L 629.251667 -62.747977 
L 639.952333 -94.038028 
L 650.653 -88.513392 
L 661.353667 -73.275897 
L 672.054333 -85.095342 
L 682.755 -77.246077 
L 693.455667 -86.370067 
L 704.156333 -75.948036 
L 714.857 -82.577239 
L 725.557667 -82.102446 
L 736.258333 -67.446154 
L 746.959 -73.659341 
L 757.659667 -59.552715 
L 768.360333 -68.875706 
L 779.061 -73.859924 
L 789.761667 -43.894602 
L 800.462333 -45.958889 
L 811.163 -59.657049 
L 821.863667 -61.713344 
L 832.564333 -65.460187 
L 843.265 -69.110528 
L 843.265 -89.930123 
L 843.265 -89.930123 
L 832.564333 -83.802608 
L 821.863667 -72.882665 
L 811.163 -76.716753 
L 800.462333 -65.525823 
L 789.761667 -59.590045 
L 779.061 -94.069688 
L 768.360333 -87.942705 
L 757.659667 -81.265567 
L 746.959 -97.825855 
L 736.258333 -84.927777 
L 725.557667 -100.938399 
L 714.857 -101.352502 
L 704.156333 -97.314952 
L 693.455667 -106.004187 
L 682.755 -95.128016 
L 672.054333 -109.9456 
L 661.353667 -97.320403 
L 650.653 -101.638622 
L 639.952333 -111.669667 
L 629.251667 -80.736993 
z
" style="stroke: #ffffff; stroke-opacity: 0.2"/>
    </defs>
    <g clip-path="url(#pc4241d1a52)">
     <use xlink:href="#m997aa4c252" x="0" y="248.690625" style="fill: #2ca02c; fill-opacity: 0.2; stroke: #ffffff; stroke-opacity: 0.2"/>
    </g>
   </g>
   <g id="line2d_50">
    <path d="M 629.251667 176.94814 
L 639.952333 139.392281 
L 650.653 141.170073 
L 661.353667 136.058921 
L 672.054333 131.836664 
L 682.755 107.836471 
L 693.455667 118.947671 
L 704.156333 104.725334 
L 714.857 108.947591 
L 725.557667 80.280693 
L 736.258333 78.5029 
L 746.959 78.947348 
L 757.659667 78.058452 
L 768.360333 68.058372 
L 779.061 100.503078 
L 789.761667 92.947461 
L 800.462333 118.058775 
L 811.163 116.503207 
L 821.863667 136.058921 
L 832.564333 127.392184 
L 843.265 148.281242 
" clip-path="url(#pc4241d1a52)" style="fill: none; stroke: #1f77b4; stroke-width: 1.5; stroke-linecap: round"/>
   </g>
   <g id="line2d_51">
    <path d="M 629.251667 176.94814 
L 639.952333 145.170106 
L 650.653 142.503417 
L 661.353667 142.058969 
L 672.054333 132.725561 
L 682.755 123.8366 
L 693.455667 104.50311 
L 704.156333 109.169815 
L 714.857 90.725221 
L 725.557667 86.947413 
L 736.258333 98.725286 
L 746.959 94.947478 
L 757.659667 92.503013 
L 768.360333 79.61402 
L 779.061 96.280822 
L 789.761667 82.725157 
L 800.462333 86.502965 
L 811.163 101.16975 
L 821.863667 122.947704 
L 832.564333 115.169863 
L 843.265 118.280999 
" clip-path="url(#pc4241d1a52)" style="fill: none; stroke: #ff7f0e; stroke-width: 1.5; stroke-linecap: round"/>
   </g>
   <g id="line2d_52">
    <path d="M 629.251667 176.94814 
L 639.952333 145.836778 
L 650.653 153.614618 
L 661.353667 163.392475 
L 672.054333 151.170154 
L 682.755 162.503579 
L 693.455667 152.503498 
L 704.156333 162.059131 
L 714.857 156.725754 
L 725.557667 157.170202 
L 736.258333 172.50366 
L 746.959 162.948027 
L 757.659667 178.281484 
L 768.360333 170.281419 
L 779.061 164.725819 
L 789.761667 196.948301 
L 800.462333 192.948269 
L 811.163 180.503724 
L 821.863667 181.39262 
L 832.564333 174.059228 
L 843.265 169.170299 
" clip-path="url(#pc4241d1a52)" style="fill: none; stroke: #2ca02c; stroke-width: 1.5; stroke-linecap: round"/>
   </g>
   <g id="line2d_53">
    <path d="M 629.251667 176.94814 
L 843.265 176.94814 
" clip-path="url(#pc4241d1a52)" style="fill: none; stroke: #808080; stroke-opacity: 0.5; stroke-width: 1.5; stroke-linecap: round"/>
   </g>
   <g id="line2d_54">
    <path d="M 736.258333 212.2 
L 736.258333 49.3125 
" clip-path="url(#pc4241d1a52)" style="fill: none; stroke-dasharray: 5.55,2.4; stroke-dashoffset: 0; stroke: #000000; stroke-opacity: 0.5; stroke-width: 1.5"/>
   </g>
   <g id="patch_14">
    <path d="M 629.251667 212.2 
L 629.251667 49.3125 
" style="fill: none; stroke: #cccccc; stroke-width: 0.8; stroke-linejoin: miter; stroke-linecap: square"/>
   </g>
   <g id="patch_15">
    <path d="M 843.265 212.2 
L 843.265 49.3125 
" style="fill: none; stroke: #cccccc; stroke-width: 0.8; stroke-linejoin: miter; stroke-linecap: square"/>
   </g>
   <g id="patch_16">
    <path d="M 629.251667 212.2 
L 843.265 212.2 
" style="fill: none; stroke: #cccccc; stroke-width: 0.8; stroke-linejoin: miter; stroke-linecap: square"/>
   </g>
   <g id="patch_17">
    <path d="M 629.251667 49.3125 
L 843.265 49.3125 
" style="fill: none; stroke: #cccccc; stroke-width: 0.8; stroke-linejoin: miter; stroke-linecap: square"/>
   </g>
   <g id="text_48">
    <!-- Satelite -->
    <g style="fill: #262626" transform="translate(716.246458 43.3125) scale(0.12 -0.12)">
     <use xlink:href="#ArialMT-53"/>
     <use xlink:href="#ArialMT-61" transform="translate(66.699219 0)"/>
     <use xlink:href="#ArialMT-74" transform="translate(122.314453 0)"/>
     <use xlink:href="#ArialMT-65" transform="translate(150.097656 0)"/>
     <use xlink:href="#ArialMT-6c" transform="translate(205.712891 0)"/>
     <use xlink:href="#ArialMT-69" transform="translate(227.929688 0)"/>
     <use xlink:href="#ArialMT-74" transform="translate(250.146484 0)"/>
     <use xlink:href="#ArialMT-65" transform="translate(277.929688 0)"/>
    </g>
   </g>
  </g>
  <g id="text_49">
   <!-- Error Removal for Asymmetric 5% Noise -->
   <g style="fill: #262626" transform="translate(320.29 15.935625) scale(0.12 -0.12)">
    <defs>
     <path id="ArialMT-45" d="M 506 0 
L 506 4581 
L 3819 4581 
L 3819 4041 
L 1113 4041 
L 1113 2638 
L 3647 2638 
L 3647 2100 
L 1113 2100 
L 1113 541 
L 3925 541 
L 3925 0 
L 506 0 
z
" transform="scale(0.015625)"/>
     <path id="ArialMT-4e" d="M 488 0 
L 488 4581 
L 1109 4581 
L 3516 984 
L 3516 4581 
L 4097 4581 
L 4097 0 
L 3475 0 
L 1069 3600 
L 1069 0 
L 488 0 
z
" transform="scale(0.015625)"/>
    </defs>
    <use xlink:href="#ArialMT-45"/>
    <use xlink:href="#ArialMT-72" transform="translate(66.699219 0)"/>
    <use xlink:href="#ArialMT-72" transform="translate(100 0)"/>
    <use xlink:href="#ArialMT-6f" transform="translate(133.300781 0)"/>
    <use xlink:href="#ArialMT-72" transform="translate(188.916016 0)"/>
    <use xlink:href="#ArialMT-20" transform="translate(222.216797 0)"/>
    <use xlink:href="#ArialMT-52" transform="translate(250 0)"/>
    <use xlink:href="#ArialMT-65" transform="translate(322.216797 0)"/>
    <use xlink:href="#ArialMT-6d" transform="translate(377.832031 0)"/>
    <use xlink:href="#ArialMT-6f" transform="translate(461.132812 0)"/>
    <use xlink:href="#ArialMT-76" transform="translate(516.748047 0)"/>
    <use xlink:href="#ArialMT-61" transform="translate(566.748047 0)"/>
    <use xlink:href="#ArialMT-6c" transform="translate(622.363281 0)"/>
    <use xlink:href="#ArialMT-20" transform="translate(644.580078 0)"/>
    <use xlink:href="#ArialMT-66" transform="translate(672.363281 0)"/>
    <use xlink:href="#ArialMT-6f" transform="translate(700.146484 0)"/>
    <use xlink:href="#ArialMT-72" transform="translate(755.761719 0)"/>
    <use xlink:href="#ArialMT-20" transform="translate(789.0625 0)"/>
    <use xlink:href="#ArialMT-41" transform="translate(811.345703 0)"/>
    <use xlink:href="#ArialMT-73" transform="translate(878.044922 0)"/>
    <use xlink:href="#ArialMT-79" transform="translate(928.044922 0)"/>
    <use xlink:href="#ArialMT-6d" transform="translate(978.044922 0)"/>
    <use xlink:href="#ArialMT-6d" transform="translate(1061.345703 0)"/>
    <use xlink:href="#ArialMT-65" transform="translate(1144.646484 0)"/>
    <use xlink:href="#ArialMT-74" transform="translate(1200.261719 0)"/>
    <use xlink:href="#ArialMT-72" transform="translate(1228.044922 0)"/>
    <use xlink:href="#ArialMT-69" transform="translate(1261.345703 0)"/>
    <use xlink:href="#ArialMT-63" transform="translate(1283.5625 0)"/>
    <use xlink:href="#ArialMT-20" transform="translate(1333.5625 0)"/>
    <use xlink:href="#ArialMT-35" transform="translate(1361.345703 0)"/>
    <use xlink:href="#ArialMT-25" transform="translate(1416.960938 0)"/>
    <use xlink:href="#ArialMT-20" transform="translate(1505.876953 0)"/>
    <use xlink:href="#ArialMT-4e" transform="translate(1533.660156 0)"/>
    <use xlink:href="#ArialMT-6f" transform="translate(1605.876953 0)"/>
    <use xlink:href="#ArialMT-69" transform="translate(1661.492188 0)"/>
    <use xlink:href="#ArialMT-73" transform="translate(1683.708984 0)"/>
    <use xlink:href="#ArialMT-65" transform="translate(1733.708984 0)"/>
   </g>
  </g>
 </g>
 <defs>
  <clipPath id="pf5c495c418">
   <rect x="47.325" y="49.3125" width="214.013333" height="162.8875"/>
  </clipPath>
  <clipPath id="p842666786f">
   <rect x="338.288333" y="49.3125" width="214.013333" height="162.8875"/>
  </clipPath>
  <clipPath id="pc4241d1a52">
   <rect x="629.251667" y="49.3125" width="214.013333" height="162.8875"/>
  </clipPath>
 </defs>
</svg>
